<svg width="237" height="122" viewBox="0 0 237 122" fill="none" xmlns="http://www.w3.org/2000/svg">
<rect width="236.138" height="121.847" rx="5" fill="white"/>
<path d="M68.7974 57.5269H73.8522V63.3391C73.8522 63.9193 74.2013 64.204 74.9265 64.204C75.6517 64.204 75.9418 63.9193 75.9418 63.3391V60.3363C75.9418 59.416 75.3294 58.3416 74.1046 57.1133C72.5343 55.6651 71.0576 54.1185 69.6837 52.4828C69.1195 51.7338 68.8157 50.8207 68.8188 49.8829V47.0305C68.8188 43.743 70.9675 42.0992 75.2649 42.0992C79.1111 42.0992 81.0342 43.5944 81.0342 46.5846V50.9519H75.9794V46.2892C75.9794 45.7789 75.7 45.5264 75.136 45.5264C74.4753 45.5264 74.1422 46.0152 74.1422 46.9929L74.2497 48.6367C74.2497 49.5821 74.8728 50.6779 76.1298 51.9242C77.7231 53.3674 79.2063 54.9277 80.5669 56.5922C81.1936 57.467 81.5248 58.519 81.5123 59.595V62.8181C81.5123 66.1879 79.3636 67.8729 75.0662 67.8729C70.9085 67.8729 68.8314 66.3419 68.835 63.28L68.7974 57.5269Z" fill="#0B4C7D"/>
<path d="M94.4041 58.972H87.6787V63.7636C87.6787 64.4566 87.9687 64.8057 88.5435 64.8057C89.1183 64.8057 89.3922 64.4566 89.3922 63.7636V59.6274H94.4309V63.8012C94.4309 66.5659 92.4613 67.95 88.522 67.9536C84.5827 67.9572 82.6274 66.514 82.6561 63.624V51.3388C82.6561 48.4524 84.6114 47.0092 88.522 47.0092C92.4327 47.0092 94.4023 48.3933 94.4309 51.1615L94.4041 58.972ZM89.3654 55.8994V51.1991C89.3654 50.5277 89.0861 50.1892 88.5166 50.1892C87.9472 50.1892 87.6518 50.5277 87.6518 51.1991V55.8994H89.3654Z" fill="#0B4C7D"/>
<path d="M107.463 55.652H102.43V51.1988C102.43 50.5757 102.139 50.2642 101.559 50.2642C100.985 50.2642 100.694 50.5596 100.694 51.1612V67.6686H95.6611V47.1485H100.694V47.8415C101.368 47.29 102.404 47.0125 103.805 47.0089C104.731 46.9846 105.64 47.268 106.389 47.8146C106.727 48.0515 107.002 48.3679 107.189 48.7361C107.377 49.1042 107.471 49.5127 107.463 49.9257V55.652Z" fill="#0B4C7D"/>
<path d="M121.445 47.1487L117.76 67.6688H111.69L107.979 47.1487H113.039L114.779 59.2727L116.471 47.1487H121.445Z" fill="#0B4C7D"/>
<path d="M127.081 46.0206H122.058V42.3248H127.097L127.081 46.0206ZM127.081 67.6687H122.058V47.1487H127.097L127.081 67.6687Z" fill="#0B4C7D"/>
<path d="M139.914 56.2378H134.875V51.1991C134.875 50.5277 134.59 50.1892 134.026 50.1892C133.462 50.1892 133.161 50.5277 133.161 51.1991V63.7636C133.161 64.4566 133.451 64.8057 134.026 64.8057C134.601 64.8057 134.875 64.4566 134.875 63.7636V58.8001H139.914V63.8012C139.914 66.5659 137.974 67.95 134.096 67.9536C130.114 67.9536 128.123 66.5104 128.123 63.624V51.3388C128.123 48.4524 130.114 47.0092 134.096 47.0092C137.974 47.0092 139.914 48.3933 139.914 51.1615V56.2378Z" fill="#0B4C7D"/>
<path d="M152.811 58.972H146.059V63.7636C146.059 64.4566 146.349 64.8057 146.929 64.8057C147.509 64.8057 147.778 64.4566 147.778 63.7636V59.6274H152.811V63.8012C152.811 66.5659 150.842 67.95 146.902 67.9536C142.963 67.9572 141.008 66.514 141.036 63.624V51.3388C141.036 48.4524 142.992 47.0092 146.902 47.0092C150.813 47.0092 152.783 48.3933 152.811 51.1615V58.972ZM147.778 55.8994V51.1991C147.778 50.5277 147.493 50.1892 146.929 50.1892C146.365 50.1892 146.059 50.5277 146.059 51.1991V55.8994H147.778Z" fill="#0B4C7D"/>
<path d="M159.424 58.338V67.6687H153.999V42.3248H159.848C162.169 42.3248 163.888 42.6203 165.016 43.2112C166.144 43.8021 166.703 45 166.703 46.8156V53.8472C166.703 55.5125 166.241 56.6835 165.322 57.3765C164.404 58.0694 162.438 58.3863 159.424 58.338ZM161.277 53.3745V47.2937C161.277 46.3966 160.66 45.9508 159.424 45.9508V54.7121C160.66 54.7121 161.272 54.2662 161.272 53.3745H161.277Z" fill="#0B4C7D"/>
<path d="M172.73 67.6687H167.718V42.3248H172.756L172.73 67.6687Z" fill="#0B4C7D"/>
<path d="M185.665 67.6687H180.61V66.9812C179.96 67.6258 178.918 67.9535 177.489 67.9535C176.567 67.9737 175.663 67.6968 174.911 67.1638C174.574 66.9382 174.299 66.6316 174.111 66.2722C173.923 65.9127 173.829 65.5119 173.836 65.1064V47.1487H178.875V63.8441C178.875 64.4672 179.17 64.7841 179.756 64.7841C180.342 64.7841 180.626 64.4833 180.626 63.8817V47.1487H185.66L185.665 67.6687Z" fill="#0B4C7D"/>
<path d="M186.729 59.4179H191.762V63.7636C191.762 64.4566 192.047 64.8057 192.611 64.8057C193.175 64.8057 193.459 64.1397 193.459 62.8075C193.459 61.0778 193.112 59.9586 192.417 59.4501C189.789 58.075 188.204 57.1116 187.663 56.5601C187.372 56.2232 187.15 55.8318 187.011 55.4086C186.871 54.9853 186.817 54.5387 186.852 54.0945V51.3388C186.852 48.4524 188.807 47.0092 192.718 47.0092C196.521 47.0092 198.425 48.3933 198.428 51.1615V55.2118H193.502L193.61 52.7516C193.61 51.0433 193.293 50.1892 192.67 50.1892C192.047 50.1892 191.735 50.7264 191.735 51.8008C191.691 52.657 191.832 53.5127 192.149 54.3094C192.428 54.8734 193.964 55.8457 196.774 57.2262C197.32 57.5882 197.767 58.0822 198.072 58.6624C198.377 59.2427 198.531 59.8905 198.519 60.546V63.624C198.519 66.5104 196.532 67.9536 192.557 67.9536C188.664 67.9536 186.718 66.5695 186.718 63.8012L186.729 59.4179Z" fill="#0B4C7D"/>
<path d="M72.595 75.3559L72.6595 75.1894C72.6595 75.1357 72.7078 75.082 72.7347 75.0283L74.1582 72.4445C74.1657 72.4243 74.1772 72.4058 74.1919 72.3901C74.2067 72.3744 74.2244 72.3618 74.2441 72.3531C74.2869 72.3465 74.3303 72.3465 74.3731 72.3531H74.8297V76.6505H74.2925V73.4275C74.2925 73.3791 74.2925 73.3254 74.2925 73.2771L72.8528 75.9092C72.8351 75.9525 72.8044 75.9891 72.765 76.0141C72.7255 76.0391 72.6793 76.0513 72.6326 76.0489H72.5467C72.4993 76.0516 72.4522 76.0397 72.4118 76.0147C72.3714 75.9897 72.3397 75.9529 72.321 75.9092L70.8492 73.2663V73.4221C70.8492 73.4758 70.8492 73.5242 70.8492 73.5672V76.6505H70.312V72.3531H70.7686C70.8113 72.3465 70.8548 72.3465 70.8975 72.3531C70.9172 72.3618 70.935 72.3744 70.9498 72.3901C70.9645 72.4058 70.976 72.4243 70.9835 72.4445L72.4285 75.0336C72.5037 75.125 72.5467 75.2431 72.595 75.3559Z" fill="#231F20"/>
<path d="M76.935 73.5456C77.1075 73.5448 77.2787 73.5758 77.44 73.6369C77.5915 73.6949 77.7289 73.7847 77.8429 73.9001C77.9615 74.0209 78.0531 74.1655 78.1115 74.3245C78.1783 74.5105 78.2111 74.707 78.2081 74.9046C78.2134 74.9655 78.2022 75.0267 78.1759 75.0819C78.164 75.0972 78.1484 75.1092 78.1305 75.1168C78.1126 75.1243 78.0931 75.1271 78.0739 75.1249H76.0702C76.0715 75.2892 76.0987 75.4524 76.1508 75.6083C76.188 75.7351 76.2521 75.8524 76.3388 75.9521C76.4198 76.0425 76.521 76.1125 76.6342 76.1562C76.7545 76.2007 76.882 76.2225 77.0102 76.2207C77.1245 76.2224 77.2385 76.208 77.3487 76.1777C77.4328 76.1501 77.5153 76.1178 77.5958 76.081C77.6553 76.051 77.7128 76.0169 77.7677 75.979C77.8064 75.9542 77.8507 75.9395 77.8966 75.936C77.9169 75.9343 77.9374 75.9385 77.9554 75.948C77.9735 75.9575 77.9885 75.972 77.9986 75.9897L78.1598 76.1938C78.0912 76.2778 78.0096 76.3504 77.9181 76.4087C77.8258 76.4687 77.7266 76.5174 77.6226 76.5537C77.5167 76.5938 77.4069 76.6226 77.295 76.6397C77.1847 76.6566 77.0734 76.6656 76.9619 76.6665C76.7635 76.6678 76.5666 76.6313 76.3818 76.5591C76.2061 76.4918 76.048 76.3852 75.9198 76.2475C75.7835 76.1035 75.6807 75.9311 75.619 75.7426C75.5402 75.5184 75.502 75.2819 75.5062 75.0443C75.5064 74.8429 75.5409 74.6431 75.6082 74.4534C75.6699 74.2792 75.7648 74.1187 75.8876 73.9807C76.0135 73.8438 76.1674 73.7358 76.3388 73.6637C76.5267 73.5819 76.7301 73.5416 76.935 73.5456ZM76.935 73.9592C76.8276 73.9541 76.7202 73.971 76.6195 74.0088C76.5189 74.0467 76.427 74.1048 76.3495 74.1794C76.1983 74.3442 76.1042 74.5533 76.0809 74.7757H77.6925C77.6934 74.6646 77.6771 74.5541 77.6441 74.448C77.6116 74.3529 77.5604 74.2653 77.4937 74.1902C77.4279 74.1182 77.3473 74.0613 77.2574 74.0236C77.156 73.9787 77.0459 73.9566 76.935 73.9592Z" fill="#231F20"/>
<path d="M79.7554 76.6718C79.6567 76.6762 79.5581 76.6603 79.4658 76.6252C79.3734 76.5901 79.2892 76.5365 79.2183 76.4677C79.1474 76.3884 79.0933 76.2958 79.0592 76.1952C79.025 76.0945 79.0115 75.9881 79.0195 75.8821V74.0504H78.665C78.6468 74.0602 78.6265 74.0654 78.6059 74.0654C78.5852 74.0654 78.5649 74.0602 78.5468 74.0504C78.5353 74.0383 78.5264 74.0239 78.5209 74.0082C78.5153 73.9924 78.5132 73.9757 78.5146 73.959V73.7334L79.0088 73.669L79.1377 72.7504C79.142 72.7208 79.1573 72.6939 79.1807 72.6752C79.2041 72.6538 79.2349 72.6423 79.2666 72.643H79.5567V73.669H80.4162V74.0504H79.5567V75.8392C79.5521 75.8882 79.5573 75.9378 79.5721 75.9848C79.5868 76.0318 79.6108 76.0755 79.6426 76.1131C79.6728 76.1434 79.7089 76.1671 79.7486 76.1828C79.7884 76.1985 79.8309 76.2059 79.8736 76.2044C79.9197 76.2134 79.9672 76.2134 80.0133 76.2044C80.0505 76.1961 80.0853 76.1796 80.1153 76.1561L80.1905 76.1077C80.2083 76.1043 80.2265 76.1043 80.2443 76.1077C80.251 76.1048 80.2584 76.1033 80.2658 76.1033C80.2731 76.1033 80.2805 76.1048 80.2872 76.1077L80.3248 76.1453L80.4914 76.4193C80.3922 76.5077 80.2774 76.5769 80.153 76.6234C80.0241 76.6619 79.8897 76.6783 79.7554 76.6718Z" fill="#231F20"/>
<path d="M82.9086 76.6234C82.8667 76.6369 82.8216 76.6369 82.7797 76.6234C82.7439 76.5988 82.7174 76.5628 82.7045 76.5213L82.6454 76.2473C82.5649 76.3225 82.4897 76.3816 82.4144 76.4407C82.3401 76.496 82.261 76.5446 82.1781 76.5858C82.0916 76.6232 82.0016 76.652 81.9095 76.6717C81.8058 76.6806 81.7016 76.6806 81.5979 76.6717C81.4851 76.6727 81.3728 76.6564 81.2649 76.6234C81.1637 76.5939 81.0701 76.5425 80.9909 76.473C80.9142 76.4015 80.8522 76.3157 80.8083 76.2205C80.7633 76.1078 80.7414 75.9872 80.7438 75.8659C80.7433 75.7446 80.7768 75.6255 80.8405 75.5222C80.9188 75.3979 81.028 75.2961 81.1575 75.2267C81.337 75.1262 81.5308 75.0537 81.7322 75.0118C82.0186 74.9523 82.31 74.92 82.6025 74.9151V74.6895C82.6209 74.498 82.5673 74.3065 82.4521 74.1524C82.3972 74.0928 82.3295 74.0463 82.2542 74.0166C82.1788 73.9868 82.0977 73.9744 82.0169 73.9805C81.9075 73.9774 81.7984 73.9937 81.6946 74.0288C81.6165 74.0582 81.5411 74.0941 81.469 74.1362L81.3025 74.2437C81.2625 74.2747 81.2134 74.2916 81.1628 74.292C81.1261 74.2937 81.0899 74.2823 81.0608 74.2598C81.0348 74.2374 81.0113 74.2122 80.9909 74.1846L80.8889 74.002C81.045 73.8509 81.227 73.729 81.426 73.642C81.633 73.5607 81.8537 73.5206 82.076 73.5239C82.232 73.5211 82.387 73.5485 82.5326 73.6044C82.6612 73.6578 82.7767 73.7384 82.871 73.8408C82.9638 73.947 83.0334 74.0714 83.0752 74.2061C83.1243 74.3569 83.1479 74.5148 83.145 74.6734V76.6072L82.9086 76.6234ZM81.7698 76.2742C81.9296 76.276 82.0877 76.2411 82.2318 76.1721C82.2984 76.1373 82.3614 76.0959 82.4198 76.0486C82.4845 75.9974 82.5456 75.9418 82.6025 75.8821V75.2697C82.3972 75.2753 82.1926 75.295 81.9901 75.3288C81.8494 75.35 81.7121 75.3897 81.5818 75.447C81.4917 75.4815 81.4134 75.5412 81.3562 75.6188C81.3101 75.6809 81.2856 75.7564 81.2864 75.8337C81.2838 75.9037 81.2967 75.9734 81.324 76.0378C81.3455 76.0909 81.3807 76.1372 81.426 76.1721C81.4695 76.2087 81.5211 76.2345 81.5765 76.2473C81.6387 76.268 81.7043 76.2771 81.7698 76.2742Z" fill="#231F20"/>
<path d="M86.1373 76.6235C86.1033 76.6266 86.0694 76.6167 86.0424 76.5957C86.0155 76.5748 85.9976 76.5444 85.9922 76.5107L85.9385 76.1561C85.876 76.2311 85.8078 76.3012 85.7344 76.3656C85.6617 76.4278 85.5825 76.4818 85.498 76.5268C85.4142 76.5741 85.3236 76.6085 85.2295 76.6288C84.9717 76.6955 84.699 76.6728 84.4559 76.5644C84.3131 76.4976 84.1893 76.396 84.096 76.2689C83.9875 76.1249 83.9089 75.9604 83.865 75.7855C83.8082 75.5681 83.7811 75.344 83.7845 75.1194C83.7836 74.9065 83.8144 74.6947 83.8758 74.4909C83.931 74.3102 84.0184 74.141 84.1336 73.9913C84.246 73.8519 84.387 73.7383 84.5472 73.6583C84.7148 73.5781 84.8987 73.5377 85.0844 73.5401C85.2452 73.5338 85.4052 73.5651 85.5518 73.6314C85.684 73.6911 85.8028 73.777 85.9009 73.8839V72.2186H86.4703V76.6235H86.1373ZM85.1166 76.2098C85.2711 76.2136 85.4235 76.1745 85.5571 76.097C85.6941 76.01 85.8142 75.899 85.9117 75.7694V74.319C85.8314 74.2066 85.7243 74.1161 85.6001 74.0558C85.4819 74.003 85.3535 73.9774 85.2241 73.9806C85.1029 73.9742 84.9819 73.9972 84.8715 74.0477C84.7611 74.0982 84.6646 74.1747 84.5902 74.2706C84.4279 74.5227 84.3508 74.8202 84.37 75.1194C84.3659 75.2858 84.384 75.4519 84.4237 75.6136C84.4481 75.7352 84.4975 75.8504 84.5687 75.952C84.6266 76.0376 84.7064 76.1063 84.7997 76.1507C84.9012 76.1872 85.0089 76.2037 85.1166 76.1991V76.2098Z" fill="#231F20"/>
<path d="M89.2421 76.6233C89.2 76.6356 89.1553 76.6356 89.1132 76.6233C89.0791 76.5982 89.0545 76.5622 89.0434 76.5213L88.9789 76.2473C88.9071 76.3177 88.8299 76.3824 88.7479 76.4407C88.6744 76.4972 88.5952 76.5458 88.5116 76.5857C88.427 76.6232 88.3388 76.652 88.2484 76.6717C88.1447 76.6806 88.0405 76.6806 87.9368 76.6717C87.8222 76.6726 87.7081 76.6563 87.5984 76.6233C87.4988 76.5938 87.407 76.5424 87.3298 76.4729C87.2468 76.3974 87.1824 76.3036 87.1418 76.199C87.0968 76.0863 87.0749 75.9657 87.0773 75.8444C87.0768 75.7231 87.1103 75.604 87.174 75.5006C87.2509 75.3752 87.3605 75.2731 87.4909 75.2052C87.6685 75.1046 87.8606 75.0321 88.0604 74.9903C88.3485 74.9306 88.6417 74.8982 88.9359 74.8936V74.668C88.9514 74.4768 88.898 74.2863 88.7855 74.1308C88.7307 74.0712 88.663 74.0248 88.5877 73.995C88.5123 73.9653 88.4312 73.9529 88.3504 73.959C88.241 73.9558 88.1318 73.9722 88.0281 74.0073C87.95 74.0367 87.8745 74.0726 87.8025 74.1147L87.636 74.2222C87.5936 74.2526 87.5431 74.2694 87.4909 74.2705C87.4559 74.2714 87.4218 74.26 87.3943 74.2383C87.3669 74.2173 87.3433 74.1919 87.3244 74.1631L87.2224 73.9804C87.3797 73.8244 87.5668 73.7016 87.7726 73.6194C87.9784 73.5373 88.1987 73.4975 88.4203 73.5024C88.5762 73.4996 88.7312 73.527 88.8769 73.5829C89.0054 73.6363 89.1209 73.7169 89.2153 73.8193C89.3066 73.9265 89.376 74.0506 89.4194 74.1846C89.4686 74.3354 89.4922 74.4933 89.4892 74.6519V76.5857L89.2421 76.6233ZM88.1033 76.2742C88.1871 76.2853 88.272 76.2853 88.3558 76.2742C88.43 76.2572 88.5021 76.232 88.5707 76.199C88.6365 76.1628 88.6994 76.1215 88.7587 76.0754C88.8178 76.0271 88.8769 75.968 88.9413 75.9089V75.2965C88.7361 75.3018 88.5314 75.3216 88.3289 75.3556C88.1882 75.3768 88.051 75.4165 87.9207 75.4738C87.8298 75.5069 87.7512 75.5669 87.6951 75.6457C87.6474 75.7073 87.621 75.7827 87.6199 75.8605C87.6199 75.9303 87.6327 75.9995 87.6575 76.0647C87.6807 76.1167 87.7156 76.1626 87.7595 76.199C87.8057 76.2346 87.8587 76.2602 87.9153 76.2742C87.9775 76.2852 88.0411 76.2852 88.1033 76.2742Z" fill="#231F20"/>
<path d="M91.192 76.6717C91.0933 76.6752 90.995 76.6589 90.9028 76.6238C90.8105 76.5888 90.7262 76.5357 90.6548 76.4676C90.5158 76.3055 90.4463 76.0951 90.4614 75.8821V74.0503H90.1015C90.0866 74.0508 90.0717 74.0482 90.0578 74.0427C90.0439 74.0371 90.0314 74.0288 90.0209 74.0181C90.0094 74.006 90.0006 73.9916 89.995 73.9759C89.9895 73.9601 89.9873 73.9434 89.9887 73.9268V73.7011L90.4829 73.6367L90.6064 72.7181C90.6146 72.6887 90.6314 72.6625 90.6548 72.6429C90.666 72.6318 90.6795 72.6232 90.6943 72.6177C90.7091 72.6121 90.7249 72.6097 90.7407 72.6107H91.0254V73.6367H91.8903V74.0503H91.0254V75.8391C91.0218 75.8885 91.0281 75.9382 91.0437 75.9852C91.0594 76.0322 91.0842 76.0757 91.1167 76.1131C91.1469 76.1433 91.183 76.167 91.2227 76.1827C91.2625 76.1984 91.305 76.2058 91.3477 76.2044C91.3939 76.2134 91.4413 76.2134 91.4874 76.2044C91.5242 76.1948 91.5588 76.1784 91.5895 76.156L91.6593 76.1077C91.6788 76.104 91.6989 76.104 91.7184 76.1077C91.7322 76.1023 91.7475 76.1023 91.7614 76.1077C91.7746 76.1178 91.7856 76.1306 91.7936 76.1453L91.9601 76.4192C91.8626 76.5099 91.7474 76.5793 91.6217 76.6234C91.4829 76.6669 91.337 76.6833 91.192 76.6717Z" fill="#231F20"/>
<path d="M94.3396 76.6235C94.2975 76.6357 94.2528 76.6357 94.2107 76.6235C94.1766 76.5983 94.152 76.5623 94.1409 76.5214L94.0764 76.2474C94.0035 76.3166 93.9263 76.3812 93.8454 76.4408C93.7719 76.4973 93.6927 76.5459 93.6091 76.5859C93.5245 76.6233 93.4363 76.6521 93.3459 76.6718C93.2404 76.6807 93.1344 76.6807 93.0289 76.6718C92.9161 76.6728 92.8038 76.6565 92.6959 76.6235C92.5963 76.5939 92.5045 76.5425 92.4273 76.473C92.3488 76.4031 92.2865 76.317 92.2447 76.2206C92.1979 76.1083 92.1741 75.9877 92.1748 75.866C92.1738 75.7438 92.2093 75.6241 92.2769 75.5223C92.3531 75.3982 92.4606 75.2964 92.5885 75.2268C92.7684 75.1271 92.9621 75.0547 93.1632 75.0119C93.4496 74.9524 93.741 74.9201 94.0335 74.9152V74.6896C94.0504 74.499 93.999 74.3086 93.8884 74.1525C93.8335 74.0928 93.7659 74.0464 93.6906 74.0167C93.6152 73.9869 93.5341 73.9745 93.4533 73.9806C93.3439 73.9774 93.2347 73.9938 93.131 74.0289C93.0524 74.0572 92.9769 74.0932 92.9054 74.1363L92.7389 74.2438C92.6965 74.2742 92.6459 74.291 92.5938 74.2921C92.5588 74.293 92.5246 74.2816 92.4971 74.2599C92.4698 74.2389 92.4462 74.2135 92.4273 74.1847L92.3252 74.002C92.4825 73.846 92.6697 73.7232 92.8755 73.641C93.0813 73.5589 93.3016 73.5191 93.5231 73.524C93.6791 73.5212 93.8341 73.5486 93.9797 73.6045C94.1075 73.6565 94.2216 73.7374 94.3128 73.8409C94.4074 73.9467 94.4787 74.0711 94.5223 74.2062C94.5689 74.3576 94.5924 74.5151 94.5921 74.6735V76.6073L94.3396 76.6235ZM93.2008 76.2743C93.2846 76.2855 93.3695 76.2855 93.4533 76.2743C93.5275 76.2573 93.5996 76.2321 93.6682 76.1991C93.734 76.1629 93.7969 76.1216 93.8562 76.0755C93.9153 76.0272 93.9744 75.9681 94.0335 75.909V75.2966C93.83 75.3022 93.6272 75.3219 93.4264 75.3557C93.2856 75.3762 93.1482 75.416 93.0182 75.4739C92.927 75.5091 92.8471 75.5685 92.7872 75.6458C92.7434 75.709 92.7191 75.7837 92.7174 75.8607C92.7148 75.9306 92.7276 76.0003 92.755 76.0648C92.7782 76.1168 92.8132 76.1628 92.857 76.1991C92.9025 76.2358 92.9558 76.2615 93.0128 76.2743C93.075 76.2853 93.1386 76.2853 93.2008 76.2743Z" fill="#231F20"/>
<path d="M95.3389 74.5875H96.8107V75.071H95.3228L95.3389 74.5875Z" fill="#231F20"/>
<path d="M97.606 76.6235V72.2186H98.1754V74.0182C98.2955 73.8774 98.4414 73.7607 98.6051 73.6744C98.7705 73.5871 98.9553 73.5428 99.1423 73.5454C99.3074 73.5423 99.471 73.5772 99.6204 73.6475C99.7618 73.7164 99.8851 73.8176 99.9803 73.943C100.087 74.0824 100.165 74.2411 100.211 74.4103C100.267 74.6114 100.294 74.8194 100.292 75.0281C100.294 75.2551 100.263 75.4812 100.201 75.6995C100.146 75.893 100.057 76.075 99.9373 76.2367C99.8284 76.3774 99.6888 76.4913 99.529 76.5697C99.3617 76.6506 99.1777 76.6911 98.9919 76.6879C98.8184 76.6939 98.6464 76.655 98.4923 76.5751C98.3551 76.4974 98.2346 76.3933 98.1378 76.2689V76.5268C98.1337 76.5615 98.1163 76.5932 98.0892 76.6153C98.0621 76.6373 98.0275 76.648 97.9927 76.6449L97.606 76.6235ZM98.9596 73.9967C98.8053 73.9938 98.6531 74.0328 98.5192 74.1095C98.3868 74.1984 98.2705 74.3092 98.1754 74.4372V75.8875C98.2544 76.001 98.3618 76.0918 98.4869 76.1508C98.6032 76.2034 98.7299 76.2291 98.8576 76.226C98.9796 76.2328 99.1015 76.21 99.2128 76.1594C99.3241 76.1089 99.4216 76.0322 99.4968 75.9359C99.6613 75.6708 99.7384 75.3608 99.7171 75.0495C99.7394 74.7682 99.6697 74.4873 99.5183 74.2491C99.4522 74.1654 99.367 74.0988 99.2697 74.0548C99.1725 74.0109 99.0662 73.9909 98.9596 73.9967Z" fill="#231F20"/>
<path d="M102.902 76.6234C102.86 76.6369 102.815 76.6369 102.773 76.6234C102.738 76.5988 102.711 76.5628 102.698 76.5213L102.639 76.2473C102.559 76.3225 102.483 76.3816 102.408 76.4407C102.334 76.496 102.255 76.5446 102.172 76.5858C102.085 76.6232 101.995 76.652 101.903 76.6717C101.799 76.6806 101.695 76.6806 101.592 76.6717C101.479 76.6727 101.366 76.6564 101.259 76.6234C101.157 76.5939 101.064 76.5425 100.985 76.473C100.908 76.4015 100.846 76.3157 100.802 76.2205C100.757 76.1078 100.735 75.9872 100.737 75.8659C100.737 75.7446 100.77 75.6255 100.834 75.5222C100.912 75.3979 101.022 75.2961 101.151 75.2267C101.331 75.1262 101.524 75.0537 101.726 75.0118C102.012 74.9523 102.304 74.92 102.596 74.9151V74.6895C102.615 74.498 102.561 74.3065 102.446 74.1524C102.391 74.0928 102.323 74.0463 102.248 74.0166C102.172 73.9868 102.091 73.9744 102.011 73.9805C101.901 73.9774 101.792 73.9937 101.688 74.0288C101.61 74.0582 101.535 74.0941 101.463 74.1362L101.296 74.2437C101.256 74.2747 101.207 74.2916 101.156 74.292C101.12 74.2937 101.084 74.2823 101.054 74.2598C101.028 74.2374 101.005 74.2122 100.985 74.1846L100.883 74.002C101.039 73.8509 101.221 73.729 101.42 73.642C101.627 73.5607 101.847 73.5206 102.07 73.5239C102.226 73.5211 102.381 73.5485 102.526 73.6044C102.655 73.6578 102.77 73.7384 102.865 73.8408C102.959 73.9456 103.029 74.0705 103.069 74.2061C103.118 74.3569 103.142 74.5148 103.139 74.6734V76.6072L102.902 76.6234ZM101.763 76.2742C101.923 76.276 102.081 76.2411 102.225 76.1721C102.292 76.1373 102.355 76.0959 102.413 76.0486C102.478 75.9974 102.539 75.9418 102.596 75.8821V75.2697C102.391 75.2753 102.186 75.295 101.984 75.3288C101.843 75.35 101.706 75.3897 101.575 75.447C101.485 75.4815 101.407 75.5412 101.35 75.6188C101.304 75.6809 101.279 75.7564 101.28 75.8337C101.277 75.9037 101.29 75.9734 101.318 76.0378C101.339 76.0909 101.374 76.1372 101.42 76.1721C101.463 76.2087 101.515 76.2345 101.57 76.2473C101.632 76.268 101.698 76.2771 101.763 76.2742Z" fill="#231F20"/>
<path d="M105.723 74.104C105.713 74.1258 105.697 74.1444 105.677 74.1576C105.657 74.1709 105.634 74.1784 105.61 74.1792C105.572 74.1779 105.535 74.1668 105.503 74.147L105.363 74.0718C105.3 74.0431 105.235 74.018 105.17 73.9966C105.084 73.9736 104.995 73.9627 104.906 73.9643C104.826 73.9634 104.747 73.9742 104.67 73.9966C104.607 74.0182 104.547 74.049 104.493 74.0879C104.445 74.1234 104.407 74.1694 104.38 74.2222C104.354 74.2737 104.341 74.3309 104.342 74.3887C104.34 74.4572 104.363 74.5243 104.407 74.5767C104.455 74.6326 104.516 74.6766 104.584 74.7056C104.664 74.7448 104.747 74.7789 104.831 74.8077L105.121 74.899L105.406 75.0065C105.496 75.0457 105.581 75.0962 105.658 75.1569C105.73 75.218 105.788 75.2929 105.83 75.3771C105.88 75.4733 105.904 75.5806 105.9 75.6887C105.901 75.8231 105.876 75.9563 105.825 76.0808C105.772 76.1993 105.695 76.3054 105.599 76.3924C105.494 76.4831 105.372 76.5524 105.239 76.5965C105.079 76.6509 104.91 76.6764 104.74 76.6717C104.543 76.6751 104.348 76.6405 104.165 76.5696C104.003 76.5078 103.854 76.4168 103.725 76.3011L103.854 76.0862C103.869 76.0611 103.889 76.0392 103.913 76.0217C103.942 76.0132 103.974 76.0132 104.004 76.0217C104.047 76.0246 104.088 76.0395 104.122 76.0647L104.262 76.156C104.329 76.1926 104.399 76.2232 104.471 76.2473C104.569 76.2775 104.67 76.292 104.772 76.2903C104.862 76.2913 104.951 76.2768 105.035 76.2473C105.103 76.2243 105.167 76.1898 105.223 76.1453C105.271 76.105 105.308 76.0533 105.331 75.9949C105.357 75.9375 105.369 75.8751 105.368 75.8122C105.372 75.7378 105.347 75.6649 105.299 75.6081C105.251 75.552 105.193 75.5063 105.127 75.4738C105.045 75.4338 104.961 75.3997 104.874 75.3717L104.589 75.2858C104.49 75.2547 104.393 75.217 104.299 75.173C104.207 75.136 104.121 75.0833 104.047 75.0172C103.975 74.9522 103.917 74.8737 103.875 74.7862C103.824 74.6827 103.8 74.5683 103.805 74.4532C103.807 74.3369 103.83 74.222 103.875 74.1147C103.925 74.0054 103.999 73.9083 104.09 73.83C104.189 73.7448 104.304 73.6791 104.428 73.6367C104.579 73.5871 104.737 73.5635 104.896 73.5668C105.079 73.5666 105.26 73.5974 105.433 73.6582C105.587 73.7181 105.727 73.8075 105.846 73.9214L105.723 74.104Z" fill="#231F20"/>
<path d="M107.791 73.5455C107.963 73.5447 108.135 73.5757 108.296 73.6368C108.447 73.6948 108.585 73.7846 108.699 73.9C108.816 74.0222 108.907 74.1665 108.967 74.3244C109.032 74.5107 109.063 74.7072 109.059 74.9045C109.065 74.9649 109.056 75.026 109.032 75.0818C109.019 75.0976 109.002 75.1098 108.984 75.1173C108.965 75.1248 108.944 75.1274 108.924 75.1248H106.926C106.927 75.2891 106.954 75.4523 107.007 75.6082C107.044 75.735 107.108 75.8523 107.195 75.952C107.275 76.0412 107.374 76.111 107.485 76.1561C107.607 76.2005 107.736 76.2224 107.866 76.2206C107.98 76.2216 108.094 76.2072 108.204 76.1776C108.289 76.15 108.371 76.1177 108.452 76.0809L108.623 75.9789C108.662 75.9541 108.707 75.9394 108.752 75.9359C108.773 75.9348 108.793 75.9393 108.811 75.9487C108.829 75.9582 108.844 75.9723 108.854 75.9896L109.016 76.1937C108.947 76.2778 108.865 76.3503 108.774 76.4086C108.682 76.4686 108.582 76.5173 108.478 76.5536C108.372 76.5929 108.263 76.6217 108.151 76.6396C108.041 76.6563 107.929 76.6653 107.818 76.6664C107.619 76.6677 107.422 76.6312 107.238 76.559C107.062 76.4917 106.904 76.3851 106.776 76.2475C106.64 76.1023 106.535 75.9303 106.469 75.7425C106.395 75.5173 106.359 75.2813 106.362 75.0442C106.36 74.8426 106.394 74.6424 106.464 74.4533C106.524 74.2782 106.619 74.1172 106.743 73.9806C106.869 73.8438 107.023 73.7357 107.195 73.6636C107.382 73.5808 107.586 73.5404 107.791 73.5455ZM107.791 73.9591C107.683 73.9537 107.576 73.9704 107.475 74.0083C107.374 74.0462 107.283 74.1044 107.205 74.1793C107.052 74.3428 106.958 74.5526 106.937 74.7756H108.548C108.551 74.664 108.532 74.5529 108.495 74.4479C108.467 74.3532 108.418 74.2659 108.352 74.1924C108.286 74.119 108.204 74.0613 108.113 74.0235C108.013 73.9803 107.905 73.9583 107.796 73.9591H107.791Z" fill="#231F20"/>
<path d="M111.89 76.6235C111.855 76.6268 111.821 76.617 111.793 76.5962C111.765 76.5753 111.746 76.5448 111.739 76.5107L111.686 76.1561C111.625 76.2324 111.556 76.3026 111.481 76.3656C111.41 76.429 111.33 76.4831 111.245 76.5268C111.163 76.5732 111.074 76.6076 110.982 76.6288C110.882 76.6552 110.779 76.6678 110.676 76.6664C110.514 76.6695 110.354 76.6345 110.208 76.5644C110.064 76.4978 109.938 76.3963 109.843 76.2689C109.737 76.1236 109.658 75.9596 109.612 75.7855C109.555 75.5681 109.528 75.344 109.532 75.1194C109.531 74.9065 109.561 74.6947 109.623 74.4909C109.678 74.3102 109.765 74.141 109.881 73.9913C109.993 73.8519 110.134 73.7383 110.294 73.6583C110.462 73.5781 110.646 73.5377 110.831 73.5401C110.994 73.5344 111.156 73.5656 111.304 73.6314C111.434 73.6927 111.551 73.7784 111.648 73.8839V72.2186H112.217V76.6235H111.89ZM110.864 76.2098C111.02 76.2126 111.174 76.1737 111.31 76.097C111.444 76.0084 111.562 75.8976 111.659 75.7694V74.319C111.578 74.2066 111.471 74.1161 111.347 74.0558C111.229 74.003 111.101 73.9774 110.971 73.9806C110.85 73.9742 110.729 73.9972 110.619 74.0477C110.508 74.0982 110.412 74.1747 110.337 74.2706C110.175 74.5227 110.098 74.8202 110.117 75.1194C110.113 75.2858 110.131 75.4519 110.171 75.6136C110.195 75.7352 110.245 75.8504 110.316 75.952C110.374 76.0376 110.453 76.1063 110.547 76.1507C110.648 76.1872 110.756 76.2037 110.864 76.1991V76.2098Z" fill="#231F20"/>
<path d="M115.274 72.6536C115.274 72.7055 115.263 72.7568 115.241 72.804C115.22 72.8496 115.19 72.8913 115.155 72.9276C115.117 72.9623 115.073 72.9913 115.026 73.0135C114.976 73.0307 114.924 73.0397 114.871 73.0404C114.821 73.0397 114.772 73.0307 114.726 73.0135C114.68 72.9925 114.638 72.9634 114.602 72.9276C114.567 72.8913 114.538 72.8496 114.516 72.804C114.495 72.7568 114.484 72.7055 114.484 72.6536C114.484 72.6 114.495 72.547 114.516 72.4978C114.537 72.4499 114.566 72.4062 114.602 72.3689C114.638 72.3331 114.68 72.304 114.726 72.283C114.772 72.2658 114.821 72.2567 114.871 72.2561C114.924 72.2567 114.976 72.2658 115.026 72.283C115.073 72.3052 115.117 72.3342 115.155 72.3689C115.192 72.4062 115.221 72.4499 115.241 72.4978C115.263 72.547 115.274 72.6 115.274 72.6536ZM115.161 73.5937V76.6233H114.591V73.5937H115.161Z" fill="#231F20"/>
<path d="M116.015 76.6235V73.5938H116.353C116.388 73.5905 116.422 73.6003 116.45 73.6211C116.478 73.642 116.497 73.6725 116.503 73.7066L116.546 74.0182C116.673 73.8816 116.819 73.7655 116.982 73.6744C117.148 73.5894 117.332 73.5452 117.519 73.5455C117.669 73.5426 117.819 73.57 117.959 73.6261C118.081 73.6811 118.189 73.7617 118.276 73.8624C118.364 73.968 118.43 74.0904 118.47 74.2223C118.516 74.3738 118.539 74.5313 118.539 74.6897V76.6235H117.97V74.6897C117.979 74.5075 117.926 74.3277 117.82 74.1794C117.761 74.1152 117.688 74.0654 117.607 74.0338C117.526 74.0021 117.439 73.9894 117.352 73.9967C117.204 73.994 117.057 74.0311 116.928 74.1042C116.788 74.1802 116.662 74.2802 116.557 74.3996V76.6235H116.015Z" fill="#231F20"/>
<path d="M120.253 76.6718C120.154 76.6762 120.056 76.6603 119.963 76.6252C119.871 76.5901 119.787 76.5365 119.716 76.4677C119.645 76.3885 119.591 76.2958 119.557 76.1952C119.523 76.0946 119.509 75.9881 119.517 75.8821V74.0504H119.163C119.131 74.0501 119.101 74.0386 119.077 74.0181C119.065 74.0061 119.056 73.9917 119.051 73.9759C119.045 73.9602 119.043 73.9435 119.044 73.9268V73.7012L119.539 73.6367L119.667 72.7182C119.672 72.6886 119.687 72.6617 119.71 72.643C119.734 72.6216 119.765 72.6101 119.796 72.6107H120.086V73.6367H120.951V74.0504H120.086V75.8392C120.082 75.8882 120.087 75.9378 120.102 75.9848C120.117 76.0318 120.141 76.0755 120.172 76.1131C120.203 76.1429 120.239 76.1662 120.279 76.1819C120.318 76.1976 120.361 76.2053 120.403 76.2044C120.45 76.2134 120.497 76.2134 120.543 76.2044C120.58 76.1961 120.615 76.1796 120.645 76.1561L120.72 76.1078C120.738 76.1043 120.756 76.1043 120.774 76.1078C120.781 76.1048 120.788 76.1033 120.796 76.1033C120.803 76.1033 120.81 76.1048 120.817 76.1078L120.855 76.1453L121.021 76.4193C120.922 76.5077 120.807 76.5769 120.683 76.6234C120.544 76.6662 120.398 76.6826 120.253 76.6718Z" fill="#231F20"/>
<path d="M122.719 73.5454C122.892 73.5447 123.063 73.5756 123.224 73.6367C123.375 73.6948 123.513 73.7845 123.627 73.9C123.745 74.0207 123.837 74.1654 123.895 74.3243C123.962 74.5103 123.995 74.7069 123.992 74.9045C123.997 74.9654 123.986 75.0266 123.96 75.0817C123.948 75.0971 123.932 75.1091 123.914 75.1166C123.897 75.1241 123.877 75.1269 123.858 75.1247H121.854C121.855 75.2891 121.883 75.4523 121.935 75.6082C121.972 75.735 122.036 75.8522 122.123 75.952C122.205 76.0412 122.306 76.111 122.418 76.1561C122.539 76.2005 122.666 76.2224 122.794 76.2206C122.907 76.2293 123.021 76.2221 123.133 76.1991C123.217 76.1714 123.299 76.1392 123.38 76.1024L123.557 76.0003C123.594 75.9752 123.636 75.9603 123.681 75.9573C123.701 75.9557 123.721 75.9598 123.739 75.9693C123.757 75.9789 123.772 75.9933 123.783 76.0111L123.944 76.2152C123.875 76.2992 123.794 76.3717 123.702 76.43C123.61 76.49 123.511 76.5387 123.407 76.5751C123.301 76.6152 123.191 76.644 123.079 76.661C122.969 76.678 122.857 76.687 122.746 76.6879C122.547 76.6891 122.351 76.6527 122.166 76.5805C121.99 76.5131 121.832 76.4066 121.704 76.2689C121.567 76.1249 121.465 75.9524 121.403 75.764C121.326 75.5394 121.29 75.3029 121.296 75.0656C121.294 74.8646 121.327 74.6648 121.392 74.4747C121.454 74.3006 121.549 74.1401 121.672 74.002C121.797 73.8652 121.951 73.7571 122.123 73.6851C122.309 73.5958 122.512 73.5482 122.719 73.5454ZM122.719 73.9591C122.612 73.9539 122.504 73.9708 122.404 74.0087C122.303 74.0466 122.211 74.1046 122.133 74.1793C121.982 74.3441 121.888 74.5531 121.865 74.7756H123.476C123.477 74.6645 123.461 74.554 123.428 74.4479C123.396 74.3528 123.344 74.2652 123.278 74.19C123.212 74.118 123.131 74.0612 123.041 74.0235C122.942 73.9793 122.833 73.9573 122.724 73.9591H122.719Z" fill="#231F20"/>
<path d="M125.689 73.5401C125.812 73.5399 125.935 73.5543 126.054 73.5831C126.163 73.6111 126.268 73.6526 126.366 73.7066H127.204V73.9161C127.204 73.9913 127.161 74.0343 127.075 74.0504L126.742 74.0988C126.802 74.2301 126.834 74.3731 126.833 74.5178C126.835 74.6532 126.807 74.7874 126.752 74.9109C126.696 75.0343 126.614 75.144 126.511 75.2322C126.405 75.3205 126.283 75.3863 126.151 75.4256C126.002 75.474 125.846 75.4976 125.689 75.4954C125.559 75.4956 125.429 75.4812 125.302 75.4524C125.173 75.5277 125.114 75.6082 125.114 75.6995C125.113 75.7317 125.12 75.7637 125.135 75.792C125.15 75.8204 125.173 75.8442 125.2 75.8607C125.272 75.8985 125.35 75.9239 125.431 75.9359C125.539 75.954 125.649 75.9629 125.759 75.9628H126.129C126.258 75.9628 126.382 75.9896 126.505 76.0111C126.62 76.0281 126.731 76.0644 126.833 76.1185C126.927 76.1675 127.006 76.2396 127.064 76.328C127.127 76.4311 127.157 76.5511 127.15 76.6718C127.15 76.8033 127.117 76.9326 127.053 77.0479C126.985 77.1761 126.89 77.2879 126.774 77.3755C126.638 77.4778 126.485 77.5559 126.323 77.6065C126.128 77.6648 125.925 77.6938 125.721 77.6925C125.526 77.6957 125.331 77.674 125.141 77.628C124.994 77.588 124.853 77.5284 124.722 77.4507C124.621 77.3845 124.537 77.2964 124.475 77.1929C124.423 77.1011 124.395 76.9976 124.394 76.8921C124.389 76.7516 124.439 76.6146 124.534 76.5107C124.638 76.3989 124.769 76.3172 124.915 76.2743C124.831 76.2372 124.758 76.18 124.701 76.1078C124.645 76.0278 124.618 75.9311 124.625 75.8338C124.618 75.7894 124.618 75.744 124.625 75.6995C124.644 75.6498 124.669 75.6028 124.701 75.5599C124.734 75.5101 124.774 75.465 124.819 75.4256C124.872 75.3836 124.93 75.3476 124.991 75.3182C124.847 75.2377 124.725 75.1234 124.636 74.9851C124.548 74.8377 124.503 74.6681 124.507 74.4963C124.507 74.3574 124.536 74.22 124.593 74.0934C124.652 73.9758 124.734 73.8716 124.835 73.7872C124.943 73.6991 125.067 73.6317 125.2 73.5884C125.36 73.5474 125.525 73.5311 125.689 73.5401ZM126.629 76.7632C126.631 76.7316 126.626 76.7 126.615 76.6704C126.604 76.6407 126.587 76.6138 126.565 76.5913C126.521 76.5424 126.465 76.5054 126.403 76.4838C126.323 76.4562 126.241 76.4382 126.156 76.4301H125.866H125.555H125.249C125.149 76.4743 125.059 76.5383 124.985 76.6181C124.92 76.6923 124.884 76.7878 124.883 76.8867C124.885 76.9512 124.904 77.0141 124.937 77.0693C124.974 77.1319 125.028 77.1823 125.093 77.2144C125.174 77.2628 125.263 77.2956 125.356 77.3111C125.479 77.3391 125.606 77.3517 125.732 77.3487C125.86 77.3514 125.988 77.3387 126.113 77.3111C126.211 77.2885 126.305 77.2523 126.393 77.2036C126.463 77.161 126.523 77.1043 126.57 77.0371C126.619 76.9626 126.64 76.8731 126.629 76.7846V76.7632ZM125.689 75.1248C125.784 75.1258 125.878 75.1112 125.968 75.0818C126.042 75.0548 126.11 75.0127 126.167 74.9582C126.222 74.9058 126.264 74.8415 126.291 74.7702C126.317 74.6944 126.33 74.6143 126.328 74.5339C126.332 74.4551 126.319 74.3764 126.292 74.3026C126.264 74.2287 126.221 74.1612 126.167 74.1041C126.102 74.0468 126.026 74.003 125.944 73.9753C125.862 73.9476 125.775 73.9366 125.689 73.943C125.515 73.9314 125.343 73.9893 125.211 74.1041C125.156 74.1612 125.114 74.2287 125.086 74.3026C125.059 74.3764 125.046 74.4551 125.05 74.5339C125.05 74.6146 125.064 74.6947 125.093 74.7702C125.12 74.8409 125.162 74.905 125.216 74.9582C125.273 75.0127 125.341 75.0548 125.415 75.0818C125.503 75.1109 125.596 75.1254 125.689 75.1248Z" fill="#231F20"/>
<path d="M127.741 76.6236V73.5939H128.069C128.114 73.59 128.16 73.6013 128.198 73.6262C128.225 73.6595 128.24 73.7012 128.241 73.7443L128.278 74.1848C128.362 74.0041 128.483 73.843 128.633 73.7121C128.774 73.5971 128.951 73.5362 129.132 73.5402C129.195 73.532 129.258 73.532 129.32 73.5402C129.375 73.5495 129.427 73.5716 129.471 73.6047L129.433 74.0291C129.431 74.0523 129.419 74.0737 129.401 74.0887C129.383 74.1037 129.36 74.1112 129.337 74.1096H129.213C129.154 74.1011 129.095 74.1011 129.036 74.1096C128.95 74.109 128.864 74.1235 128.783 74.1526C128.711 74.1801 128.645 74.2221 128.59 74.2761C128.528 74.3321 128.476 74.3973 128.434 74.4695C128.387 74.556 128.345 74.6458 128.311 74.7381V76.6397L127.741 76.6236Z" fill="#231F20"/>
<path d="M131.818 76.6235C131.776 76.6357 131.732 76.6357 131.69 76.6235C131.654 76.5997 131.629 76.5631 131.62 76.5214L131.555 76.2475C131.482 76.3166 131.405 76.3812 131.324 76.4408C131.25 76.4961 131.171 76.5447 131.088 76.5859C131.003 76.6233 130.915 76.6521 130.825 76.6718C130.719 76.6807 130.613 76.6807 130.508 76.6718C130.395 76.6728 130.283 76.6565 130.175 76.6235C130.075 76.5939 129.983 76.5426 129.906 76.4731C129.826 76.4045 129.764 76.318 129.723 76.2206C129.674 76.1091 129.65 75.988 129.654 75.8661C129.653 75.7447 129.687 75.6256 129.75 75.5223C129.829 75.398 129.938 75.2962 130.067 75.2268C130.247 75.1272 130.441 75.0548 130.642 75.012C130.928 74.9525 131.22 74.9201 131.512 74.9153V74.6897C131.529 74.4991 131.478 74.3086 131.367 74.1525C131.312 74.0929 131.245 74.0464 131.169 74.0167C131.094 73.9869 131.013 73.9746 130.932 73.9806C130.821 73.9779 130.71 73.9943 130.604 74.0289C130.528 74.0572 130.454 74.0932 130.384 74.1364L130.218 74.2438C130.175 74.2742 130.125 74.2911 130.073 74.2921C130.036 74.2922 130 74.2809 129.971 74.2599C129.945 74.2375 129.921 74.2123 129.901 74.1847L129.804 74.0021C129.958 73.8488 130.141 73.7266 130.341 73.6422C130.548 73.5599 130.769 73.5197 130.991 73.524C131.147 73.5218 131.302 73.5491 131.448 73.6046C131.574 73.6593 131.687 73.7398 131.781 73.8409C131.875 73.9467 131.947 74.0711 131.99 74.2062C132.037 74.3576 132.06 74.5151 132.06 74.6735V76.6074L131.818 76.6235ZM130.68 76.2743C130.762 76.2858 130.845 76.2858 130.927 76.2743C131.003 76.2582 131.077 76.233 131.147 76.1991C131.213 76.163 131.276 76.1217 131.335 76.0756C131.394 76.0272 131.453 75.9681 131.512 75.909V75.2967C131.309 75.3022 131.106 75.322 130.905 75.3557C130.764 75.3762 130.627 75.416 130.497 75.4739C130.405 75.507 130.324 75.5669 130.266 75.6458C130.22 75.7079 130.195 75.7834 130.196 75.8607C130.194 75.9307 130.206 76.0004 130.234 76.0648C130.255 76.1179 130.29 76.1642 130.336 76.1991C130.381 76.2358 130.435 76.2615 130.492 76.2743C130.554 76.2854 130.617 76.2854 130.68 76.2743Z" fill="#231F20"/>
<path d="M133.768 76.6718C133.665 76.6793 133.562 76.665 133.465 76.6298C133.367 76.5947 133.279 76.5394 133.204 76.4677C133.134 76.3885 133.079 76.2958 133.045 76.1952C133.011 76.0946 132.998 75.9881 133.006 75.8822V74.0504H132.651C132.636 74.0509 132.621 74.0483 132.607 74.0428C132.594 74.0372 132.581 74.0289 132.571 74.0182C132.557 74.0074 132.546 73.9933 132.54 73.9774C132.533 73.9614 132.531 73.944 132.533 73.9269V73.7012L133.027 73.6368L133.156 72.7182C133.162 72.6893 133.177 72.6631 133.199 72.643C133.224 72.6213 133.257 72.6098 133.29 72.6108H133.575V73.6368H134.44V74.0504H133.575V75.8392C133.57 75.8883 133.576 75.9378 133.59 75.9848C133.605 76.0319 133.629 76.0755 133.661 76.1131C133.692 76.1435 133.729 76.1673 133.77 76.183C133.81 76.1987 133.854 76.206 133.897 76.2045C133.944 76.2126 133.991 76.2126 134.037 76.2045C134.073 76.1939 134.108 76.1776 134.139 76.1561L134.209 76.1078C134.227 76.1043 134.245 76.1043 134.263 76.1078C134.263 76.1078 134.3 76.1078 134.306 76.1078C134.322 76.116 134.335 76.1292 134.343 76.1454L134.51 76.4193C134.41 76.5077 134.296 76.5769 134.171 76.6235C134.041 76.6632 133.904 76.6796 133.768 76.6718Z" fill="#231F20"/>
<path d="M136.229 73.5456C136.401 73.5448 136.572 73.5758 136.734 73.6369C136.885 73.6949 137.023 73.7847 137.137 73.9001C137.255 74.0209 137.347 74.1655 137.405 74.3245C137.472 74.5105 137.505 74.707 137.502 74.9046C137.505 74.9649 137.496 75.0253 137.475 75.0819C137.461 75.0966 137.445 75.1081 137.426 75.1155C137.408 75.123 137.388 75.1262 137.368 75.1249H135.364C135.365 75.2892 135.392 75.4524 135.445 75.6083C135.482 75.7351 135.546 75.8524 135.633 75.9521C135.715 76.0414 135.815 76.1111 135.928 76.1562C136.048 76.2007 136.176 76.2225 136.304 76.2207C136.418 76.2224 136.532 76.208 136.642 76.1777C136.726 76.1501 136.809 76.1178 136.889 76.081L137.067 75.979C137.103 75.9538 137.146 75.9389 137.19 75.936C137.211 75.9343 137.231 75.9385 137.249 75.948C137.267 75.9575 137.282 75.972 137.292 75.9897L137.454 76.1938C137.385 76.2778 137.303 76.3504 137.212 76.4087C137.119 76.4687 137.02 76.5174 136.916 76.5537C136.81 76.5938 136.701 76.6226 136.589 76.6397C136.478 76.6566 136.367 76.6656 136.256 76.6665C136.057 76.6678 135.86 76.6313 135.675 76.5591C135.5 76.4918 135.342 76.3852 135.214 76.2475C135.077 76.1035 134.974 75.9311 134.913 75.7426C134.836 75.518 134.8 75.2816 134.805 75.0443C134.804 74.8433 134.836 74.6434 134.902 74.4534C134.964 74.2792 135.058 74.1187 135.181 73.9807C135.307 73.8438 135.461 73.7358 135.633 73.6637C135.82 73.5819 136.024 73.5416 136.229 73.5456ZM136.229 73.9592C136.121 73.9541 136.014 73.971 135.913 74.0088C135.813 74.0467 135.721 74.1048 135.643 74.1794C135.492 74.3442 135.398 74.5533 135.375 74.7757H136.986C136.987 74.6646 136.971 74.5541 136.938 74.448C136.905 74.3529 136.854 74.2653 136.787 74.1902C136.722 74.1291 136.646 74.0816 136.562 74.0505C136.461 73.9954 136.349 73.9642 136.234 73.9592H136.229Z" fill="#231F20"/>
<path d="M140.322 76.6235C140.287 76.6268 140.253 76.617 140.225 76.5962C140.197 76.5753 140.178 76.5448 140.171 76.5107L140.123 76.1561C140.06 76.2325 139.99 76.3027 139.914 76.3656C139.843 76.4302 139.763 76.4844 139.677 76.5268C139.595 76.5741 139.506 76.6085 139.414 76.6288C139.316 76.6555 139.215 76.6682 139.113 76.6664C138.95 76.6702 138.788 76.6352 138.64 76.5644C138.498 76.4976 138.374 76.396 138.281 76.2689C138.172 76.1249 138.093 75.9604 138.05 75.7855C137.993 75.5681 137.966 75.344 137.969 75.1194C137.966 74.9068 137.995 74.695 138.055 74.4909C138.113 74.3102 138.202 74.141 138.318 73.9913C138.43 73.8533 138.569 73.7399 138.726 73.6583C138.894 73.5787 139.078 73.5382 139.264 73.5401C139.426 73.5344 139.588 73.5656 139.736 73.6314C139.868 73.6926 139.986 73.7783 140.085 73.8839V72.2186H140.65V76.6235H140.322ZM139.301 76.1991C139.457 76.2027 139.611 76.1637 139.747 76.0863C139.884 75.9993 140.004 75.8883 140.102 75.7586V74.3082C140.019 74.1975 139.91 74.1089 139.785 74.0504C139.667 73.9972 139.538 73.9714 139.409 73.9752C139.288 73.9683 139.168 73.9911 139.058 74.0417C138.949 74.0923 138.853 74.1691 138.78 74.2653C138.615 74.5162 138.538 74.8146 138.56 75.114C138.557 75.28 138.573 75.4459 138.608 75.6082C138.633 75.7298 138.682 75.8451 138.753 75.9466C138.813 76.0325 138.895 76.101 138.99 76.1454C139.089 76.1837 139.195 76.2019 139.301 76.1991Z" fill="#231F20"/>
<path d="M144.259 73.5456C144.432 73.5448 144.603 73.5758 144.764 73.6369C144.916 73.6949 145.053 73.7847 145.167 73.9001C145.286 74.0209 145.377 74.1655 145.435 74.3245C145.502 74.5105 145.535 74.707 145.532 74.9046C145.536 74.9649 145.527 75.0253 145.505 75.0819C145.492 75.0966 145.475 75.1081 145.456 75.1155C145.438 75.123 145.418 75.1262 145.398 75.1249H143.394C143.395 75.2892 143.423 75.4524 143.475 75.6083C143.514 75.7342 143.578 75.851 143.663 75.9521C143.746 76.0402 143.846 76.1097 143.958 76.1562C144.079 76.2007 144.206 76.2225 144.334 76.2207C144.449 76.2224 144.562 76.208 144.673 76.1777C144.757 76.1501 144.839 76.1178 144.92 76.081L145.097 75.979C145.134 75.9538 145.176 75.9389 145.221 75.936C145.241 75.9343 145.261 75.9385 145.279 75.948C145.298 75.9575 145.313 75.972 145.323 75.9897L145.484 76.1938C145.415 76.2778 145.334 76.3504 145.242 76.4087C145.15 76.4687 145.051 76.5174 144.947 76.5537C144.841 76.5938 144.731 76.6226 144.619 76.6397C144.509 76.6566 144.397 76.6656 144.286 76.6665C144.088 76.6667 143.891 76.6303 143.706 76.5591C143.53 76.4918 143.372 76.3852 143.244 76.2475C143.107 76.1035 143.005 75.9311 142.943 75.7426C142.866 75.518 142.83 75.2816 142.836 75.0443C142.834 74.8433 142.867 74.6434 142.932 74.4534C142.994 74.2792 143.089 74.1187 143.212 73.9807C143.337 73.8438 143.491 73.7358 143.663 73.6637C143.851 73.5819 144.054 73.5416 144.259 73.5456ZM144.259 73.9592C144.152 73.9541 144.044 73.971 143.944 74.0088C143.843 74.0467 143.751 74.1048 143.674 74.1794C143.522 74.3442 143.428 74.5533 143.405 74.7757H145.016C145.017 74.6646 145.001 74.5541 144.968 74.448C144.936 74.3529 144.884 74.2653 144.818 74.1902C144.752 74.1182 144.671 74.0613 144.581 74.0236C144.482 73.9794 144.374 73.9574 144.264 73.9592H144.259Z" fill="#231F20"/>
<path d="M148.412 73.0297C148.398 73.0574 148.378 73.0813 148.353 73.0996C148.326 73.1057 148.299 73.1057 148.272 73.0996C148.227 73.0962 148.184 73.0794 148.149 73.0512L147.977 72.9384C147.898 72.8955 147.815 72.8595 147.73 72.831C147.619 72.792 147.503 72.7737 147.386 72.7773C147.273 72.7746 147.16 72.7928 147.053 72.831C146.964 72.858 146.881 72.9038 146.811 72.9653C146.745 73.0203 146.694 73.0903 146.661 73.1694C146.628 73.2513 146.611 73.3389 146.612 73.4272C146.61 73.5313 146.643 73.6331 146.704 73.7173C146.767 73.7967 146.845 73.8625 146.935 73.9107C147.038 73.9698 147.148 74.0166 147.262 74.0504L147.633 74.1793C147.762 74.2223 147.886 74.2706 148.009 74.3243C148.129 74.3762 148.239 74.4469 148.337 74.5338C148.434 74.6209 148.513 74.7269 148.568 74.8454C148.632 74.987 148.663 75.1413 148.659 75.2966C148.662 75.4803 148.629 75.6627 148.562 75.8338C148.498 75.9952 148.401 76.1416 148.278 76.2635C148.148 76.3917 147.992 76.4906 147.821 76.5536C147.626 76.6302 147.418 76.6667 147.209 76.661C147.075 76.6621 146.942 76.6495 146.811 76.6234C146.686 76.5972 146.564 76.5595 146.446 76.5106C146.334 76.4601 146.226 76.4008 146.124 76.3334C146.027 76.2652 145.937 76.1878 145.855 76.1024L146.032 75.8069C146.05 75.7833 146.072 75.7633 146.097 75.7478C146.123 75.7417 146.151 75.7417 146.177 75.7478C146.232 75.7524 146.283 75.7751 146.322 75.8123L146.526 75.9573C146.617 76.0163 146.715 76.0649 146.817 76.1024C147.066 76.1844 147.335 76.1844 147.585 76.1024C147.684 76.0693 147.775 76.0163 147.853 75.9466C147.927 75.8822 147.984 75.8012 148.02 75.7102C148.059 75.611 148.079 75.5053 148.079 75.3987C148.081 75.2879 148.049 75.1791 147.988 75.0871C147.926 75.003 147.848 74.9333 147.757 74.883C147.654 74.8276 147.546 74.7826 147.434 74.7487L147.058 74.6305C146.929 74.5875 146.806 74.5392 146.682 74.4855C146.563 74.4336 146.452 74.3629 146.355 74.276C146.257 74.1845 146.179 74.075 146.124 73.9537C146.061 73.8005 146.031 73.6357 146.038 73.4702C146.036 73.3191 146.066 73.1693 146.124 73.0297C146.187 72.8872 146.276 72.7578 146.387 72.6483C146.508 72.5339 146.65 72.4445 146.806 72.3851C146.99 72.3164 147.184 72.2818 147.381 72.2831C147.606 72.2807 147.83 72.3189 148.041 72.3959C148.241 72.4687 148.424 72.5821 148.578 72.7289L148.412 73.0297Z" fill="#231F20"/>
<path d="M150.528 73.5454C150.701 73.5446 150.872 73.5756 151.033 73.6367C151.185 73.6947 151.322 73.7845 151.436 73.8999C151.553 74.0221 151.644 74.1664 151.705 74.3243C151.772 74.5103 151.804 74.7068 151.801 74.9044C151.807 74.9653 151.795 75.0265 151.769 75.0817C151.757 75.097 151.742 75.1091 151.724 75.1166C151.706 75.1241 151.686 75.1269 151.667 75.1247H149.663C149.665 75.2891 149.692 75.4522 149.744 75.6081C149.781 75.7349 149.845 75.8522 149.932 75.9519C150.012 76.0411 150.111 76.1109 150.222 76.1561C150.344 76.2004 150.474 76.2223 150.604 76.2205C150.718 76.2223 150.832 76.2078 150.942 76.1775C151.026 76.1499 151.109 76.1176 151.189 76.0808L151.361 75.9788C151.4 75.9541 151.444 75.9393 151.49 75.9358C151.51 75.9341 151.531 75.9383 151.549 75.9478C151.567 75.9573 151.582 75.9718 151.592 75.9895L151.753 76.1937C151.684 76.2777 151.603 76.3502 151.511 76.4085C151.419 76.4685 151.32 76.5172 151.216 76.5536C151.11 76.5936 151 76.6225 150.888 76.6395C150.778 76.6565 150.667 76.6654 150.555 76.6664C150.357 76.6676 150.16 76.6311 149.975 76.5589C149.799 76.4916 149.641 76.385 149.513 76.2474C149.377 76.1033 149.274 75.9309 149.212 75.7424C149.134 75.5182 149.095 75.2817 149.099 75.0441C149.097 74.8426 149.132 74.6423 149.201 74.4532C149.261 74.2781 149.356 74.1171 149.481 73.9805C149.607 73.8437 149.761 73.7356 149.932 73.6636C150.12 73.5812 150.323 73.5409 150.528 73.5454ZM150.528 73.959C150.421 73.9539 150.313 73.9708 150.213 74.0087C150.112 74.0465 150.02 74.1046 149.943 74.1793C149.792 74.344 149.697 74.5531 149.674 74.7755H151.286C151.287 74.6645 151.27 74.5539 151.237 74.4478C151.205 74.3528 151.154 74.2651 151.087 74.19C151.021 74.118 150.941 74.0612 150.851 74.0235C150.757 73.9826 150.657 73.9607 150.555 73.959H150.528Z" fill="#231F20"/>
<path d="M152.457 76.6236V73.5939H152.784C152.828 73.5889 152.872 73.6004 152.908 73.6262C152.937 73.6587 152.954 73.7005 152.956 73.7443L152.994 74.1848C153.074 74.0034 153.193 73.842 153.343 73.7121C153.486 73.5972 153.665 73.5363 153.848 73.5402C153.908 73.5317 153.97 73.5317 154.03 73.5402C154.087 73.5494 154.14 73.5715 154.186 73.6047L154.149 74.029C154.146 74.0523 154.134 74.0736 154.116 74.0886C154.098 74.1036 154.075 74.1111 154.052 74.1096H153.928C153.868 74.1008 153.806 74.1008 153.746 74.1096C153.661 74.1089 153.578 74.1235 153.499 74.1526C153.426 74.1794 153.36 74.2215 153.305 74.2761C153.244 74.332 153.191 74.3973 153.15 74.4695C153.1 74.5549 153.059 74.6449 153.026 74.7381V76.6397L152.457 76.6236Z" fill="#231F20"/>
<path d="M156.034 76.6235H155.497L154.289 73.5938H154.756C154.796 73.5929 154.835 73.6042 154.869 73.626C154.896 73.6453 154.915 73.674 154.922 73.7066L155.664 75.5975C155.691 75.6727 155.712 75.7479 155.734 75.8231L155.782 76.0433C155.782 75.9735 155.814 75.8983 155.836 75.8231C155.855 75.7466 155.878 75.6713 155.905 75.5975L156.658 73.7066C156.661 73.6898 156.668 73.6739 156.679 73.6601C156.689 73.6462 156.702 73.6346 156.717 73.626C156.746 73.6044 156.782 73.593 156.819 73.5938H157.265L156.034 76.6235Z" fill="#231F20"/>
<path d="M158.441 72.6538C158.441 72.7057 158.43 72.757 158.408 72.8042C158.387 72.8498 158.357 72.8915 158.322 72.9278C158.284 72.9625 158.24 72.9915 158.193 73.0137C158.096 73.0495 157.99 73.0495 157.893 73.0137C157.847 72.9914 157.806 72.9624 157.769 72.9278C157.734 72.8915 157.705 72.8498 157.683 72.8042C157.662 72.757 157.651 72.7057 157.651 72.6538C157.651 72.6002 157.662 72.5472 157.683 72.498C157.703 72.4501 157.733 72.4064 157.769 72.3691C157.806 72.3345 157.847 72.3055 157.893 72.2832C157.99 72.2474 158.096 72.2474 158.193 72.2832C158.24 72.3054 158.284 72.3344 158.322 72.3691C158.359 72.4064 158.388 72.4501 158.408 72.498C158.43 72.5472 158.441 72.6002 158.441 72.6538ZM158.328 73.5939V76.6235H157.791V73.5939H158.328Z" fill="#231F20"/>
<path d="M161.304 74.1524L161.255 74.2008C161.233 74.2069 161.208 74.2069 161.186 74.2008C161.149 74.198 161.113 74.185 161.084 74.1632L160.949 74.0826C160.891 74.0465 160.828 74.0193 160.761 74.002C160.671 73.9742 160.576 73.9615 160.482 73.9644C160.349 73.9602 160.217 73.9859 160.095 74.0396C159.985 74.0915 159.89 74.1689 159.816 74.2652C159.738 74.3697 159.682 74.4883 159.649 74.6144C159.609 74.7669 159.589 74.924 159.59 75.0818C159.588 75.2434 159.609 75.4046 159.655 75.5598C159.688 75.6883 159.746 75.8089 159.827 75.9144C159.899 76.0077 159.993 76.0815 160.101 76.1292C160.211 76.1824 160.333 76.2082 160.455 76.2044C160.561 76.2068 160.666 76.1923 160.767 76.1615C160.839 76.1362 160.907 76.1019 160.971 76.0594L161.11 75.9573C161.14 75.931 161.178 75.9159 161.218 75.9144C161.239 75.9123 161.26 75.9162 161.279 75.9257C161.298 75.9352 161.314 75.9499 161.325 75.9681L161.486 76.1722C161.42 76.2548 161.343 76.3272 161.255 76.3871C161.169 76.4456 161.077 76.4959 160.981 76.5375C160.883 76.5757 160.78 76.6027 160.675 76.6181C160.569 76.6351 160.461 76.6441 160.353 76.6449C160.169 76.6489 159.986 76.6141 159.816 76.5429C159.652 76.4735 159.505 76.369 159.386 76.2367C159.26 76.0931 159.165 75.9248 159.107 75.7425C158.971 75.3253 158.971 74.8758 159.107 74.4586C159.166 74.2783 159.259 74.1107 159.381 73.9644C159.505 73.8243 159.659 73.7141 159.832 73.6421C160.214 73.4953 160.637 73.4953 161.019 73.6421C161.182 73.712 161.329 73.8123 161.454 73.9376L161.304 74.1524Z" fill="#231F20"/>
<path d="M163.238 73.5456C163.41 73.5448 163.581 73.5758 163.743 73.6369C163.894 73.6949 164.032 73.7847 164.146 73.9001C164.264 74.0209 164.356 74.1655 164.414 74.3245C164.481 74.5105 164.514 74.707 164.511 74.9046C164.516 74.9655 164.505 75.0267 164.479 75.0819C164.467 75.0972 164.451 75.1092 164.433 75.1168C164.415 75.1243 164.396 75.1271 164.377 75.1249H162.373C162.374 75.2892 162.401 75.4524 162.454 75.6083C162.491 75.7351 162.555 75.8524 162.642 75.9521C162.722 76.0425 162.824 76.1125 162.937 76.1562C163.057 76.2007 163.185 76.2225 163.313 76.2207C163.427 76.2224 163.541 76.208 163.651 76.1777C163.735 76.1501 163.818 76.1178 163.899 76.081C163.958 76.051 164.016 76.0169 164.07 75.979C164.109 75.9542 164.153 75.9395 164.199 75.936C164.22 75.9343 164.24 75.9385 164.258 75.948C164.276 75.9575 164.291 75.972 164.301 75.9897L164.463 76.1938C164.394 76.2778 164.312 76.3504 164.221 76.4087C164.128 76.4687 164.029 76.5174 163.925 76.5537C163.819 76.5938 163.71 76.6226 163.598 76.6397C163.487 76.6566 163.376 76.6656 163.265 76.6665C163.066 76.6678 162.869 76.6313 162.684 76.5591C162.509 76.4918 162.351 76.3852 162.223 76.2475C162.086 76.1035 161.983 75.9311 161.922 75.7426C161.843 75.5184 161.805 75.2819 161.809 75.0443C161.809 74.8429 161.844 74.6431 161.911 74.4534C161.973 74.2792 162.067 74.1187 162.19 73.9807C162.316 73.8438 162.47 73.7358 162.642 73.6637C162.829 73.5819 163.033 73.5416 163.238 73.5456ZM163.238 73.9592C163.13 73.9541 163.023 73.971 162.922 74.0088C162.822 74.0467 162.73 74.1048 162.652 74.1794C162.501 74.3442 162.407 74.5533 162.384 74.7757H163.995C163.996 74.6646 163.98 74.5541 163.947 74.448C163.914 74.3529 163.863 74.2653 163.796 74.1902C163.731 74.1182 163.65 74.0613 163.56 74.0236C163.46 73.9799 163.352 73.9579 163.243 73.9592H163.238Z" fill="#231F20"/>
<path d="M170.517 74.4801C170.52 74.7792 170.467 75.0761 170.361 75.3557C170.265 75.6094 170.117 75.84 169.926 76.0326C169.736 76.2262 169.507 76.3765 169.254 76.4731C168.978 76.5774 168.685 76.6284 168.389 76.6235H166.778V72.3261H168.389C168.685 72.3228 168.978 72.3757 169.254 72.4819C169.507 72.5766 169.736 72.725 169.926 72.917C170.117 73.1096 170.265 73.3402 170.361 73.5938C170.468 73.8769 170.521 74.1776 170.517 74.4801ZM169.883 74.4801C169.887 74.2451 169.852 74.011 169.781 73.7872C169.72 73.5885 169.618 73.4052 169.48 73.25C169.348 73.1093 169.186 72.9993 169.007 72.9277C168.811 72.85 168.601 72.8116 168.389 72.8149H167.401V76.1024H168.389C168.6 76.1044 168.809 76.068 169.007 75.995C169.188 75.9234 169.349 75.8113 169.48 75.6673C169.618 75.5121 169.72 75.3288 169.781 75.1301C169.842 74.9191 169.871 74.6999 169.867 74.4801H169.883Z" fill="#231F20"/>
<path d="M172.413 73.5456C172.587 73.5443 172.76 73.5752 172.923 73.6369C173.075 73.6949 173.212 73.7847 173.326 73.9001C173.443 74.0223 173.534 74.1666 173.595 74.3245C173.657 74.5114 173.688 74.7075 173.686 74.9046C173.692 74.965 173.683 75.0261 173.659 75.0819C173.646 75.0977 173.63 75.1099 173.611 75.1174C173.592 75.1249 173.572 75.1275 173.552 75.1249H171.553C171.556 75.2887 171.581 75.4515 171.629 75.6083C171.67 75.7345 171.736 75.8513 171.822 75.9521C171.902 76.0413 172.001 76.1111 172.112 76.1562C172.234 76.2006 172.364 76.2225 172.494 76.2207C172.608 76.2217 172.722 76.2073 172.832 76.1777C172.916 76.1501 172.999 76.1178 173.079 76.081L173.251 75.979C173.29 75.9542 173.334 75.9395 173.38 75.936C173.4 75.9349 173.42 75.9394 173.438 75.9488C173.456 75.9583 173.471 75.9724 173.482 75.9897L173.643 76.1938C173.574 76.2778 173.493 76.3504 173.401 76.4087C173.309 76.4687 173.21 76.5174 173.106 76.5537C173 76.593 172.89 76.6218 172.778 76.6397C172.668 76.6564 172.557 76.6654 172.445 76.6665C172.247 76.6678 172.05 76.6313 171.865 76.5591C171.689 76.4918 171.531 76.3852 171.403 76.2475C171.267 76.1024 171.163 75.9304 171.097 75.7426C171.023 75.5173 170.986 75.2814 170.989 75.0443C170.987 74.8427 171.022 74.6425 171.091 74.4534C171.151 74.2783 171.246 74.1173 171.371 73.9807C171.496 73.8451 171.648 73.7371 171.817 73.6637C172.005 73.5819 172.208 73.5416 172.413 73.5456ZM172.413 73.9592C172.305 73.9538 172.198 73.9705 172.097 74.0084C171.997 74.0463 171.905 74.1045 171.827 74.1794C171.674 74.3429 171.58 74.5526 171.559 74.7757H173.17C173.173 74.6641 173.154 74.553 173.117 74.448C173.089 74.3533 173.04 74.266 172.974 74.1925C172.908 74.1191 172.826 74.0614 172.735 74.0236C172.637 73.9811 172.531 73.9592 172.424 73.9592H172.413Z" fill="#231F20"/>
<path d="M174.905 72.2186V76.6235H174.341V72.2186H174.905Z" fill="#231F20"/>
<path d="M176.452 72.6536C176.452 72.7055 176.441 72.7568 176.42 72.804C176.398 72.8496 176.369 72.8913 176.334 72.9276C176.295 72.9623 176.252 72.9913 176.205 73.0135C176.155 73.0307 176.102 73.0397 176.049 73.0404C176 73.0397 175.951 73.0307 175.904 73.0135C175.858 72.9925 175.817 72.9634 175.781 72.9276C175.746 72.8913 175.717 72.8496 175.695 72.804C175.673 72.7568 175.662 72.7055 175.663 72.6536C175.662 72.6 175.673 72.547 175.695 72.4978C175.715 72.4499 175.744 72.4062 175.781 72.3689C175.817 72.3331 175.858 72.304 175.904 72.283C175.951 72.2658 176 72.2567 176.049 72.2561C176.102 72.2567 176.155 72.2658 176.205 72.283C176.252 72.3052 176.295 72.3342 176.334 72.3689C176.37 72.4062 176.4 72.4499 176.42 72.4978C176.441 72.547 176.452 72.6 176.452 72.6536ZM176.339 73.5937V76.6233H175.775V73.5937H176.339Z" fill="#231F20"/>
<path d="M178.585 76.6235H178.048L176.85 73.5938H177.317C177.357 73.5929 177.396 73.6042 177.43 73.626C177.457 73.6467 177.477 73.6746 177.489 73.7066L178.23 75.5975L178.295 75.8231L178.343 76.0433C178.343 75.9735 178.375 75.8983 178.397 75.8231C178.416 75.7466 178.439 75.6713 178.467 75.5975L179.219 73.7066C179.228 73.6736 179.249 73.645 179.278 73.626C179.307 73.6044 179.343 73.593 179.38 73.5938H179.826L178.585 76.6235Z" fill="#231F20"/>
<path d="M181.453 73.5455C181.627 73.5442 181.8 73.5751 181.963 73.6368C182.115 73.6948 182.252 73.7846 182.366 73.9C182.483 74.0222 182.574 74.1665 182.635 74.3244C182.697 74.5113 182.728 74.7074 182.726 74.9045C182.733 74.9649 182.723 75.026 182.699 75.0818C182.687 75.0976 182.67 75.1098 182.651 75.1173C182.632 75.1248 182.612 75.1274 182.592 75.1248H180.61C180.612 75.2886 180.637 75.4514 180.685 75.6082C180.726 75.7344 180.792 75.8512 180.878 75.952C180.958 76.0412 181.057 76.111 181.168 76.1561C181.291 76.2005 181.42 76.2224 181.55 76.2206C181.664 76.2216 181.778 76.2072 181.888 76.1776C181.972 76.15 182.055 76.1177 182.135 76.0809L182.307 75.9789C182.346 75.9541 182.39 75.9394 182.436 75.9359C182.456 75.9348 182.477 75.9393 182.495 75.9487C182.513 75.9582 182.528 75.9723 182.538 75.9896L182.699 76.1937C182.631 76.2778 182.549 76.3503 182.458 76.4086C182.365 76.4686 182.266 76.5173 182.162 76.5536C182.056 76.5929 181.946 76.6217 181.834 76.6396C181.724 76.6563 181.613 76.6653 181.501 76.6664C181.303 76.6677 181.106 76.6312 180.921 76.559C180.746 76.4917 180.588 76.3851 180.459 76.2474C180.323 76.1034 180.22 75.931 180.159 75.7425C180.08 75.5183 180.042 75.2818 180.046 75.0442C180.043 74.8426 180.078 74.6424 180.148 74.4533C180.207 74.2782 180.302 74.1172 180.427 73.9806C180.552 73.845 180.704 73.737 180.873 73.6636C181.056 73.584 181.254 73.5438 181.453 73.5455ZM181.453 73.9591C181.346 73.9537 181.238 73.9704 181.137 74.0083C181.037 74.0462 180.945 74.1044 180.868 74.1793C180.714 74.3428 180.62 74.5526 180.599 74.7756H182.211C182.213 74.664 182.195 74.5529 182.157 74.4479C182.129 74.3532 182.08 74.2659 182.014 74.1924C181.948 74.119 181.867 74.0613 181.775 74.0235C181.677 73.981 181.571 73.9591 181.464 73.9591H181.453Z" fill="#231F20"/>
<path d="M183.366 76.6236V73.5939H183.688C183.733 73.5886 183.779 73.6001 183.817 73.6262C183.844 73.6599 183.861 73.701 183.865 73.7443L183.898 74.1848C183.981 74.0041 184.102 73.843 184.252 73.7121C184.393 73.598 184.57 73.5371 184.752 73.5402C184.814 73.5317 184.877 73.5317 184.94 73.5402C184.996 73.5495 185.049 73.5715 185.095 73.6047L185.058 74.0291C185.054 74.0518 185.042 74.0724 185.024 74.0872C185.007 74.102 184.984 74.1099 184.961 74.1096H184.838C184.777 74.1014 184.716 74.1014 184.655 74.1096C184.571 74.1089 184.487 74.1235 184.408 74.1526C184.334 74.1801 184.266 74.2221 184.209 74.2761C184.149 74.3323 184.098 74.3975 184.059 74.4695C184.007 74.5547 183.964 74.6447 183.93 74.7381V76.6397L183.366 76.6236Z" fill="#231F20"/>
<path d="M186.519 77.5099C186.503 77.5486 186.479 77.5835 186.449 77.612C186.411 77.6368 186.365 77.6481 186.32 77.6442H185.901L186.438 76.4409L185.192 73.5939H185.681C185.722 73.5923 185.764 73.6035 185.799 73.6261C185.824 73.6471 185.843 73.6751 185.853 73.7067L186.637 75.56C186.672 75.6473 186.701 75.737 186.723 75.8285C186.723 75.7856 186.75 75.7372 186.766 75.6889L186.814 75.5546L187.572 73.7067C187.587 73.6754 187.609 73.6479 187.636 73.6261C187.666 73.6051 187.702 73.5939 187.738 73.5939H188.189L186.519 77.5099Z" fill="#231F20"/>
<path d="M192.788 72.3369V72.8419H190.752V74.2976H192.487V74.7972H190.752V76.6236H190.134V72.3262L192.788 72.3369Z" fill="#231F20"/>
<path d="M193.131 76.6236V73.5939H193.459C193.503 73.5889 193.547 73.6004 193.583 73.6261C193.61 73.6599 193.627 73.701 193.631 73.7443L193.663 74.1848C193.747 74.0041 193.868 73.843 194.018 73.7121C194.161 73.5971 194.339 73.5363 194.523 73.5402C194.583 73.532 194.645 73.532 194.705 73.5402C194.761 73.5494 194.815 73.5715 194.861 73.6047L194.823 74.029C194.821 74.0523 194.809 74.0736 194.791 74.0886C194.773 74.1036 194.75 74.1111 194.727 74.1096H194.603C194.543 74.1008 194.481 74.1008 194.421 74.1096C194.336 74.1089 194.253 74.1235 194.173 74.1526C194.1 74.1801 194.032 74.2221 193.975 74.2761C193.916 74.3336 193.866 74.3987 193.824 74.4695C193.775 74.5549 193.733 74.6449 193.701 74.7381V76.6397L193.131 76.6236Z" fill="#231F20"/>
<path d="M197.209 76.6234C197.167 76.637 197.122 76.637 197.08 76.6234C197.044 76.5988 197.017 76.5629 197.004 76.5214L196.945 76.2474C196.865 76.3226 196.79 76.3817 196.714 76.4408C196.64 76.4961 196.561 76.5446 196.478 76.5858C196.392 76.6233 196.302 76.6521 196.209 76.6718C196.106 76.6809 196.002 76.6809 195.898 76.6718C195.785 76.6728 195.673 76.6564 195.565 76.6234C195.462 76.5929 195.367 76.5387 195.289 76.465C195.21 76.3912 195.15 76.3002 195.114 76.1991C195.064 76.0875 195.04 75.9664 195.044 75.8445C195.043 75.7232 195.077 75.6041 195.14 75.5007C195.219 75.3765 195.328 75.2747 195.457 75.2053C195.637 75.1047 195.831 75.0323 196.032 74.9904C196.319 74.9309 196.61 74.8986 196.902 74.8937V74.6681C196.921 74.4766 196.867 74.2851 196.752 74.131C196.698 74.0721 196.631 74.0261 196.557 73.9963C196.482 73.9666 196.402 73.9539 196.322 73.9591C196.211 73.9557 196.1 73.972 195.995 74.0074C195.916 74.0368 195.841 74.0727 195.769 74.1148L195.608 74.2223C195.565 74.2527 195.515 74.2695 195.463 74.2706C195.426 74.2723 195.39 74.2609 195.361 74.2384C195.335 74.216 195.311 74.1908 195.291 74.1632L195.189 73.9805C195.345 73.8295 195.527 73.7076 195.726 73.6206C195.933 73.5393 196.154 73.4992 196.376 73.5025C196.532 73.4992 196.687 73.5266 196.833 73.583C196.961 73.6364 197.077 73.717 197.171 73.8194C197.266 73.9242 197.336 74.0491 197.375 74.1847C197.424 74.3355 197.448 74.4934 197.445 74.652V76.5858L197.209 76.6234ZM196.07 76.2743C196.23 76.2761 196.388 76.2412 196.532 76.1722C196.599 76.1361 196.664 76.0948 196.725 76.0487C196.784 76.0003 196.843 75.9412 196.902 75.8821V75.2698C196.699 75.2751 196.496 75.2948 196.295 75.3289C196.154 75.3486 196.017 75.3884 195.887 75.447C195.795 75.4801 195.714 75.54 195.656 75.6189C195.61 75.681 195.586 75.7565 195.586 75.8338C195.584 75.9038 195.597 75.9735 195.624 76.0379C195.645 76.091 195.681 76.1373 195.726 76.1722C195.77 76.2077 195.821 76.2334 195.876 76.2474C195.939 76.2681 196.004 76.2772 196.07 76.2743Z" fill="#231F20"/>
<path d="M198.251 76.6235V73.5938H198.589C198.624 73.5905 198.659 73.6003 198.686 73.6211C198.714 73.642 198.733 73.6725 198.74 73.7066L198.777 74.0021C198.884 73.8732 199.011 73.7625 199.153 73.6744C199.297 73.586 199.463 73.5412 199.632 73.5455C199.812 73.5356 199.988 73.5952 200.126 73.712C200.257 73.8322 200.352 73.9866 200.4 74.1578C200.438 74.057 200.494 73.9641 200.566 73.8839C200.633 73.8063 200.713 73.7409 200.803 73.6905C200.888 73.6414 200.98 73.6052 201.077 73.5831C201.171 73.5574 201.269 73.5447 201.367 73.5455C201.507 73.5364 201.647 73.5582 201.778 73.6092C201.909 73.6602 202.027 73.7393 202.124 73.8409C202.314 74.0814 202.408 74.3839 202.387 74.6896V76.6235H201.818V74.6896C201.837 74.4981 201.783 74.3064 201.667 74.1525C201.613 74.0919 201.546 74.0445 201.47 74.0137C201.395 73.983 201.314 73.9699 201.232 73.9752C201.15 73.9755 201.068 73.99 200.991 74.0182C200.914 74.0481 200.844 74.0938 200.786 74.1525C200.726 74.2136 200.678 74.2868 200.647 74.3673C200.613 74.464 200.597 74.5658 200.598 74.6682V76.602H200.029V74.6682C200.046 74.4784 199.996 74.2886 199.889 74.131C199.838 74.0717 199.773 74.0253 199.7 73.9954C199.627 73.9656 199.549 73.9531 199.47 73.9591C199.345 73.9588 199.222 73.9942 199.116 74.0612C198.999 74.1325 198.897 74.2255 198.815 74.3351V76.5859L198.251 76.6235Z" fill="#231F20"/>
<path d="M204.428 73.5455C204.611 73.5408 204.794 73.5718 204.965 73.6368C205.117 73.6949 205.254 73.7846 205.368 73.9C205.485 74.0223 205.576 74.1665 205.637 74.3244C205.702 74.5107 205.733 74.7073 205.728 74.9046C205.743 74.9627 205.743 75.0237 205.728 75.0818C205.715 75.0976 205.699 75.1098 205.68 75.1174C205.661 75.1249 205.641 75.1275 205.621 75.1248H203.622C203.625 75.2887 203.65 75.4514 203.698 75.6083C203.739 75.7345 203.805 75.8513 203.891 75.952C203.971 76.0412 204.07 76.111 204.181 76.1562C204.303 76.2006 204.433 76.2224 204.562 76.2206C204.677 76.2217 204.791 76.2072 204.901 76.1777C204.985 76.15 205.067 76.1178 205.148 76.081L205.32 75.9789C205.359 75.9542 205.403 75.9394 205.449 75.9359C205.469 75.9349 205.489 75.9393 205.507 75.9488C205.525 75.9582 205.54 75.9723 205.551 75.9897L205.712 76.1938C205.643 76.2778 205.562 76.3503 205.47 76.4087C205.378 76.4686 205.279 76.5173 205.175 76.5537C205.069 76.593 204.959 76.6218 204.847 76.6396C204.737 76.6564 204.626 76.6653 204.514 76.6665C204.316 76.6677 204.119 76.6312 203.934 76.5591C203.758 76.4917 203.6 76.3852 203.472 76.2475C203.336 76.1035 203.233 75.931 203.171 75.7426C203.092 75.5183 203.054 75.2819 203.058 75.0442C203.056 74.8427 203.091 74.6424 203.16 74.4533C203.22 74.2782 203.315 74.1173 203.44 73.9806C203.566 73.8438 203.72 73.7357 203.891 73.6637C204.06 73.5887 204.243 73.5485 204.428 73.5455ZM204.428 73.9591C204.321 73.9537 204.213 73.9705 204.113 74.0083C204.012 74.0462 203.92 74.1045 203.843 74.1794C203.689 74.3428 203.595 74.5526 203.574 74.7756H205.186C205.188 74.6641 205.17 74.553 205.132 74.448C205.104 74.3612 205.059 74.2811 204.999 74.2127C204.939 74.1443 204.865 74.0891 204.783 74.0505C204.677 73.9941 204.559 73.9628 204.439 73.9591H204.428Z" fill="#231F20"/>
<path d="M205.981 73.5939H206.432C206.471 73.5923 206.508 73.6037 206.54 73.6261C206.568 73.6452 206.589 73.6737 206.599 73.7067L207.136 75.5976C207.157 75.6699 207.173 75.7435 207.184 75.8178C207.184 75.8876 207.211 75.9521 207.222 76.0219L207.281 75.8178L207.345 75.5976L207.958 73.696C207.967 73.6644 207.986 73.6363 208.011 73.6154C208.041 73.5944 208.077 73.5831 208.114 73.5832H208.361C208.397 73.5815 208.434 73.5929 208.463 73.6154C208.49 73.636 208.51 73.664 208.522 73.696L209.129 75.5976C209.129 75.6728 209.172 75.748 209.188 75.8178L209.236 76.0219C209.236 75.9521 209.263 75.8876 209.279 75.8178L209.328 75.5976L209.897 73.7067C209.911 73.6737 209.934 73.6454 209.963 73.6253C209.993 73.6053 210.028 73.5943 210.063 73.5939H210.488L209.51 76.6236H209.08C209.027 76.6236 208.989 76.5913 208.968 76.5161L208.323 74.5178C208.306 74.4703 208.292 74.4219 208.28 74.3728L208.248 74.2278L208.216 74.3728C208.206 74.4218 208.193 74.4702 208.178 74.5178L207.517 76.5161C207.513 76.547 207.498 76.5752 207.474 76.5951C207.45 76.615 207.419 76.6252 207.388 76.6236H206.964L205.981 73.5939Z" fill="#231F20"/>
<path d="M212.26 73.5455C212.466 73.5434 212.67 73.5798 212.862 73.6529C213.035 73.7216 213.191 73.828 213.319 73.9645C213.451 74.1055 213.55 74.2744 213.609 74.4587C213.745 74.8795 213.745 75.3325 213.609 75.7533C213.55 75.9376 213.451 76.1065 213.319 76.2475C213.191 76.3839 213.035 76.4904 212.862 76.5591C212.67 76.6322 212.466 76.6686 212.26 76.6665C212.053 76.6686 211.847 76.6322 211.653 76.5591C211.48 76.4878 211.322 76.3818 211.191 76.2475C211.063 76.1037 210.964 75.9357 210.901 75.7533C210.765 75.3325 210.765 74.8795 210.901 74.4587C210.964 74.2763 211.063 74.1083 211.191 73.9645C211.322 73.8302 211.48 73.7242 211.653 73.6529C211.847 73.5798 212.053 73.5433 212.26 73.5455ZM212.26 76.2314C212.385 76.2403 212.509 76.218 212.623 76.1664C212.736 76.1148 212.835 76.0355 212.91 75.9359C213.069 75.6923 213.144 75.404 213.125 75.114C213.143 74.8225 213.068 74.5327 212.91 74.2868C212.834 74.1883 212.735 74.1098 212.622 74.0583C212.509 74.0068 212.385 73.9838 212.26 73.9914C212.134 73.983 212.008 74.0055 211.893 74.057C211.778 74.1085 211.677 74.1874 211.6 74.2868C211.442 74.5327 211.367 74.8225 211.385 75.114C211.366 75.404 211.441 75.6923 211.6 75.9359C211.677 76.0351 211.778 76.1134 211.893 76.164C212.009 76.2147 212.135 76.2359 212.26 76.226V76.2314Z" fill="#231F20"/>
<path d="M214.366 76.6236V73.5939H214.694C214.738 73.589 214.782 73.6005 214.817 73.6262C214.845 73.6599 214.862 73.701 214.866 73.7443L214.898 74.1848C214.982 74.0041 215.102 73.843 215.253 73.7121C215.394 73.598 215.571 73.5371 215.752 73.5402C215.815 73.5317 215.878 73.5317 215.94 73.5402C215.996 73.5495 216.05 73.5715 216.096 73.6047L216.064 74.0505C216.064 74.1043 216.021 74.1311 215.967 74.1311H215.843C215.783 74.1226 215.721 74.1226 215.661 74.1311C215.577 74.1304 215.493 74.145 215.414 74.1741C215.34 74.2016 215.272 74.2436 215.215 74.2976C215.156 74.3551 215.106 74.4202 215.065 74.491C215.015 74.5764 214.974 74.6664 214.941 74.7596V76.6612L214.366 76.6236Z" fill="#231F20"/>
<path d="M217.138 72.2186V74.7971H217.277C217.311 74.8027 217.346 74.8027 217.38 74.7971C217.413 74.7811 217.443 74.7571 217.465 74.7272L218.389 73.7173C218.416 73.6863 218.447 73.6592 218.481 73.6368C218.523 73.6271 218.567 73.6271 218.61 73.6368H219.12L218.046 74.8132C217.996 74.8797 217.934 74.9362 217.863 74.9797L217.965 75.0657L218.046 75.1785L219.206 76.6664H218.669C218.63 76.675 218.589 76.675 218.551 76.6664C218.512 76.6484 218.48 76.6182 218.459 76.5805L217.498 75.3557C217.478 75.3194 217.448 75.2896 217.412 75.2698C217.368 75.2598 217.322 75.2598 217.277 75.2698H217.138V76.7094H216.547V72.3046L217.138 72.2186Z" fill="#231F20"/>
<path d="M59.2463 50.9519C59.2463 50.9519 25.8502 40.8692 24.0452 47.4334C22.2403 53.9977 62.9689 53.6378 59.7459 65.0474C56.5228 76.457 30.9909 67.0672 17.3843 61.4322C17.3843 61.4322 49.0776 71.2571 52.2039 64.854C55.3303 58.4509 17.3843 60.476 17.0029 47.6322C16.6215 34.7884 54.1109 47.4442 59.2463 50.9519Z" fill="#CD2027"/>
<path d="M35.3203 58.8107V58.5905C35.2827 56.4955 35.2559 54.422 35.2505 52.9179V52.5634L38.2587 53.2348L38.914 53.3745L39.7252 53.5518L40.4933 53.7129L40.4611 53.9654C40.2999 55.0397 40.1065 56.8661 39.8702 59.4177V59.7185L35.3203 58.8107Z" fill="white"/>
<path d="M39.897 53.928C39.7251 55.1151 39.521 57.0758 39.3115 59.4018C39.1127 61.5505 38.9032 64.0376 38.7152 66.4925C38.6507 67.2714 38.5916 68.0449 38.5326 68.8077C38.0974 74.4856 37.7537 79.4814 37.7537 79.4814C36.9425 77.945 36.4591 73.277 36.1797 68.2007C36.1421 67.497 36.1045 66.7879 36.0777 66.052C35.9595 63.5004 35.8897 60.9381 35.8467 58.6927C35.8037 56.3291 35.7876 54.3147 35.7876 53.0255L37.0016 53.2887L37.7268 53.4445L39.897 53.928Z" fill="#CD2027"/>
</svg>
