<svg width="237" height="122" viewBox="0 0 237 122" fill="none" xmlns="http://www.w3.org/2000/svg">
<rect width="236.138" height="121.847" rx="5" fill="white"/>
<path fill-rule="evenodd" clip-rule="evenodd" d="M32.9292 61.5206L32.2017 60.7864C32.8656 60.1116 33.6572 59.5757 34.5304 59.2099C35.4035 58.844 36.3408 58.6556 37.2875 58.6556C38.2341 58.6556 39.1714 58.844 40.0445 59.2099C40.9177 59.5757 41.7093 60.1116 42.3733 60.7864L41.6324 61.4939C41.0646 60.9208 40.3889 60.4659 39.6443 60.1554C38.8996 59.845 38.1009 59.6851 37.2941 59.6851C36.4874 59.6851 35.6886 59.845 34.944 60.1554C34.1994 60.4659 33.5237 60.9208 32.9559 61.4939M35.5188 63.95L34.8513 63.2826C35.1755 62.9484 35.5635 62.6826 35.9923 62.5012C36.4211 62.3197 36.8819 62.2262 37.3475 62.2262C37.8131 62.2262 38.274 62.3197 38.7028 62.5012C39.1316 62.6826 39.5196 62.9484 39.8437 63.2826L39.1763 63.95C38.694 63.4745 38.0449 63.2062 37.3675 63.2025C37.0314 63.2 36.6982 63.2648 36.3875 63.3932C36.0769 63.5216 35.7951 63.7109 35.5588 63.95M37.3675 65.7387L36.0727 64.4706C36.424 64.1377 36.884 63.9433 37.3675 63.9233C37.8483 63.9384 38.3057 64.1338 38.649 64.4706L37.3675 65.7387ZM37.3675 61.4939C37.9314 61.4892 38.4902 61.6006 39.0092 61.821C39.5281 62.0415 39.9962 62.3663 40.3843 62.7754L41.1919 61.9678C40.694 61.4531 40.0977 61.0438 39.4384 60.7643C38.7791 60.4847 38.0703 60.3407 37.3542 60.3407C36.6381 60.3407 35.9293 60.4847 35.27 60.7643C34.6107 61.0438 34.0144 61.4531 33.5165 61.9678L34.3174 62.782C34.7104 62.3717 35.1831 62.0457 35.7064 61.8243C36.2297 61.6028 36.7926 61.4904 37.3609 61.4939" fill="#0E6EB6"/>
<path fill-rule="evenodd" clip-rule="evenodd" d="M32.482 66.6196H41.9929C35.1717 83.8726 33.9837 93.9842 40.9049 93.7172C25.721 94.6115 27.6899 79.8614 32.4887 66.6196" fill="#0E6EB6"/>
<path fill-rule="evenodd" clip-rule="evenodd" d="M41.2251 40.1562C49.9017 26.0201 63.971 24.5785 73.9958 29.7243C85.1151 35.4442 88.5457 48.6793 85.7759 60.3326C83.3398 70.9313 76.3585 80.6157 67.3349 86.8428C61.8114 90.5896 55.5357 93.0839 48.9472 94.1511C53.9985 92.5036 58.5189 89.5384 62.0422 85.5613C64.2288 83.187 66.1223 80.5585 67.6819 77.7324C72.8011 70.8312 75.1705 64.0702 75.3373 58.1834C75.671 50.2878 72.2338 42.4522 64.9788 38.8281C58.665 35.6177 50.162 35.7846 41.2251 40.1629" fill="#F26329"/>
<path fill-rule="evenodd" clip-rule="evenodd" d="M34.671 56.1012C41.7457 42.0852 56.3157 41.1041 64.8988 47.171C68.2815 49.5714 70.6583 53.1367 71.573 57.1824C72.741 62.335 71.8867 67.6744 69.9512 72.7668C68.1709 77.5049 65.4845 81.8507 62.0422 85.5614C57.1566 90.9609 50.162 95.0789 42.6868 94.9988C39.6993 95.0146 36.7633 94.2212 34.1904 92.7029C37.7211 94.4048 43.214 93.8042 46.5712 92.4626C52.1242 90.1867 56.5826 85.468 59.3658 80.2487C62.803 73.8547 65.5128 63.563 60.0332 57.6696C55.0609 52.1967 45.1429 50.3279 34.671 56.0945" fill="#09A14A"/>
<path d="M200.861 64.1304L202.543 59.3049C202.342 59.3049 202.129 59.3049 201.949 59.3049C201.426 59.2838 200.904 59.3707 200.416 59.5601C199.928 59.7496 199.484 60.0376 199.112 60.4061C198.367 61.1409 197.86 62.0827 197.657 63.1092C197.51 63.5746 197.527 64.0761 197.704 64.5308C197.789 64.6988 197.922 64.8378 198.086 64.9304C198.249 65.0231 198.437 65.0652 198.625 65.0514C199.447 64.9996 200.232 64.6889 200.867 64.1638M206.207 57.1624L202.683 67.0537H199.82L200.147 66.1127C199.286 66.8001 198.23 67.1993 197.13 67.254C196.694 67.2728 196.262 67.1682 195.882 66.9521C195.503 66.736 195.193 66.4173 194.987 66.0326C194.5 65.0648 194.402 63.9468 194.714 62.909C195.074 61.1506 196.061 59.583 197.49 58.4973C199.074 57.3001 201.026 56.6934 203.01 56.782C204.074 56.7708 205.136 56.885 206.173 57.1224M194.507 56.9956L190.936 67.0537H188.073L191.657 56.9956H194.507ZM192.558 54.179C192.64 53.7576 192.862 53.3761 193.188 53.0964C193.514 52.8166 193.924 52.6549 194.353 52.6373C194.536 52.6323 194.718 52.6702 194.883 52.7478C195.049 52.8255 195.194 52.9407 195.308 53.0845C195.424 53.2388 195.503 53.418 195.537 53.6081C195.572 53.7981 195.562 53.9936 195.508 54.179C195.412 54.6167 195.178 55.012 194.841 55.307C194.513 55.5776 194.104 55.7283 193.679 55.7342C193.5 55.7389 193.322 55.7029 193.159 55.6289C192.996 55.5549 192.852 55.4449 192.738 55.307C192.629 55.143 192.557 54.9568 192.528 54.7617C192.499 54.5667 192.514 54.3677 192.571 54.179M183.594 64.6844L185.43 59.4584C185.194 59.4202 184.955 59.4023 184.716 59.405C183.776 59.3853 182.858 59.692 182.119 60.2727C181.416 60.8104 180.925 61.5782 180.731 62.4418C180.646 62.7335 180.63 63.0409 180.685 63.3398C180.739 63.6387 180.862 63.9208 181.045 64.1638C181.266 64.3978 181.536 64.5793 181.837 64.6948C182.137 64.8104 182.459 64.857 182.78 64.8312C183.055 64.8157 183.327 64.7755 183.594 64.7111M190.936 51.9165L185.657 66.9403C184.545 67.1466 183.417 67.2604 182.286 67.2807C180.571 67.2807 179.309 66.8401 178.495 65.9458C177.681 65.0514 177.454 63.8968 177.781 62.4284C178.119 60.8458 178.996 59.4299 180.264 58.4239C181.572 57.3311 183.232 56.748 184.936 56.782C185.396 56.7895 185.855 56.8252 186.311 56.8888L188.066 51.8898L190.936 51.9165ZM171.394 56.9956L170.96 58.1235C171.991 57.3287 173.238 56.8635 174.537 56.7887C174.871 56.7573 175.207 56.8171 175.509 56.9617C175.811 57.1063 176.068 57.3302 176.253 57.6096C176.429 57.9604 176.535 58.3426 176.564 58.7343C176.592 59.126 176.543 59.5195 176.42 59.8922C176.357 60.1976 176.274 60.4986 176.173 60.7933L173.977 67.0604H171.127L173.243 61.0536C173.321 60.8852 173.379 60.7082 173.416 60.5263C173.616 59.5318 173.416 59.0446 172.835 59.0446C172.255 59.0446 171.247 59.5452 170.106 60.593L167.816 67.0737H164.953L168.531 56.9956H171.394ZM167.322 51.9165L161.983 67.0804H158.9L164.239 51.9165H167.322ZM155.442 51.9165L150.103 67.0804H147.266L152.606 51.9165H155.442ZM142.761 64.1571L144.43 59.3316C144.229 59.3316 144.016 59.3316 143.836 59.3316C143.315 59.3107 142.795 59.3978 142.309 59.5873C141.823 59.7768 141.382 60.0647 141.012 60.4328C140.274 61.1502 139.763 62.0696 139.544 63.0759C139.389 63.5411 139.411 64.0469 139.604 64.4975C139.686 64.6649 139.817 64.804 139.978 64.8967C140.14 64.9895 140.326 65.0318 140.512 65.0181C141.335 64.961 142.121 64.651 142.761 64.1304M148.101 57.1291L144.597 67.0537H141.747L142.08 66.1127C141.218 66.7937 140.167 67.1923 139.07 67.254C138.627 67.2806 138.185 67.1805 137.796 66.9654C137.407 66.7503 137.088 66.4291 136.874 66.0392C136.397 65.0686 136.299 63.9546 136.601 62.9157C136.959 61.1564 137.946 59.588 139.377 58.504C140.966 57.3063 142.923 56.6998 144.91 56.7887C145.972 56.7785 147.032 56.8927 148.067 57.1291M135.666 54.8465L134.825 56.9956H136.928L136.067 59.1981H133.951L132.696 62.4818C132.586 62.7297 132.506 62.9895 132.456 63.2561C132.249 64.1571 132.456 64.5909 133.037 64.5909C133.659 64.5012 134.259 64.2952 134.805 63.9836L134.225 66.6533C133.422 67.0656 132.537 67.2936 131.635 67.3207C131.25 67.3479 130.865 67.2771 130.514 67.1149C130.164 66.9526 129.861 66.7043 129.633 66.393C129.427 66.0268 129.297 65.6232 129.25 65.2059C129.203 64.7887 129.24 64.3662 129.359 63.9635C129.446 63.6765 129.533 63.3829 129.633 63.0892L131.161 59.2381H129.226L130.067 57.0356H132.016L132.823 54.9065L135.666 54.8465ZM128.692 56.9956L125.128 67.0537H122.278L125.829 56.9956H128.692ZM126.723 54.179C126.822 53.7518 127.056 53.3679 127.39 53.0845C127.713 52.8076 128.12 52.6497 128.545 52.6373C128.729 52.6313 128.912 52.6686 129.079 52.7463C129.246 52.824 129.392 52.9398 129.506 53.0845C129.614 53.2429 129.687 53.4221 129.722 53.6106C129.756 53.7991 129.751 53.9927 129.706 54.179C129.6 54.6125 129.367 55.0048 129.039 55.307C128.711 55.5717 128.305 55.7217 127.884 55.7342C127.705 55.7431 127.526 55.709 127.362 55.6347C127.198 55.5604 127.055 55.448 126.943 55.307C126.828 55.1456 126.75 54.9607 126.716 54.7656C126.681 54.5705 126.69 54.3701 126.743 54.179M117.432 69.2829C117.526 68.8157 117.145 68.4687 116.304 68.2885L115.11 68.0015C114.717 68.0251 114.332 68.1225 113.975 68.2885C113.761 68.3466 113.565 68.4606 113.409 68.6189C113.253 68.7773 113.142 68.9741 113.087 69.1895C112.94 69.897 113.568 70.2373 114.983 70.2373C115.576 70.262 116.169 70.1876 116.738 70.0171C116.904 69.9639 117.053 69.868 117.17 69.7392C117.287 69.6104 117.368 69.453 117.406 69.2829M117.285 62.6087C118.32 62.6087 118.987 61.8745 119.288 60.4328C119.341 60.2596 119.358 60.0774 119.339 59.8972C119.319 59.7171 119.263 59.5428 119.174 59.385C119.069 59.2515 118.932 59.1463 118.776 59.0787C118.62 59.0111 118.449 58.9834 118.28 58.9979C117.239 58.9979 116.551 59.7254 116.204 61.2137C116.011 62.1281 116.351 62.6087 117.259 62.6087M124.193 56.9956L123.432 59.1981H121.904C122.009 59.7314 122.009 60.28 121.904 60.8133C121.672 61.8523 121.084 62.7776 120.242 63.4296C119.34 64.1391 118.22 64.5141 117.072 64.4908C116.625 64.4785 116.178 64.5098 115.737 64.5842C115.617 64.5958 115.505 64.6465 115.416 64.7285C115.328 64.8106 115.27 64.9194 115.25 65.0381C115.216 65.1582 115.25 65.265 115.437 65.3985C116.092 65.5928 116.761 65.7357 117.439 65.8257C118.62 66.0326 119.441 66.3663 119.828 66.9069C120.041 67.1889 120.186 67.5166 120.251 67.864C120.316 68.2115 120.299 68.5693 120.202 68.9092C119.728 71.085 117.833 72.1929 114.522 72.1929C113.391 72.2774 112.259 72.0463 111.252 71.5255C110.934 71.3488 110.684 71.0707 110.543 70.7357C110.401 70.4006 110.376 70.0278 110.471 69.6767C110.691 68.7156 111.639 67.9347 113.334 67.4275C112.988 67.2693 112.708 66.9958 112.541 66.6537C112.374 66.3116 112.331 65.9222 112.42 65.552C112.627 64.6176 113.408 63.9969 114.763 63.6966C114.305 63.3826 113.959 62.9321 113.773 62.4094C113.587 61.8868 113.572 61.3187 113.728 60.7866C113.992 59.7122 114.628 58.7662 115.523 58.1169C116.466 57.3613 117.646 56.9641 118.854 56.9956H124.193ZM112.847 56.9956L109.283 67.0804H106.433L109.95 56.9956H112.847ZM110.845 54.179C110.944 53.7522 111.178 53.3685 111.512 53.0845C111.832 52.8118 112.234 52.6543 112.654 52.6373C112.837 52.6343 113.019 52.6731 113.185 52.7505C113.352 52.828 113.499 52.9421 113.615 53.0845C113.727 53.2407 113.802 53.4208 113.833 53.6106C113.864 53.8005 113.851 53.9951 113.795 54.179C113.69 54.6131 113.457 55.0059 113.127 55.307C112.798 55.5786 112.386 55.7293 111.959 55.7342C111.781 55.7404 111.604 55.7051 111.442 55.6309C111.28 55.5568 111.137 55.4459 111.025 55.307C110.917 55.1422 110.844 54.9573 110.81 54.7635C110.775 54.5696 110.78 54.3709 110.825 54.179M98.2571 54.4393L94.7331 64.5442H97.603C98.3172 64.5567 99.0268 64.4267 99.6903 64.162C100.354 63.8973 100.958 63.5031 101.467 63.0024C102.553 61.9952 103.294 60.6709 103.583 59.2181C103.755 58.6338 103.795 58.0185 103.699 57.4169C103.603 56.8154 103.374 56.2428 103.029 55.7408C102.629 55.2744 102.124 54.91 101.555 54.6779C100.987 54.4457 100.371 54.3525 99.7588 54.406L98.2571 54.4393ZM96.1013 51.9165H100.893C103.31 51.9165 105.005 52.5839 105.986 53.9721C106.967 55.3604 107.207 57.1291 106.74 59.3116C106.298 61.457 105.186 63.4064 103.563 64.8779C102.139 66.2824 100.224 67.0771 98.2237 67.0938H90.7886L96.1013 51.9165Z" fill="black"/>
<path fill-rule="evenodd" clip-rule="evenodd" d="M91.9901 77.4186H93.6386C94.1796 77.4362 94.7101 77.2665 95.1403 76.9381C95.318 76.7829 95.4578 76.5892 95.5492 76.3718C95.6406 76.1543 95.6811 75.9188 95.6676 75.6833C95.6807 75.4449 95.6402 75.2066 95.5489 74.986C95.4576 74.7654 95.318 74.568 95.1403 74.4085C94.7131 74.0763 94.1787 73.9124 93.6386 73.948H91.9901V77.4186ZM91.9901 78.333V82.1907H91.0156V73.0136H93.425C94.2772 72.969 95.1207 73.2033 95.8278 73.681C96.1226 73.9216 96.3566 74.2283 96.5108 74.5762C96.665 74.924 96.7351 75.3033 96.7155 75.6833C96.7304 76.055 96.6578 76.425 96.5036 76.7635C96.3495 77.102 96.118 77.3995 95.8278 77.6322C95.1299 78.133 94.2829 78.3824 93.425 78.3397L91.9901 78.333Z" fill="black"/>
<path fill-rule="evenodd" clip-rule="evenodd" d="M100.64 81.3031C100.939 81.3102 101.236 81.2544 101.512 81.1394C101.788 81.0245 102.036 80.8529 102.242 80.6357C102.459 80.4109 102.63 80.1455 102.744 79.8546C102.859 79.5637 102.915 79.253 102.909 78.9404C102.918 78.6284 102.864 78.3179 102.749 78.0276C102.634 77.7373 102.462 77.4734 102.242 77.2519C102.042 77.0237 101.796 76.8411 101.519 76.7167C101.243 76.5924 100.943 76.529 100.64 76.531C100.333 76.5243 100.029 76.5854 99.7483 76.71C99.4679 76.8346 99.2185 77.0196 99.018 77.2519C98.799 77.4741 98.6271 77.7381 98.5124 78.0282C98.3978 78.3183 98.3427 78.6286 98.3506 78.9404C98.3404 79.5715 98.5803 80.1809 99.018 80.6357C99.2246 80.8568 99.4764 81.0308 99.7562 81.146C100.036 81.2612 100.337 81.3148 100.64 81.3031ZM100.64 82.2108C100.21 82.2286 99.7816 82.1551 99.3824 81.9952C98.9832 81.8353 98.6224 81.5926 98.3239 81.2831C97.7348 80.6306 97.4087 79.7828 97.4087 78.9037C97.4087 78.0247 97.7348 77.1769 98.3239 76.5244C98.9414 75.919 99.7717 75.58 100.636 75.58C101.501 75.58 102.332 75.919 102.949 76.5244C103.531 77.1802 103.853 78.0268 103.853 78.9037C103.853 79.7807 103.531 80.6273 102.949 81.2831C102.652 81.5912 102.294 81.8331 101.897 81.993C101.5 82.1529 101.074 82.2271 100.647 82.2108" fill="black"/>
<path fill-rule="evenodd" clip-rule="evenodd" d="M107.694 80.5491L109.497 75.4633H110.091L111.926 80.5424L113.848 75.5567H114.743L112.166 82.1976H111.579L109.777 77.2186L107.955 82.1976H107.374L104.798 75.5567H105.786L107.694 80.5491Z" fill="black"/>
<path fill-rule="evenodd" clip-rule="evenodd" d="M120.189 78.0995C120.13 77.7501 119.983 77.4215 119.762 77.1451C119.591 76.9377 119.374 76.7735 119.128 76.6656C118.883 76.5578 118.615 76.5094 118.347 76.5243C118.089 76.5334 117.837 76.5976 117.607 76.7128C117.376 76.8279 117.174 76.9913 117.012 77.1918C116.807 77.468 116.652 77.7772 116.551 78.1061L120.189 78.0995ZM116.418 78.887C116.416 79.1981 116.477 79.5063 116.598 79.7931C116.718 80.0798 116.895 80.3392 117.119 80.5556C117.335 80.7847 117.598 80.9659 117.888 81.0878C118.179 81.2096 118.492 81.2693 118.807 81.2631C119.194 81.2642 119.579 81.1963 119.942 81.0628C120.327 80.9087 120.688 80.6972 121.01 80.4355L121.223 80.2553V81.2831H121.157C120.825 81.5697 120.445 81.7956 120.035 81.9505C119.424 82.1677 118.766 82.2166 118.13 82.0921C117.493 81.9676 116.902 81.6744 116.418 81.2431C116.109 80.9327 115.868 80.5622 115.708 80.1546C115.549 79.7471 115.474 79.3111 115.49 78.8737C115.455 78.0059 115.74 77.1554 116.291 76.4843C116.542 76.1829 116.858 75.9423 117.215 75.7804C117.572 75.6186 117.961 75.5398 118.354 75.5499C118.751 75.5276 119.149 75.5946 119.517 75.7458C119.886 75.8971 120.215 76.1289 120.483 76.4242C120.983 77.0703 121.242 77.8702 121.217 78.6868V78.8203L116.418 78.887Z" fill="black"/>
<path fill-rule="evenodd" clip-rule="evenodd" d="M124.193 76.5243C124.319 76.2895 124.491 76.0823 124.698 75.9148C124.906 75.7473 125.145 75.6229 125.401 75.5489C125.657 75.4749 125.925 75.4528 126.19 75.484C126.455 75.5151 126.711 75.5987 126.943 75.7301C126.956 75.7308 126.969 75.7357 126.98 75.744C126.991 75.7524 126.999 75.7638 127.003 75.7768V76.818C126.943 76.7846 127.003 76.818 126.923 76.818C125.414 75.977 124.493 77.185 124.193 78.006V82.1841H123.265V75.5098H124.193V76.5243Z" fill="black"/>
<path fill-rule="evenodd" clip-rule="evenodd" d="M133.784 73.9747H130.84V73.1337H137.715V73.9747H134.771V82.0973H133.784V73.9747Z" fill="black"/>
<path fill-rule="evenodd" clip-rule="evenodd" d="M149.809 74.115V77.045H153.533V77.9127H149.809V81.1897H154.228V82.0641H148.828V73.2407H154.054V74.115H149.809Z" fill="black"/>
<path fill-rule="evenodd" clip-rule="evenodd" d="M156.897 76.3976C157.12 76.121 157.401 75.8977 157.721 75.7441C158.041 75.5905 158.391 75.5105 158.746 75.51C159.07 75.4978 159.393 75.5547 159.693 75.6766C159.993 75.7986 160.264 75.9829 160.488 76.2174C160.635 76.3756 160.762 76.5503 160.868 76.738L161.002 76.5178C161.23 76.2089 161.527 75.9568 161.868 75.7809C162.21 75.605 162.587 75.51 162.971 75.5033C163.295 75.4903 163.618 75.5467 163.918 75.6687C164.219 75.7907 164.49 75.9755 164.713 76.2108C164.94 76.4521 165.116 76.7366 165.23 77.0473C165.345 77.358 165.396 77.6887 165.38 78.0195V81.9707H164.413V78.0595C164.434 77.6216 164.283 77.1927 163.992 76.8648C163.853 76.7092 163.68 76.5874 163.487 76.5088C163.294 76.4301 163.086 76.3967 162.877 76.411C162.603 76.4241 162.335 76.4979 162.093 76.6272C161.85 76.7564 161.64 76.9379 161.476 77.1585C161.352 77.2824 161.244 77.4215 161.155 77.5723V81.9707H160.188V78.0595C160.2 77.8425 160.169 77.6252 160.097 77.4202C160.025 77.2152 159.913 77.0264 159.767 76.8648C159.627 76.7112 159.454 76.5907 159.261 76.5122C159.068 76.4337 158.86 76.3991 158.653 76.411C158.377 76.4249 158.107 76.499 157.862 76.6281C157.618 76.7572 157.405 76.9383 157.238 77.1585C157.12 77.2893 157.011 77.4275 156.911 77.5723V81.9707H155.963V75.6301H156.897V76.3976Z" fill="black"/>
<path d="M167.449 75.6434H168.417V76.4443C168.62 76.1038 168.94 75.8497 169.318 75.7302C169.89 75.5007 170.517 75.4416 171.122 75.56C171.727 75.6784 172.285 75.9693 172.729 76.3976C173.288 77.073 173.597 77.9208 173.603 78.7977C173.609 79.6746 173.312 80.5267 172.762 81.2098C171.601 82.4779 169.899 82.1909 168.51 81.4567L168.417 81.3966V84.4868H167.449V75.6434ZM171.347 76.7981C170.546 76.2775 169.378 76.3976 168.437 77.659V80.242C169.418 81.2965 170.686 81.3966 171.527 80.7826C171.822 80.532 172.056 80.2174 172.21 79.8627C172.364 79.508 172.436 79.1226 172.418 78.7362C172.401 78.3497 172.295 77.9723 172.11 77.6329C171.924 77.2935 171.663 77.0011 171.347 76.778" fill="black"/>
<path d="M107.107 68.5753H88.8193V69.6299H107.107V68.5753Z" fill="black"/>
<path d="M205.032 68.5753H121.831V69.6299H205.032V68.5753Z" fill="black"/>
<path fill-rule="evenodd" clip-rule="evenodd" d="M140.345 81.1296C140.644 81.1396 140.942 81.0852 141.218 80.9701C141.495 80.8549 141.743 80.6817 141.947 80.4621C142.382 80.0086 142.622 79.4022 142.614 78.7736C142.619 78.1415 142.38 77.5319 141.947 77.0716C141.747 76.8473 141.499 76.6709 141.222 76.5554C140.945 76.4398 140.645 76.3882 140.345 76.4042C140.044 76.3927 139.743 76.4463 139.465 76.5615C139.186 76.6767 138.935 76.8507 138.73 77.0716C138.291 77.5284 138.051 78.1403 138.062 78.7736C138.056 79.0853 138.111 79.3952 138.226 79.6851C138.34 79.9751 138.512 80.2393 138.73 80.4621C138.938 80.6797 139.189 80.8514 139.467 80.9663C139.745 81.0812 140.044 81.1368 140.345 81.1296ZM140.345 82.0439C139.916 82.058 139.488 81.9827 139.09 81.8231C138.691 81.6634 138.33 81.4227 138.029 81.1162C137.726 80.8024 137.489 80.4311 137.332 80.0241C137.175 79.6172 137.101 79.1829 137.115 78.7469C137.095 78.3061 137.165 77.866 137.323 77.4538C137.48 77.0416 137.72 76.6661 138.029 76.3508C138.328 76.0406 138.688 75.7966 139.087 75.6344C139.486 75.4723 139.915 75.3958 140.345 75.4097C140.774 75.3939 141.201 75.4696 141.598 75.6319C141.995 75.7942 142.353 76.0392 142.648 76.3508C142.954 76.6628 143.194 77.0335 143.354 77.4407C143.513 77.8479 143.588 78.2831 143.575 78.7202C143.586 79.1569 143.509 79.5913 143.35 79.9981C143.191 80.4049 142.952 80.776 142.648 81.0895C142.348 81.3943 141.989 81.634 141.593 81.7936C141.197 81.9533 140.772 82.0294 140.345 82.0172" fill="black"/>
<path fill-rule="evenodd" clip-rule="evenodd" d="M178.021 81.1297C178.32 81.1364 178.617 81.0804 178.893 80.9655C179.169 80.8505 179.417 80.6791 179.623 80.4623C180.06 80.0096 180.3 79.4026 180.29 78.7737C180.297 78.1414 180.057 77.5313 179.623 77.0718C179.417 76.8526 179.168 76.6779 178.892 76.5584C178.616 76.439 178.319 76.3774 178.018 76.3774C177.717 76.3774 177.419 76.439 177.143 76.5584C176.867 76.6779 176.619 76.8526 176.413 77.0718C176.194 77.2967 176.022 77.5631 175.907 77.8554C175.793 78.1476 175.737 78.4599 175.745 78.7737C175.736 79.0857 175.791 79.3963 175.905 79.6866C176.02 79.9768 176.193 80.2408 176.413 80.4623C176.618 80.6791 176.867 80.8505 177.143 80.9655C177.419 81.0804 177.716 81.1364 178.014 81.1297M178.014 82.0441C177.585 82.061 177.157 81.9871 176.758 81.8273C176.358 81.6674 175.998 81.4252 175.698 81.1164C175.394 80.8037 175.156 80.4326 174.999 80.0253C174.842 79.6181 174.769 79.1832 174.784 78.747C174.764 78.3051 174.836 77.8638 174.996 77.4512C175.155 77.0387 175.399 76.664 175.712 76.3509C176.009 76.0387 176.369 75.7933 176.769 75.631C177.168 75.4688 177.597 75.3934 178.028 75.4099C178.458 75.3964 178.887 75.4731 179.285 75.6352C179.684 75.7973 180.045 76.0411 180.344 76.3509C180.643 76.6669 180.876 77.0389 181.031 77.4456C181.186 77.8522 181.258 78.2855 181.245 78.7203C181.268 79.5979 180.944 80.4491 180.344 81.0897C180.043 81.3958 179.681 81.6363 179.283 81.7959C178.884 81.9556 178.457 82.031 178.028 82.0174" fill="black"/>
<path fill-rule="evenodd" clip-rule="evenodd" d="M185.083 80.629L186.892 75.5165H187.499L189.308 80.6157L191.23 75.6233H192.151L189.575 82.2509H188.987L187.172 77.2852L185.363 82.2509H184.769L182.193 75.6233H183.167L185.083 80.629Z" fill="black"/>
<path fill-rule="evenodd" clip-rule="evenodd" d="M197.61 78.0994C197.555 77.749 197.408 77.4196 197.183 77.1449C197.014 76.9377 196.798 76.7734 196.553 76.6656C196.309 76.5577 196.042 76.5093 195.775 76.5242C195.517 76.5282 195.262 76.5903 195.031 76.7058C194.8 76.8213 194.598 76.9874 194.44 77.1917C194.227 77.4628 194.071 77.7736 193.979 78.106L197.61 78.0994ZM193.846 78.8869C193.843 79.1981 193.904 79.5065 194.025 79.7934C194.145 80.0803 194.323 80.3396 194.547 80.5555C194.762 80.7829 195.022 80.9632 195.31 81.0849C195.599 81.2067 195.909 81.2673 196.222 81.263C196.609 81.2625 196.993 81.1948 197.357 81.0627C197.742 80.916 198.099 80.7038 198.411 80.4354L198.645 80.2551V81.283H198.598C198.259 81.5692 197.873 81.7949 197.457 81.9504C196.844 82.1687 196.183 82.2182 195.545 82.0937C194.906 81.9693 194.312 81.6754 193.826 81.2429C193.521 80.9304 193.282 80.5594 193.124 80.1522C192.965 79.7451 192.891 79.3102 192.905 78.8736C192.876 78.0078 193.157 77.1601 193.699 76.4842C193.964 76.1946 194.286 75.9625 194.645 75.8021C195.003 75.6416 195.391 75.5563 195.783 75.5513C196.176 75.5463 196.566 75.6217 196.928 75.773C197.29 75.9242 197.618 76.1481 197.891 76.4308C198.396 77.0748 198.66 77.8751 198.638 78.6934V78.8269L193.846 78.8869Z" fill="black"/>
<path fill-rule="evenodd" clip-rule="evenodd" d="M201.615 76.4576C201.743 76.2271 201.915 76.0242 202.121 75.8604C202.328 75.6967 202.565 75.5754 202.819 75.5035C203.072 75.4315 203.338 75.4104 203.599 75.4413C203.861 75.4721 204.114 75.5544 204.344 75.6834C204.344 75.6834 204.391 75.6834 204.418 75.7167V76.798C204.338 76.7112 204.418 76.798 204.338 76.7512C202.823 75.9036 201.908 77.125 201.608 77.9259V82.104H200.68V75.4564H201.615V76.4576Z" fill="black"/>
</svg>
