<svg width="237" height="122" viewBox="0 0 237 122" fill="none" xmlns="http://www.w3.org/2000/svg">
<rect width="236.138" height="121.847" rx="5" fill="white"/>
<mask id="mask0_1444_453" style="mask-type:luminance" maskUnits="userSpaceOnUse" x="25" y="37" width="90" height="48">
<path d="M114.039 37.1496H25V84.5179H114.039V37.1496Z" fill="white"/>
</mask>
<g mask="url(#mask0_1444_453)">
<path d="M69.5098 37.159H97.3C100.988 37.0111 108.552 39.3445 112.359 46.1059C113.471 47.9288 114.053 50.0258 114.039 52.1611V84.4653H96.4077V53.4495C96.4506 52.1373 95.0191 50.305 93.3538 50.3431H86.5542V84.4653H80.9713L69.5193 72.9227L68.837 72.2355C66.4989 69.4918 66.3223 66.6145 68.837 63.8183L69.5384 63.1121L82.1786 50.4004H69.5098V37.159Z" fill="#39B44A"/>
<path d="M25 37.221H52.7902C57.1563 37.0397 66.9907 40.356 69.5292 50.3908H69.2763L57.9245 61.8094C54.3553 65.6697 54.3267 70.1502 57.8768 74.1537L68.1645 84.5177H51.8979V53.5019C51.9408 52.1897 50.5093 50.3574 48.844 50.3956H42.0635V84.5177H25V37.221Z" fill="#008ED3"/>
</g>
<path d="M181.806 36.4148H181.153V51.3453H181.806V36.4148ZM177.645 48.2294C177.56 49.0245 177.174 49.7568 176.566 50.2765C175.959 50.7963 175.175 51.0643 174.377 51.0256C174.079 51.0379 173.781 50.9869 173.504 50.8761C173.227 50.7653 172.976 50.5972 172.768 50.3827C172.56 50.1683 172.4 49.9123 172.299 49.6317C172.197 49.3511 172.155 49.0521 172.177 48.7543C172.177 46.0679 175.694 45.7673 177.645 45.8054V48.2294ZM178.323 45.0038C178.323 43.2955 177.846 41.0767 175.016 41.0767C174.016 41.0872 173.041 41.3944 172.215 41.9595L172.478 42.4366C173.201 41.917 174.068 41.6337 174.959 41.6255C177.664 41.6255 177.665 44.0876 177.665 45.2328C173.494 45.166 171.49 46.5928 171.49 48.8688C171.49 50.162 172.373 51.5744 174.401 51.5744C175.046 51.5811 175.683 51.4239 176.251 51.1177C176.819 50.8114 177.301 50.366 177.65 49.8232H177.693L177.841 51.3453H178.461C178.346 50.5555 178.297 49.7575 178.313 48.9595L178.323 45.0038ZM169.538 45.3235C169.538 41.4346 166.852 41.0767 166.065 41.0767C165.34 41.0703 164.627 41.2631 164.004 41.6342C163.382 42.0053 162.873 42.5404 162.534 43.181H162.495L162.424 41.2771H161.784C161.842 42.0501 161.861 42.7086 161.861 43.5532V51.3453H162.519V45.0563C162.519 43.4959 163.889 41.6159 165.902 41.6159C168.116 41.6159 168.866 43.4196 168.866 45.3569V51.3453H169.524L169.538 45.3235ZM159.122 46.2921C159.122 49.074 157.299 51.0256 155.104 51.0256C152.909 51.0256 151.215 48.8498 151.215 46.3494C151.215 43.9636 152.566 41.5777 155.214 41.5777C157.958 41.5777 159.122 44.1354 159.122 46.2731M155.195 41.0242C152.809 41.0242 150.538 42.9043 150.538 46.378C150.538 49.513 152.508 51.5457 155.085 51.5457C157.223 51.5457 159.799 49.9663 159.799 46.1919C159.799 43.1476 157.996 41.0242 155.195 41.0242ZM148.476 41.2485H147.822V51.3167H148.476V41.2485ZM148.82 38.3569C148.828 38.2639 148.818 38.1702 148.789 38.0815C148.76 37.9927 148.713 37.9108 148.652 37.8407C148.59 37.7706 148.515 37.7138 148.43 37.6737C148.346 37.6337 148.255 37.6112 148.161 37.6077C147.972 37.6176 147.795 37.702 147.668 37.8424C147.541 37.9828 147.475 38.1678 147.484 38.3569C147.477 38.4498 147.488 38.5432 147.517 38.6316C147.547 38.7201 147.593 38.8018 147.655 38.872C147.716 38.9422 147.791 38.9994 147.874 39.0404C147.958 39.0814 148.049 39.1054 148.142 39.1108C148.238 39.1099 148.332 39.0892 148.419 39.05C148.505 39.0108 148.583 38.9539 148.647 38.883C148.711 38.8121 148.759 38.7287 148.789 38.6381C148.818 38.5475 148.829 38.4518 148.82 38.3569ZM142.459 41.2485H140.713V41.8354H142.459V48.5682C142.459 49.7516 142.607 51.5553 144.654 51.5553C145.099 51.566 145.542 51.4814 145.952 51.3072L145.799 50.83C145.445 50.9607 145.07 51.0238 144.692 51.0161C143.604 51.0161 143.118 50.0618 143.118 48.802V41.864H146.081V41.2771H143.118V39.1394L142.459 39.44V41.2485ZM138.565 48.2294C138.48 49.0236 138.095 49.7552 137.488 50.2748C136.882 50.7945 136.1 51.063 135.302 51.0256C135.003 51.0386 134.705 50.9882 134.428 50.8777C134.15 50.7671 133.899 50.599 133.691 50.3844C133.483 50.1698 133.323 49.9135 133.222 49.6325C133.12 49.3516 133.079 49.0522 133.102 48.7543C133.102 46.0679 136.614 45.7673 138.565 45.8054V48.2294ZM139.253 45.0038C139.253 43.2955 138.775 41.0767 135.946 41.0767C134.947 41.0873 133.974 41.3945 133.15 41.9595L133.412 42.4366C134.136 41.917 135.002 41.6337 135.893 41.6255C138.594 41.6255 138.594 44.0876 138.594 45.2328C134.428 45.1756 132.434 46.6023 132.434 48.8784C132.434 50.1715 133.317 51.5839 135.349 51.5839C135.994 51.5898 136.63 51.4323 137.197 51.1261C137.765 50.8198 138.245 50.3749 138.594 49.8327H138.632L138.785 51.3549H139.405C139.288 50.5652 139.237 49.7672 139.253 48.969V45.0038ZM130.396 37.1449H129.738V44.6698C129.738 46.9077 129.738 48.4489 129.871 50.3481L129.833 50.3862C129.029 48.8864 128.145 47.4306 127.185 46.0249L121.306 37.1449H120.686V51.3453H121.345V43.7107C121.345 40.5661 121.345 39.6834 121.23 38.1994H121.287C122.017 39.6309 122.957 41.0195 124.031 42.6752L129.757 51.3644H130.415L130.396 37.1449Z" fill="#231F20"/>
<path d="M204.085 61.614C204.2 60.4115 204.877 58.8321 206.471 58.8321C208.146 58.8321 208.652 60.3733 208.633 61.614H204.085ZM209.811 65.9085C208.984 66.2465 208.095 66.409 207.201 66.3856C205.564 66.3856 204.119 65.5029 204.066 63.1743H210.637C210.678 62.8691 210.697 62.5613 210.694 62.2534C210.694 59.6958 209.53 57.2717 206.619 57.2717C203.708 57.2717 201.962 59.7339 201.962 62.8164C201.962 65.8989 203.761 68.0653 206.881 68.0653C208.011 68.0862 209.133 67.87 210.174 67.4306L209.811 65.9085ZM198.211 63.5226C198.211 65.2547 197.085 66.1136 195.959 66.1136C194.341 66.1136 193.421 64.6821 193.421 62.6399C193.421 60.4258 194.475 58.9991 195.978 58.9991C197.309 58.9991 198.211 60.1252 198.211 61.4947V63.5226ZM198.55 57.496L198.455 58.8846H198.416C198.151 58.3699 197.742 57.9432 197.239 57.6561C196.736 57.369 196.16 57.2338 195.582 57.267C193.33 57.267 191.206 59.2234 191.206 62.7353C191.206 65.6269 192.877 67.7885 195.32 67.7885C195.889 67.8086 196.453 67.6785 196.955 67.4113C197.458 67.1441 197.881 66.7492 198.183 66.2663H198.221V67.2636C198.221 69.6113 197.018 70.5513 195.329 70.5513C194.353 70.5492 193.393 70.2962 192.543 69.8165L192.065 71.5056C193.078 72.0325 194.207 72.2935 195.348 72.2643C200.249 72.2643 200.421 68.447 200.421 66.3856V60.4878C200.421 59.0945 200.459 58.2308 200.511 57.5008L198.55 57.496ZM187.461 63.6133C187.461 65.0448 186.545 66.2997 185.132 66.2997C183.481 66.2997 182.579 64.7394 182.579 62.7114C182.579 60.6835 183.5 59.0134 185.17 59.0134C186.392 59.0134 187.461 60.0059 187.461 61.6999V63.6133ZM189.622 52.7864H187.442V58.6651H187.408C187.116 58.2104 186.707 57.8417 186.225 57.5969C185.743 57.3521 185.204 57.2398 184.665 57.2717C182.355 57.2717 180.341 59.2663 180.341 62.7782C180.341 65.9705 182.126 68.0605 184.478 68.0605C185.119 68.0766 185.752 67.9142 186.305 67.5915C186.859 67.2687 187.312 66.7983 187.613 66.2329H187.714L187.823 67.8505H189.732C189.694 67.1348 189.656 66.0278 189.656 65.0877L189.622 52.7864ZM172.84 61.614C172.955 60.4115 173.628 58.8321 175.226 58.8321C176.825 58.8321 177.402 60.3733 177.383 61.614H172.84ZM178.566 65.9085C177.739 66.2469 176.85 66.4094 175.956 66.3856C174.324 66.3856 172.879 65.5029 172.821 63.1743H179.397C179.433 62.8687 179.451 62.5611 179.449 62.2534C179.449 59.6958 178.285 57.2717 175.374 57.2717C172.463 57.2717 170.717 59.7339 170.717 62.8164C170.717 65.8989 172.521 68.0653 175.637 68.0653C176.771 68.0886 177.898 67.8724 178.943 67.4306L178.566 65.9085ZM169.166 52.7864H166.99V67.8505H169.166V52.7864ZM163.726 57.5008L162.529 62.3822C162.242 63.5847 161.999 64.6965 161.832 65.7653H161.775C161.57 64.6726 161.298 63.5656 160.968 62.3631L159.613 57.5008H157.829L156.397 62.4776C156.097 63.5465 155.777 64.6965 155.572 65.7653H155.534C155.347 64.6726 155.104 63.5656 154.856 62.4585L153.711 57.5008H151.449L154.417 67.8505H156.388L157.795 63.284C158.142 62.1905 158.413 61.0745 158.606 59.9439H158.659C158.859 61.0572 159.117 62.1594 159.432 63.2459L160.763 67.8314H162.739L165.874 57.4817L163.726 57.5008ZM148.71 62.659C148.71 64.7251 147.732 66.4381 146.157 66.4381C144.583 66.4381 143.6 64.7251 143.6 62.6971C143.6 60.9125 144.315 58.9227 146.176 58.9227C148.037 58.9227 148.71 60.9507 148.71 62.659ZM146.248 57.2717C143.509 57.2717 141.366 59.2472 141.366 62.7401C141.366 66.0802 143.413 68.0605 146.1 68.0605C148.428 68.0605 150.943 66.4572 150.943 62.5922C150.943 59.419 149.087 57.2717 146.248 57.2717ZM139.854 61.5185C139.854 58.3263 138.05 57.2717 136.433 57.2717C135.803 57.2629 135.182 57.4224 134.634 57.7335C134.086 58.0447 133.632 58.4964 133.317 59.042H133.259L133.15 57.5008H131.241C131.279 58.3835 131.317 59.2663 131.317 60.4115V67.8505H133.498V61.614C133.498 59.963 134.638 59.0802 135.712 59.0802C137.196 59.0802 137.683 60.3161 137.683 61.781V67.8505H139.863L139.854 61.5185ZM125.567 59.6099L130.282 53.4783H127.634L123.936 58.6317C123.597 59.1422 123.239 59.6671 122.9 60.2349H122.843V53.4592H120.686V67.8505H122.843V62.5635L124.05 61.0604L128.03 67.8505H130.563L125.567 59.6099Z" fill="#231F20"/>
<path d="M180.78 78.5056L184.932 74.3161H184.087L180.313 78.2241C179.993 78.5629 179.545 79.0114 179.296 79.293H179.258V69.4538H178.605V84.3843H179.258V80.0087L180.332 78.916L184.688 84.3843H185.514L180.78 78.5056ZM177.144 74.1443C177.022 74.1101 176.895 74.0925 176.767 74.0919C175.336 74.0919 174.31 75.1798 173.904 76.4204H173.852L173.814 74.3161H173.193C173.251 75.2705 173.27 76.3632 173.27 77.2841V84.3843H173.924V78.749C173.924 76.4968 175.088 74.6931 176.724 74.6931C176.868 74.6963 177.012 74.7091 177.154 74.7313L177.144 74.1443ZM170.502 79.3311C170.502 82.113 168.684 84.0646 166.484 84.0646C164.285 84.0646 162.596 81.884 162.596 79.3884C162.596 77.0026 163.951 74.6167 166.599 74.6167C169.338 74.6167 170.502 77.1696 170.502 79.3121M166.58 74.0632C164.194 74.0632 161.923 75.9433 161.923 79.417C161.923 82.552 163.893 84.5847 166.465 84.5847C168.608 84.5847 171.18 83.0006 171.18 79.2262C171.18 76.1866 169.376 74.0632 166.58 74.0632ZM160.596 74.2875L158.659 80.3141C158.268 81.5357 157.948 82.5091 157.705 83.4109H157.652C157.39 82.4566 157.089 81.5023 156.655 80.2759L154.57 74.3209H153.835L151.692 80.3141C151.258 81.4927 150.905 82.49 150.638 83.3918H150.6C150.337 82.4375 150.056 81.4832 149.698 80.295L147.88 74.3018H147.112L150.285 84.37H150.848L152.985 78.4341C153.438 77.3164 153.833 76.176 154.169 75.0176H154.226C154.546 76.2343 154.865 77.1553 155.319 78.4341L157.361 84.37H157.91L161.364 74.3018L160.596 74.2875ZM143.189 74.2875H141.428V74.8696H143.175V81.55C143.175 82.7333 143.328 84.5418 145.375 84.5418C145.818 84.5508 146.259 84.4663 146.668 84.2937L146.52 83.8165C146.167 83.9516 145.791 84.0165 145.413 84.0074C144.32 84.0074 143.833 83.053 143.833 81.7933V74.8983H146.801V74.3161H143.833V72.1736L143.175 72.4743L143.189 74.2875ZM133.207 78.477C133.393 76.8022 134.462 74.5881 136.814 74.5881C139.515 74.5881 140.007 77.3461 139.987 78.477H133.207ZM139.93 83.3775C139.071 83.8378 138.108 84.0679 137.134 84.0456C134.595 84.0456 133.111 82.2419 133.131 79.0878H140.698C140.709 78.9815 140.709 78.8744 140.698 78.7681C140.698 76.702 139.854 74.0919 136.881 74.0919C134.424 74.0919 132.448 76.0435 132.448 79.5363C132.448 82.4661 134.214 84.5943 137.034 84.5943C138.114 84.6453 139.189 84.4099 140.15 83.9119L139.93 83.3775ZM130.387 70.1552H129.738V77.704C129.738 79.9419 129.738 81.4879 129.871 83.3871L129.833 83.4252C129.029 81.9254 128.145 80.4696 127.185 79.0639L121.306 70.1839H120.686V84.3843H121.345V76.7497C121.345 73.6051 121.345 72.7224 121.23 71.2336H121.287C122.017 72.6651 122.957 74.0537 124.031 75.7095L129.757 84.3987H130.415L130.387 70.1552Z" fill="#231F20"/>
</svg>
