<svg width="237" height="122" viewBox="0 0 237 122" fill="none" xmlns="http://www.w3.org/2000/svg">
<rect width="236.138" height="121.847" rx="5" fill="white"/>
<path d="M63.2275 27.1913C63.2275 24.2333 63.1517 21.6546 63 19.5309H69.371L69.7502 22.7923H69.9019C70.9638 21.2754 73.0874 19 77.2589 19C80.4444 19 82.8715 20.5928 83.9333 23.0957H84.0092C84.9193 21.8821 85.9812 20.8961 87.1947 20.2135C88.5599 19.4551 90.0768 19 91.8213 19C96.5237 19 100.088 22.2614 100.088 29.3908V42.2845H92.6556V30.4527C92.6556 26.9638 91.5179 24.9918 89.0908 24.9918C87.3464 24.9918 86.057 26.1295 85.6019 27.5705C85.3744 28.1015 85.2986 28.8599 85.2986 29.4667V42.2845H77.9415V30.0734C77.9415 27.0396 76.8039 24.9918 74.4527 24.9918C72.4807 24.9918 71.343 26.4329 70.8879 27.7222C70.6604 28.329 70.5845 29.0116 70.5845 29.6184V42.3604H63.2275V27.1913Z" fill="#8EC850"/>
<path d="M107.673 19.3035L111.39 31.0595C111.769 32.5006 112.3 33.0315 112.603 34.3209H112.755C113.134 33.0315 113.513 32.4247 113.893 31.0595L116.926 19.3035H125.042L119.353 33.8658C115.789 43.4223 114.272 46.9112 111.769 49.5658C108.887 52.6755 105.777 53.2822 98.7993 51.7653L101.681 46.6078C102.592 46.4561 103.805 46.0011 105.019 45.3184C106.156 44.7117 107.446 43.574 108.204 42.3605C108.432 41.9813 108.583 41.602 108.583 41.2986C108.583 41.0711 108.508 40.6919 108.204 40.0851L99.2544 19.3035H107.673Z" fill="#428DCB"/>
<path d="M107.598 76.3391C105.246 77.0975 100.772 78.1594 96.3725 78.1594C90.229 78.1594 85.7541 76.7183 82.6445 73.8362C79.5348 71.1057 77.8662 66.8584 77.8662 62.156C77.9421 51.5376 86.1334 45.47 97.1309 45.47C101.454 45.47 105.701 46.9869 108.432 42.2845C108.432 42.2845 108.508 47.6695 104.715 49.869C101.985 51.3859 100.696 51.4618 96.9793 51.4618C90.6082 51.4618 85.83 54.8748 85.83 61.8526C85.83 68.4512 90.1532 72.3951 96.4483 72.3951C98.1928 72.3951 99.558 72.1676 100.165 71.94V64.6589H94.9314V58.3637H107.446V76.3391H107.598Z" fill="#2AB998"/>
<path d="M107.598 76.3391C105.246 77.0975 100.772 78.1594 96.3725 78.1594C90.229 78.1594 85.7541 76.7183 82.6445 73.8362C79.5348 71.1057 77.8662 66.8584 77.8662 62.156C77.9421 51.5376 86.1334 45.47 97.1309 45.47C101.454 45.47 105.701 46.9869 108.432 42.2845C108.432 42.2845 108.508 47.6695 104.715 49.869C101.985 51.3859 100.696 51.4618 96.9793 51.4618C90.6082 51.4618 85.83 54.8748 85.83 61.8526C85.83 68.4512 90.1532 72.3951 96.4483 72.3951C98.1928 72.3951 99.558 72.1676 100.165 71.94V64.6589H94.9314V58.3637H107.446V76.3391H107.598Z" stroke="#2AB998" stroke-width="0.3066" stroke-miterlimit="10"/>
<path d="M143.093 61.4734C143.093 72.0159 136.419 78.3869 126.559 78.3869C116.547 78.3869 110.707 71.1816 110.707 62.0802C110.707 52.4478 117.154 45.3183 127.09 45.3183C137.48 45.2425 143.093 52.5995 143.093 61.4734ZM118.747 61.9285C118.747 68.2236 121.856 72.6227 126.938 72.6227C132.095 72.6227 135.053 67.9961 135.053 61.7009C135.053 55.9367 132.171 51.0067 126.938 51.0067C121.78 51.0067 118.747 55.6333 118.747 61.9285Z" fill="#C2579B"/>
<path d="M143.093 61.4734C143.093 72.0159 136.419 78.3869 126.559 78.3869C116.547 78.3869 110.707 71.1816 110.707 62.0802C110.707 52.4478 117.154 45.3183 127.09 45.3183C137.48 45.2425 143.093 52.5995 143.093 61.4734ZM118.747 61.9285C118.747 68.2236 121.856 72.6227 126.938 72.6227C132.095 72.6227 135.053 67.9961 135.053 61.7009C135.053 55.9367 132.171 51.0067 126.938 51.0067C121.78 51.0067 118.747 55.6333 118.747 61.9285Z" stroke="#C2579B" stroke-width="0.3066" stroke-miterlimit="10"/>
<path d="M152.573 77.856L141.803 45.7734H150.146L154.242 59.3498C155.38 63.142 156.441 66.7826 157.276 70.8024H157.427C158.262 66.9343 159.324 63.142 160.461 59.5015L164.784 45.7734H172.9L161.523 77.856H152.573Z" fill="#EC7026"/>
<path d="M152.573 77.856L141.803 45.7734H150.146L154.242 59.3498C155.38 63.142 156.441 66.7826 157.276 70.8024H157.427C158.262 66.9343 159.324 63.142 160.461 59.5015L164.784 45.7734H172.9L161.523 77.856H152.573Z" stroke="#EC7026" stroke-width="0.3066" stroke-miterlimit="10"/>
<path d="M72.9356 91.6598V102.278H71.7979V96.6656H67.7023V98.2583V98.4859C67.7023 98.5617 67.7023 98.6376 67.6264 98.6376L67.4747 98.7893L67.1713 98.8651C67.0197 98.8651 66.868 98.7893 66.6404 98.6376L65.882 97.8033C65.5786 97.4999 65.3511 97.1965 65.1994 96.8931C65.1235 96.6656 65.0477 96.5139 64.9718 96.2864L65.0477 95.983L65.2752 95.7554L65.4269 95.6796L65.6544 95.6037H66.5646V91.6598H63.7583V90.7496H74.6042V91.6598H72.9356ZM71.7979 91.6598H67.7023V95.6037H71.7979V91.6598Z" fill="#3D6599"/>
<path d="M71.3434 90.7496L66.7168 85.9714L67.4753 85.1371L72.026 90.7496H71.3434Z" fill="#3D6599"/>
<path d="M80.6719 91.6599V94.542C80.6719 95.2246 80.4444 95.7555 79.9135 96.1348C79.7618 96.2106 79.686 96.2865 79.5343 96.3623C79.4584 96.3623 79.3067 96.4381 79.0792 96.5898C78.7 96.7415 78.3966 96.7415 78.169 96.7415H77.8657L77.4864 96.6657L79.0792 98.941L79.686 99.6995L80.5203 100.61L80.8236 100.989L81.3546 101.444L80.5203 102.202C80.2169 102.051 79.8376 101.671 79.2309 100.989C78.4724 100.079 77.714 99.0927 77.1072 98.1067L76.4246 97.0449L75.5145 95.6038L75.2869 95.2246L74.8319 94.3903L75.742 93.7077L76.6521 95.3005C76.8797 95.6797 77.2589 95.8314 77.9415 95.8314C78.4724 95.8314 78.9275 95.6797 79.0792 95.4522C79.155 95.3005 79.3067 95.1488 79.3826 94.9971L79.4584 94.3903V91.584H73.3149V90.6739H82.4164V91.584H80.6719V91.6599Z" fill="#3D6599"/>
<path d="M84.9952 91.6599V102.278H83.8575V91.6599H81.8855V90.7497H83.5541C83.63 90.6739 83.5541 90.3705 83.2507 89.9154C82.7957 89.3087 82.3406 88.6261 81.8097 88.0193C81.1271 87.2609 80.5203 86.8058 79.9135 86.7299C79.2309 86.7299 78.7759 87.1092 78.4725 87.9435L78.3966 88.6261L78.4725 89.2328L78.7 89.9154L79.0034 90.4464L79.1551 90.6739H77.8657L77.6382 90.2947L77.4106 89.8396L77.259 89.3845L77.1831 88.8536C77.1831 88.7019 77.1831 88.4744 77.1831 88.2469C77.1831 88.0952 77.259 87.9435 77.3348 87.7159C77.6382 86.8816 78.0933 86.3507 78.7 86.0473C79.0792 85.8956 79.3826 85.8198 79.7618 85.8198C80.2928 85.8198 80.8237 86.0473 81.3546 86.4266C82.0372 86.8816 82.644 87.4884 83.099 88.2469L83.7817 89.2328L84.5401 90.6739H86.6638V91.5841H84.9952V91.6599Z" fill="#3D6599"/>
<path d="M106.08 91.6598V102.278H104.943V96.5139H101.757L100.999 95.6037H104.943V91.7356H100.771V95.452C100.695 95.6796 100.62 95.9071 100.544 96.1346C100.468 96.2863 100.316 96.5139 100.089 96.7414C99.8611 96.8931 99.6336 96.9689 99.3302 97.0448C99.2543 97.0448 99.2543 97.0448 99.1785 97.1206H99.0268H98.8751H98.5717C98.42 97.1206 98.2683 97.0448 98.2683 97.0448L99.6336 99.1685L100.24 99.9269L101.302 101.14L101.757 101.596L100.847 102.354C100.544 102.278 100.164 101.899 99.7094 101.216L96.979 97.2723L96.3722 96.2105L95.993 95.5279L95.6138 94.8453L96.5239 94.2385L97.2065 95.452C97.434 95.9829 97.8891 96.2105 98.5717 96.2105L99.0268 96.1346C99.1785 96.0588 99.2543 95.9829 99.3302 95.9071L99.4819 95.6037V95.1486V94.8453V91.8114H94.2485V90.9013H107.825V91.8114H106.08V91.6598Z" fill="#3D6599"/>
<path d="M114.272 91.6599V94.542C114.272 95.2246 114.044 95.7555 113.513 96.1348C113.362 96.2106 113.286 96.2865 113.134 96.3623C113.058 96.3623 112.907 96.4381 112.679 96.5898C112.3 96.7415 111.996 96.7415 111.769 96.7415H111.314L110.935 96.6657L112.527 98.941L113.134 99.6995L113.968 100.61L114.348 100.989L114.878 101.444L114.044 102.202C113.741 102.051 113.362 101.671 112.755 100.989C111.996 100.079 111.238 99.0927 110.631 98.1067L109.949 97.0449L109.038 95.6038L108.811 95.2246L108.356 94.3903L109.266 93.7077L110.176 95.3005C110.404 95.6797 110.783 95.8314 111.465 95.8314C111.996 95.8314 112.451 95.6797 112.603 95.4522C112.679 95.3005 112.831 95.1488 112.906 94.9971L112.982 94.3903V91.584H106.839V90.6739H115.94V91.584H114.272V91.6599Z" fill="#3D6599"/>
<path d="M123.374 91.6599V94.9971L123.829 94.6179L124.056 94.3903L124.587 94.0869C124.739 94.0111 124.891 93.9352 125.118 93.8594L125.346 93.7836H125.573C126.483 93.7836 127.242 94.0869 127.773 94.6179C128.304 95.1488 128.607 95.8314 128.607 96.6657C128.607 97.5 128.228 98.4101 127.469 99.3961L127.014 100.003L126.332 100.761L125.346 100.003C125.497 100.003 125.573 99.927 125.725 99.7753L126.407 98.941C127.09 98.1067 127.393 97.3483 127.393 96.5898C127.393 95.9831 127.242 95.528 127.014 95.3005C126.862 95.1488 126.711 94.9971 126.407 94.8454C126.18 94.7695 125.952 94.6937 125.649 94.6937C125.042 94.6937 124.435 94.9971 123.98 95.6797C123.525 96.2106 123.298 96.8174 123.298 97.4241V102.202H122.16V98.8652C121.629 99.3961 120.947 99.6995 120.112 99.6995C118.671 99.6995 117.685 99.0927 117.154 97.8034C117.003 97.4241 116.927 97.0449 116.927 96.5898C116.927 96.1348 117.003 95.6797 117.154 95.3005C117.458 94.6179 117.989 94.0869 118.823 93.7836C119.202 93.6319 119.581 93.556 120.036 93.556L120.643 93.6319L121.25 93.7836V94.6937L121.022 94.6179L120.947 94.542L120.795 94.4662C120.719 94.4662 120.643 94.4662 120.643 94.3903H120.34H120.188C119.885 94.3903 119.581 94.4662 119.354 94.542C118.899 94.6937 118.595 95.1488 118.292 95.7555L118.14 96.2865V96.6657C118.14 97.6517 118.519 98.3343 119.278 98.6377C119.505 98.7135 119.809 98.7894 120.036 98.7894C120.491 98.7894 120.947 98.6377 121.402 98.2584C121.857 97.8792 122.084 97.5 122.16 97.1208V91.584H115.334V90.6739H129.745V91.584H123.374V91.6599Z" fill="#3D6599"/>
<path d="M132.399 91.6598V102.278H131.261V91.6598H129.137V90.7496H134.598V91.6598H132.399Z" fill="#3D6599"/>
<path d="M140.742 91.6599V94.542C140.742 95.2246 140.515 95.7555 139.984 96.1348C139.832 96.2106 139.756 96.2865 139.604 96.3623C139.529 96.3623 139.377 96.4381 139.149 96.5898C138.77 96.7415 138.467 96.7415 138.239 96.7415H137.784L137.405 96.6657L138.998 98.941L139.604 99.6995L140.439 100.61L140.742 100.989L141.273 101.444L140.439 102.202C140.135 102.051 139.756 101.671 139.149 100.989C138.391 100.079 137.632 99.0927 137.026 98.1067L136.343 97.0449L135.433 95.6038L135.205 95.2246L134.75 94.3903L135.66 93.7077L136.571 95.3005C136.798 95.6797 137.177 95.8314 137.86 95.8314C138.391 95.8314 138.846 95.6797 138.998 95.4522C139.073 95.3005 139.225 95.1488 139.301 94.9971L139.377 94.3903V91.584H133.233V90.6739H142.335V91.584H140.742V91.6599Z" fill="#3D6599"/>
<path d="M72.9351 91.6598V102.278H71.7974V96.6656H67.7018V98.2584V98.4859C67.7018 98.5618 67.7018 98.6376 67.6259 98.6376L67.4742 98.7893L67.1709 98.8652C67.0192 98.8652 66.8675 98.7893 66.6399 98.6376L65.8815 97.8033C65.5781 97.4999 65.3506 97.1966 65.1989 96.8932C65.123 96.6656 65.0472 96.5139 64.9713 96.2864L65.0472 95.983L65.2747 95.7555L65.4264 95.6796L65.6539 95.6038H66.5641V91.6598H63.7578V90.7497H74.6037V91.6598H72.9351ZM71.7974 91.6598H67.7018V95.6038H71.7974V91.6598Z" fill="#3D6599"/>
<path d="M73.3907 102.733H71.3428V97.045H68.1573V98.4861C68.1573 98.6378 68.0815 98.7894 67.9298 98.8653L67.6264 99.0928L67.1713 99.1687C66.9438 99.1687 66.6404 99.0928 66.337 98.7894L66.2612 98.7136L65.5027 97.8793C65.1994 97.5759 64.9718 97.2725 64.7443 96.9692V96.8933C64.5926 96.6658 64.5167 96.4382 64.5167 96.2107V96.1349L64.6684 95.6039L65.0477 95.2247L65.5786 95.073H66.1853V91.9634H63.3032V90.1431H75.0593V91.9634H73.3907V102.733ZM72.253 101.823H72.5564V91.2049H74.225V91.1291H64.2134V91.2049H67.0196V96.059H65.6544L65.5027 96.1349L65.4269 96.2107V96.2865C65.4269 96.3624 65.5027 96.5141 65.5786 96.6658C65.7303 96.9692 65.9578 97.1967 66.1853 97.4242L66.9438 98.1827C67.0955 98.2585 67.1713 98.3344 67.1713 98.3344H67.2472V96.2107H72.253V101.823ZM72.253 96.059H67.2472V91.2049H72.253V96.059ZM68.1573 95.1489H71.3428V92.0392H68.1573V95.1489Z" fill="#3D6598"/>
<path d="M71.3429 90.7498L66.7163 85.9715L67.4748 85.1372L72.0255 90.7498H71.3429Z" fill="#3D6599"/>
<path d="M73.0111 91.129H71.1909L66.1851 85.8956L67.6261 84.3787L73.0111 91.129ZM67.3986 85.8956L69.2189 87.7918L67.5503 85.7439L67.3986 85.8956Z" fill="#3D6598"/>
<path d="M80.6715 91.6598V94.5419C80.6715 95.2246 80.4439 95.7555 79.913 96.1347C79.7613 96.2105 79.6855 96.2864 79.5338 96.3622C79.4579 96.3622 79.3062 96.4381 79.0787 96.5898C78.6995 96.7415 78.3961 96.7415 78.1686 96.7415H77.8652L77.486 96.6656L79.0787 98.941L79.6855 99.6994L80.5198 100.61L80.8232 100.989L81.3541 101.444L80.5198 102.202C80.2164 102.051 79.8372 101.671 79.2304 100.989C78.4719 100.079 77.7135 99.0927 77.1067 98.1067L76.4241 97.0448L75.514 95.6038L75.2864 95.2246L74.8314 94.3903L75.7415 93.7076L76.6517 95.3004C76.8792 95.6796 77.2584 95.8313 77.941 95.8313C78.4719 95.8313 78.927 95.6796 79.0787 95.4521C79.1546 95.3004 79.3062 95.1487 79.3821 94.997L79.4579 94.3903V91.584H73.3145V90.6738H82.4159V91.584H80.6715V91.6598Z" fill="#3D6599"/>
<path d="M80.5959 102.809L80.3684 102.733C79.9892 102.582 79.5341 102.202 78.9273 101.368C78.1689 100.458 77.4104 99.4721 76.7278 98.4102L76.0452 97.3484L75.1351 95.8315L74.9075 95.3764L74.2249 94.2387L75.8935 93.0252L77.0312 94.9972C77.1829 95.2247 77.4863 95.3764 77.9413 95.3764C78.4723 95.3764 78.6998 95.2247 78.7756 95.1489C78.8515 95.073 78.9273 94.9972 79.0032 94.8455L79.079 94.3146V91.9634H72.9355V90.1431H82.9471V91.9634H81.1269V94.3904C81.1269 95.1489 80.8235 95.8315 80.2167 96.3624C80.065 96.5141 79.9133 96.5899 79.7616 96.6658C79.7616 96.6658 79.6099 96.7416 79.3066 96.8933C78.9273 97.045 78.624 97.1208 78.3206 97.1208L79.3824 98.6378L79.9892 99.3962L80.7476 100.231L81.1269 100.686L81.9612 101.444L80.5959 102.809ZM75.4384 94.6179L75.7418 95.073L75.9694 95.5281L76.8795 96.9692L77.5621 97.9551C78.1689 98.9411 78.9273 99.8513 79.6858 100.837C80.1409 101.368 80.3684 101.596 80.5959 101.747L80.8235 101.52L80.6718 101.368L80.2926 100.913L79.3824 100.079L78.6998 99.2445L76.3486 95.9073L76.5761 95.9832C76.4244 95.9073 76.3486 95.7556 76.2727 95.6039L75.5901 94.4663L75.4384 94.6179ZM73.8457 91.2049H79.9892V94.5421L79.8375 95.2247C79.7616 95.4522 79.6099 95.6798 79.4583 95.8315C79.3066 95.9832 79.079 96.1349 78.7756 96.2107C78.8515 96.2107 78.9273 96.1349 79.0032 96.1349C79.1549 96.059 79.3066 95.9832 79.3824 95.9832C79.4583 95.9073 79.6099 95.8315 79.6858 95.7556C80.065 95.4522 80.2926 94.9972 80.2926 94.4663V91.1291H82.1128V91.0532L73.8457 91.2049Z" fill="#3D6598"/>
<path d="M84.9947 91.6599V102.278H83.857V91.6599H81.885V90.7497H83.5536C83.6295 90.6739 83.5536 90.3705 83.2503 89.9154C82.7952 89.3087 82.3401 88.6261 81.8092 88.0193C81.1266 87.2609 80.5198 86.8058 79.9131 86.7299C79.2304 86.7299 78.7754 87.1092 78.472 87.9435L78.3961 88.6261L78.472 89.2328L78.6995 89.9154L79.0029 90.4464L79.1546 90.6739H77.8652L77.6377 90.2947L77.4102 89.8396L77.2585 89.3845L77.1826 88.8536C77.1826 88.7019 77.1826 88.4744 77.1826 88.2469C77.1826 88.0952 77.2585 87.9435 77.3343 87.7159C77.6377 86.8816 78.0928 86.3507 78.6995 86.0473C79.0788 85.8956 79.3821 85.8198 79.7614 85.8198C80.2923 85.8198 80.8232 86.0473 81.3541 86.4266C82.0367 86.8816 82.6435 87.4884 83.0986 88.2469L83.7812 89.2328L84.5396 90.6739H86.6633V91.5841H84.9947V91.6599Z" fill="#3D6599"/>
<path d="M85.4501 102.733H83.4023V92.1149H81.4303V90.2946H82.9472C82.9472 90.2946 82.8713 90.2188 82.8713 90.1429C82.4921 89.5362 81.9612 88.9294 81.4303 88.3227C80.8235 87.64 80.3684 87.2608 79.9134 87.185C79.61 87.185 79.2308 87.3367 78.9274 88.0193L78.8515 88.626L78.9274 89.0811L79.1549 89.6879L79.3825 90.2188L80.0651 91.1289L77.638 91.0531L77.2588 90.4463L77.0312 89.9154L76.8796 89.3086L76.8037 88.7777C76.8037 88.5502 76.8037 88.3227 76.8037 88.0951C76.8037 87.9434 76.8796 87.7159 77.0312 87.4884C77.3346 86.5782 77.9414 85.9714 78.624 85.5922C79.61 85.1371 80.6718 85.213 81.8095 86.0473C82.568 86.5782 83.1747 87.185 83.7056 87.9434L84.3883 88.9294L85.0709 90.1429H87.3462V91.9632H85.4501V102.733ZM84.2366 101.823H84.5399V91.2048H86.4361V91.1289H84.4641L83.9332 90.2188C84.0849 90.5222 84.0849 90.8256 83.8573 91.0531L83.7056 91.1289H82.3404V91.2048H84.3124V101.823H84.2366ZM78.0931 90.2946H78.3965L78.3206 90.1429L78.0172 89.3845L77.9414 88.7777L78.0931 87.9434C78.3206 87.1091 78.7757 86.7299 79.2308 86.5782C79.1549 86.5782 79.0791 86.6541 79.0032 86.6541C78.4723 86.8816 78.0931 87.3367 77.8655 88.0951V88.171C77.7897 88.3227 77.7139 88.3985 77.7139 88.4743C77.7139 88.7019 77.638 88.8536 77.7139 88.9294L77.7897 89.3845L77.9414 89.7637L78.0931 90.2946ZM81.2027 86.8057C81.5061 87.0333 81.8095 87.3367 82.1129 87.7159C82.6438 88.3985 83.1747 89.0053 83.554 89.6879L83.4781 89.5362L82.8713 88.5502C82.4921 87.8676 81.8854 87.3367 81.2027 86.8057C81.2027 86.8816 81.2027 86.8816 81.2027 86.8057Z" fill="#3D6598"/>
<path d="M106.079 91.6598V102.278H104.942V96.5139H101.756L100.998 95.6038H104.942V91.7357H100.77V95.4521C100.694 95.6796 100.619 95.9072 100.543 96.1347C100.467 96.2864 100.315 96.5139 100.088 96.7415C99.8601 96.8932 99.6326 96.969 99.3292 97.0448C99.2534 97.0448 99.2534 97.0448 99.1775 97.1207H99.0258H98.8741H98.5707C98.4191 97.1207 98.2674 97.0448 98.2674 97.0448L99.6326 99.1685L100.239 99.927L101.301 101.14L101.756 101.596L100.846 102.354C100.543 102.278 100.164 101.899 99.7084 101.216L96.978 97.2724L96.3712 96.2105L95.992 95.5279L95.6128 94.8453L96.5229 94.2386L97.2055 95.4521C97.4331 95.983 97.8881 96.2105 98.5707 96.2105L99.0258 96.1347C99.1775 96.0589 99.2534 95.983 99.3292 95.9072L99.4809 95.6038V95.1487V94.8453V91.8115H94.2476V90.9014H107.824V91.8115H106.079V91.6598Z" fill="#3D6599"/>
<path d="M100.998 102.809L100.771 102.733C100.392 102.582 100.012 102.202 99.4815 101.444L96.7511 97.4999L96.1443 96.4381L95.1583 94.6178L96.8269 93.4801L97.7371 95.1487C97.8129 95.4521 98.0405 95.6796 98.6472 95.6796L99.0265 95.6038H99.1023L99.1782 95.3762V92.039H93.9448V90.2188H108.431V92.039H106.611V102.657H104.563V96.8931H101.605L100.998 96.2105C100.923 96.4381 100.695 96.7415 100.392 97.0448H100.316C100.088 97.1965 99.7849 97.2724 99.4057 97.3482C99.4057 97.3482 99.3298 97.3482 99.254 97.4241H99.1023L100.012 98.7893L100.619 99.5477L101.681 100.761L102.515 101.52L100.998 102.809ZM105.397 101.823H105.701V91.2047H107.445V91.1289H94.7791V91.2047H100.012V95.0729H100.316V91.2047H105.397V95.983H101.909L101.984 96.0588H105.397V101.823ZM96.2202 94.8453L96.8269 95.9072L97.4337 96.8931L100.088 100.837C100.392 101.292 100.619 101.52 100.771 101.671L101.074 101.444L100.923 101.292L99.7849 100.079L99.1782 99.2444L96.9028 95.7555H96.9786C96.9028 95.6038 96.827 95.5279 96.7511 95.3762L96.3719 94.6178L96.2202 94.8453ZM98.6472 96.5898H98.8748H99.1023H99.1782C99.4815 96.5139 99.6332 96.4381 99.7849 96.3622C100.012 96.1347 100.088 96.0588 100.088 95.983C100.164 95.7555 100.164 95.6038 100.24 95.4521L100.012 95.1487V95.6796L99.7849 96.1347C99.6332 96.2864 99.4815 96.4381 99.254 96.5139H99.1782L98.6472 96.5898ZM101.15 95.0729H104.487V92.1149H101.15V95.0729Z" fill="#3D6598"/>
<path d="M114.271 91.6598V94.5419C114.271 95.2246 114.044 95.7555 113.513 96.1347C113.361 96.2105 113.285 96.2864 113.134 96.3622C113.058 96.3622 112.906 96.4381 112.678 96.5898C112.299 96.7415 111.996 96.7415 111.768 96.7415H111.313L110.934 96.6656L112.527 98.941L113.134 99.6994L113.968 100.61L114.347 100.989L114.878 101.444L114.044 102.202C113.74 102.051 113.361 101.671 112.754 100.989C111.996 100.079 111.237 99.0927 110.631 98.1067L109.948 97.0448L109.038 95.6038L108.81 95.2246L108.355 94.3903L109.265 93.7076L110.176 95.3004C110.403 95.6796 110.782 95.8313 111.465 95.8313C111.996 95.8313 112.451 95.6796 112.603 95.4521C112.678 95.3004 112.83 95.1487 112.906 94.997L112.982 94.3903V91.584H106.838V90.6738H115.94V91.584H114.271V91.6598Z" fill="#3D6599"/>
<path d="M114.196 102.809L113.968 102.733C113.74 102.658 113.361 102.43 112.527 101.368C111.768 100.382 111.01 99.3962 110.327 98.4102L109.645 97.3484L108.735 95.8315L108.507 95.3764L107.825 94.2387L109.493 93.0252L110.631 94.9972C110.782 95.2247 111.086 95.3764 111.541 95.3764C112.072 95.3764 112.299 95.2247 112.375 95.1489C112.451 95.073 112.527 94.9972 112.603 94.8455L112.679 94.3146V91.9634H106.535V90.1431H116.547V91.9634H114.726V94.3904C114.726 95.1489 114.423 95.8315 113.816 96.3624C113.665 96.5141 113.513 96.5899 113.361 96.6658C113.285 96.6658 113.21 96.7416 112.906 96.8933H112.83C112.451 97.045 112.148 97.045 111.92 97.045L112.982 98.5619L113.589 99.3204L114.347 100.155L114.726 100.61L115.561 101.368L114.196 102.809ZM108.962 94.6179L109.266 95.073L109.493 95.5281L110.403 96.9692L111.086 97.9551C111.693 98.9411 112.451 99.8513 113.21 100.837C113.665 101.368 113.892 101.596 114.12 101.747L114.347 101.52L114.196 101.368L113.816 100.913L112.982 100.079L112.299 99.2445L109.948 95.9073L110.176 95.9832C110.024 95.9073 109.948 95.7556 109.872 95.6039L109.19 94.4663L108.962 94.6179ZM107.369 91.2049H113.513V94.5421L113.361 95.2247C113.285 95.4522 113.134 95.6798 112.982 95.8315C112.83 95.9832 112.603 96.1349 112.299 96.2107C112.375 96.2107 112.451 96.2107 112.527 96.1349C112.754 96.059 112.83 95.9832 112.906 95.9832C112.982 95.9073 113.134 95.9073 113.21 95.7556C113.589 95.4522 113.816 94.9972 113.816 94.4663V91.1291H115.637V91.0532L107.369 91.2049Z" fill="#3D6598"/>
<path d="M123.373 91.66V94.9972L123.828 94.618L124.055 94.3904L124.586 94.0871C124.738 94.0112 124.89 93.9354 125.117 93.8595L125.345 93.7837H125.572C126.482 93.7837 127.241 94.0871 127.772 94.618C128.303 95.1489 128.606 95.8315 128.606 96.6658C128.606 97.5001 128.227 98.4102 127.468 99.3962L127.013 100.003L126.331 100.761L125.345 100.003C125.496 100.003 125.572 99.9272 125.724 99.7755L126.406 98.9412C127.089 98.1069 127.392 97.3484 127.392 96.59C127.392 95.9832 127.241 95.5281 127.013 95.3006C126.862 95.1489 126.71 94.9972 126.406 94.8455C126.179 94.7697 125.951 94.6938 125.648 94.6938C125.041 94.6938 124.434 94.9972 123.979 95.6798C123.524 96.2107 123.297 96.8175 123.297 97.4243V102.203H122.159V98.8653C121.628 99.3962 120.946 99.6996 120.111 99.6996C118.67 99.6996 117.684 99.0929 117.153 97.8035C117.002 97.4243 116.926 97.045 116.926 96.59C116.926 96.1349 117.002 95.6798 117.153 95.3006C117.457 94.618 117.988 94.0871 118.822 93.7837C119.201 93.632 119.58 93.5561 120.035 93.5561L120.642 93.632L121.249 93.7837V94.6938L121.021 94.618L120.946 94.5421L120.794 94.4663C120.718 94.4663 120.642 94.4663 120.642 94.3904H120.339H120.187C119.884 94.3904 119.58 94.4663 119.353 94.5421C118.898 94.6938 118.594 95.1489 118.291 95.7557L118.139 96.2866V96.6658C118.139 97.6518 118.519 98.3344 119.277 98.6378C119.505 98.7136 119.808 98.7895 120.035 98.7895C120.49 98.7895 120.946 98.6378 121.401 98.2586C121.856 97.8793 122.083 97.5001 122.159 97.1209V91.5842H115.333V90.674H129.744V91.5842H123.373V91.66Z" fill="#3D6599"/>
<path d="M123.828 102.733H121.78V99.8512C121.325 100.079 120.794 100.23 120.188 100.23C118.595 100.23 117.457 99.5478 116.85 98.1068C116.623 97.7276 116.547 97.1966 116.547 96.6657C116.547 96.1348 116.623 95.6039 116.85 95.2247C117.23 94.3904 117.836 93.7836 118.747 93.4802C119.126 93.3285 119.581 93.2527 120.112 93.2527H120.188L120.87 93.3285L121.78 93.6319V95.528L120.719 95.073C120.643 95.073 120.643 95.073 120.567 95.073H120.339C120.112 95.073 119.884 95.1488 119.733 95.2247H119.657C119.353 95.3763 119.126 95.6797 118.898 96.2106L118.822 96.5899V96.8933C118.822 97.9551 119.277 98.3343 119.657 98.486C120.188 98.7135 120.794 98.6377 121.325 98.1826C121.629 97.8792 121.856 97.5759 121.932 97.2725V92.1908H115.106V90.3705H130.199V92.1908H123.752V94.087L124.283 93.7836C124.435 93.7077 124.662 93.6319 124.89 93.5561L125.193 93.4802H125.497C126.559 93.4802 127.393 93.7836 128.076 94.4662C128.682 95.1488 129.062 95.9073 129.062 96.8174C129.062 97.7276 128.606 98.7894 127.848 99.8512L127.393 100.458L126.407 101.52L124.359 100.003L125.269 99.7754C125.269 99.7754 125.345 99.7754 125.421 99.6995L126.104 98.8652C126.71 98.1068 127.014 97.4242 127.014 96.8174C127.014 96.3623 126.938 95.9831 126.71 95.8314C126.634 95.7556 126.483 95.6039 126.255 95.528C126.104 95.4522 125.952 95.4522 125.724 95.4522C125.269 95.4522 124.814 95.6797 124.359 96.2865C123.98 96.7416 123.828 97.2725 123.828 97.7276V102.733ZM122.615 101.823H122.918V97.5C122.918 96.8174 123.146 96.1348 123.676 95.528C124.283 94.7696 124.966 94.3904 125.724 94.3904C126.028 94.3904 126.407 94.4662 126.634 94.542H126.71C127.014 94.6937 127.241 94.8454 127.393 95.073C127.772 95.4522 127.924 95.9831 127.924 96.6657C127.924 97.5 127.545 98.3343 126.786 99.2445L126.104 100.079L126.255 100.23L126.634 99.7754L127.09 99.1686C127.772 98.2585 128.151 97.4242 128.151 96.7416C128.151 96.059 127.924 95.528 127.469 94.9971C127.014 94.542 126.407 94.3145 125.573 94.3145L125.118 94.3904C124.966 94.3904 124.89 94.4662 124.738 94.542L124.283 94.7696L122.918 95.9831V91.2048H129.365V91.129H115.864V91.2048H122.69V97.2725C122.615 97.8034 122.311 98.2585 121.78 98.7135C121.477 98.9411 121.174 99.1686 120.794 99.2445C121.249 99.1686 121.629 98.9411 121.932 98.6377L122.69 97.8034V101.823H122.615ZM119.96 94.087C119.581 94.087 119.277 94.1628 118.974 94.3145C118.291 94.6179 117.836 94.9971 117.533 95.6039C117.381 95.9073 117.305 96.2865 117.305 96.6657C117.305 97.0449 117.381 97.4242 117.533 97.7276C117.912 98.5619 118.519 99.0928 119.353 99.2445C119.277 99.2445 119.202 99.1686 119.126 99.1686C118.519 98.8652 117.761 98.2585 117.761 96.8174V96.3623L117.912 95.8314C118.216 95.073 118.671 94.542 119.202 94.3904C119.429 94.2387 119.733 94.1628 120.112 94.1628L119.96 94.087Z" fill="#3D6598"/>
<path d="M132.398 91.6599V102.278H131.26V91.6599H129.137V90.7498H134.598V91.6599H132.398Z" fill="#3D6599"/>
<path d="M132.854 102.733H130.806V92.115H128.682V90.2947H135.053V92.115H132.854V102.733ZM131.716 101.823H132.019V91.2049H134.219V91.129H129.592V91.2049H131.716V101.823Z" fill="#3D6598"/>
<path d="M140.741 91.6598V94.5419C140.741 95.2246 140.514 95.7555 139.983 96.1347C139.831 96.2105 139.755 96.2864 139.603 96.3622C139.528 96.3622 139.376 96.4381 139.148 96.5898C138.769 96.7415 138.466 96.7415 138.238 96.7415H137.783L137.404 96.6656L138.997 98.941L139.603 99.6994L140.438 100.61L140.741 100.989L141.272 101.444L140.438 102.202C140.134 102.051 139.755 101.671 139.148 100.989C138.39 100.079 137.631 99.0927 137.025 98.1067L136.342 97.0448L135.432 95.6038L135.204 95.2246L134.749 94.3903L135.659 93.7076L136.57 95.3004C136.797 95.6796 137.176 95.8313 137.859 95.8313C138.39 95.8313 138.845 95.6796 138.997 95.4521C139.073 95.3004 139.224 95.1487 139.3 94.997L139.376 94.3903V91.584H133.232V90.6738H142.334V91.584H140.741V91.6598Z" fill="#3D6599"/>
<path d="M140.666 102.809L140.438 102.733C140.059 102.582 139.604 102.202 138.997 101.368C138.239 100.458 137.48 99.4721 136.798 98.4102L136.115 97.3484L135.205 95.8315L134.977 95.3764L134.295 94.2387L135.963 93.0252L137.101 94.9972C137.253 95.2247 137.556 95.3764 138.011 95.3764C138.39 95.3764 138.694 95.3006 138.845 95.1489C138.921 95.073 138.997 94.9972 139.073 94.8455L139.149 94.3146V91.9634H133.005V90.1431H143.017V91.9634H141.197V94.3904C141.197 95.1489 140.893 95.8315 140.287 96.3624C140.135 96.5141 139.983 96.5899 139.831 96.6658C139.831 96.6658 139.68 96.7416 139.376 96.8933H139.301C138.921 97.045 138.618 97.045 138.39 97.045L139.452 98.5619L140.059 99.3204L140.817 100.155L141.197 100.61L142.031 101.368L140.666 102.809ZM135.508 94.6179L135.963 95.5281L136.873 96.9692L137.556 97.9551C138.163 98.9411 138.921 99.8513 139.68 100.837C140.135 101.368 140.362 101.596 140.59 101.747L140.817 101.52L140.666 101.368L140.287 100.913L139.452 100.079L138.77 99.2445L136.418 95.9073L136.646 95.9832C136.494 95.9073 136.418 95.7556 136.343 95.6039L135.66 94.4663L135.508 94.6179ZM133.84 91.2049H139.983V94.5421L139.831 95.2247C139.756 95.4522 139.604 95.6798 139.452 95.8315C139.301 95.9832 139.073 96.1349 138.77 96.2107C138.845 96.2107 138.921 96.2107 138.997 96.1349C139.225 96.059 139.301 95.9832 139.376 95.9832C139.528 95.9073 139.604 95.8315 139.68 95.7556C140.059 95.4522 140.287 94.9972 140.287 94.4663V91.1291H142.107V91.0532L133.84 91.2049Z" fill="#3D6598"/>
</svg>
