<svg width="237" height="122" viewBox="0 0 237 122" fill="none" xmlns="http://www.w3.org/2000/svg">
<rect width="236.138" height="121.847" rx="5" fill="white"/>
<path d="M88.0309 61.1401C87.4679 61.7543 86.905 62.3787 86.3113 62.9723C85.9633 63.3306 85.605 63.6786 85.2877 63.9959C84.9704 64.3132 84.4484 64.784 84.0287 65.1628C83.2815 65.8383 82.5139 66.4934 81.7155 67.1075L80.8045 67.8036C80.152 68.4775 79.4278 69.0782 78.6448 69.5948C76.9528 70.6788 75.1642 71.6039 73.3018 72.3584L73.7419 72.6143C81.7462 76.3606 89.515 69.9838 89.515 61.6826C89.515 60.9525 89.4843 60.236 89.4229 59.5331C88.9972 60.1008 88.532 60.6378 88.0309 61.1401Z" fill="#1F80C3"/>
<path d="M62.503 88.4078C68.6629 88.5424 74.638 86.2991 79.1871 82.1436C79.2913 82.0561 79.3738 81.9456 79.4281 81.8209C79.4824 81.6961 79.507 81.5605 79.5001 81.4246C79.4931 81.2888 79.4548 81.1563 79.3881 81.0378C79.3213 80.9192 79.228 80.8177 79.1155 80.7413L74.3866 76.3912C74.1955 76.2545 73.9665 76.181 73.7315 76.181C73.4966 76.181 73.2675 76.2545 73.0764 76.3912C71.6836 77.5087 70.1653 78.4602 68.5523 79.2264C64.7858 80.7132 60.6133 80.8111 56.7812 79.5028L57.334 87.8346C59.0345 88.1916 60.7656 88.3835 62.503 88.4078Z" fill="#1F80C3"/>
<path d="M130.12 46.4623C127.751 46.4623 125.435 47.1649 123.466 48.4813C121.496 49.7976 119.961 51.6686 119.055 53.8575C118.149 56.0463 117.912 58.4548 118.375 60.7781C118.838 63.1015 119.98 65.2353 121.656 66.9097C123.332 68.5842 125.466 69.7239 127.79 70.1849C130.114 70.6458 132.522 70.4072 134.71 69.4992C136.898 68.5912 138.768 67.0547 140.083 65.0839C141.397 63.1132 142.098 60.7968 142.096 58.4278C142.096 56.8556 141.786 55.2988 141.184 53.8464C140.582 52.394 139.7 51.0745 138.588 49.9633C137.476 48.852 136.155 47.9709 134.702 47.3702C133.249 46.7694 131.692 46.4609 130.12 46.4623ZM130.12 63.9857C129.027 63.9857 127.958 63.6608 127.05 63.0523C126.142 62.4438 125.435 61.5791 125.018 60.568C124.602 59.5569 124.496 58.445 124.713 57.3734C124.93 56.3019 125.461 55.3189 126.238 54.5495C127.014 53.78 128.002 53.2586 129.076 53.0515C130.149 52.8445 131.26 52.9611 132.267 53.3865C133.274 53.8119 134.132 54.527 134.732 55.441C135.333 56.355 135.647 57.4266 135.637 58.5199C135.626 59.9751 135.04 61.3668 134.006 62.391C132.973 63.4151 131.575 63.9885 130.12 63.9857Z" fill="#1F80C3"/>
<path d="M165.013 69.6359C164.096 69.6829 163.185 69.4539 162.399 68.9784C161.613 68.5028 160.988 67.8026 160.603 66.968C160.219 66.1335 160.094 65.203 160.244 64.2965C160.394 63.3901 160.812 62.5493 161.444 61.8829C162.076 61.2164 162.894 60.7547 163.791 60.5574C164.689 60.3602 165.624 60.4364 166.478 60.7762C167.332 61.1161 168.064 61.704 168.58 62.464C169.096 63.224 169.373 64.1213 169.374 65.04C169.404 66.2274 168.962 67.3783 168.144 68.24C167.327 69.1017 166.201 69.6037 165.013 69.6359Z" fill="#F4AE1C"/>
<path d="M157.142 47.5984L152.547 62L147.961 47.5984H140.837L148.985 68.9602H156.109H156.119L164.266 47.5984H157.142Z" fill="#1F80C3"/>
<path d="M178.964 47.2605H172.188V68.6223H178.964V47.2605Z" fill="#1F80C3"/>
<path d="M116.312 47.2606H109.874L110.099 48.7243C108.41 47.6065 106.423 47.025 104.398 47.0559C101.346 47.1461 98.4486 48.422 96.3214 50.6129C94.1942 52.8039 93.0044 55.7374 93.0044 58.7911C93.0044 61.8448 94.1942 64.7784 96.3214 66.9693C98.4486 69.1602 101.346 70.4361 104.398 70.5263C106.284 70.5293 108.143 70.0726 109.813 69.1957V70.4035C109.813 73.2285 108.267 75.7158 104.797 75.767H104.245C103.411 75.7382 102.585 75.6005 101.788 75.3575C101.972 77.6094 101.982 79.4518 101.993 81.7548C102.872 82.0895 103.805 82.2595 104.746 82.2564C111.604 82.2564 116.251 76.7496 116.251 70.3216V67.0257C116.251 67.0257 116.251 67.0974 116.312 67.1281V47.2606ZM104.398 64.129C103.351 64.1209 102.329 63.8028 101.463 63.2149C100.596 62.6269 99.9227 61.7955 99.5279 60.8254C99.1332 59.8553 99.0346 58.79 99.2446 57.7639C99.4547 56.7379 99.9639 55.797 100.708 55.06C101.452 54.323 102.398 53.8228 103.426 53.6227C104.454 53.4226 105.518 53.5314 106.484 53.9355C107.451 54.3395 108.276 55.0207 108.855 55.893C109.435 56.7654 109.743 57.7898 109.741 58.8372C109.74 59.536 109.6 60.2278 109.331 60.8725C109.061 61.5173 108.667 62.1024 108.17 62.5942C107.674 63.086 107.085 63.4748 106.437 63.7382C105.79 64.0016 105.097 64.1344 104.398 64.129Z" fill="#1F80C3"/>
<path d="M195.075 46.4826C193.946 46.4634 192.825 46.6896 191.792 47.1455C190.758 47.6014 189.835 48.2763 189.088 49.1234L188.934 49.2053L189.088 47.2605H182.312V68.6223H189.088V58.5197C189.088 55.6128 191.135 52.9208 194.042 52.9208C196.949 52.9208 198.627 55.6128 198.648 58.5197V68.5814H205.434V58.5197C205.434 51.0681 202.885 46.4826 195.075 46.4826Z" fill="#1F80C3"/>
<path d="M63.2402 67.394C63.3882 67.3899 63.5354 67.3727 63.6804 67.3428L63.2505 67.394" fill="#2F5690"/>
<path d="M64.97 47.0457C64.97 47.2724 64.9028 47.4941 64.7768 47.6826C64.6509 47.8711 64.4718 48.018 64.2623 48.1048C64.0529 48.1916 63.8224 48.2143 63.6 48.1701C63.3776 48.1258 63.1733 48.0166 63.013 47.8563C62.8527 47.696 62.7435 47.4917 62.6993 47.2693C62.655 47.047 62.6777 46.8165 62.7645 46.607C62.8513 46.3975 62.9982 46.2185 63.1867 46.0925C63.3753 45.9665 63.5969 45.8993 63.8236 45.8993C63.9742 45.8993 64.1233 45.9289 64.2623 45.9866C64.4014 46.0442 64.5278 46.1286 64.6343 46.2351C64.7407 46.3415 64.8252 46.4679 64.8828 46.607C64.9404 46.7461 64.97 46.8951 64.97 47.0457Z" fill="#F4AE1C"/>
<path d="M67.6931 35.4383C67.0275 35.2466 66.3387 35.1467 65.646 35.1415C66.3318 35.2131 67.0073 35.3155 67.6931 35.4383Z" fill="#F7EC33"/>
<path d="M88.9626 65.317C88.9626 65.317 88.9626 65.317 88.9626 65.2549C88.9626 65.2549 88.9523 65.286 88.9626 65.317Z" fill="#1F80C3"/>
<path d="M84.3773 63.1975C86.1946 60.7275 87.63 57.9982 88.6353 55.1011C88.6353 55.0192 88.6353 54.9476 88.5841 54.8657C88.5329 54.7838 88.5841 54.8657 88.5841 54.8043C88.4204 54.1799 88.2259 53.5555 88.0109 52.9414C88.0065 52.9212 88.0065 52.9002 88.0109 52.88C87.7994 52.2727 87.564 51.679 87.3047 51.099C87.3047 51.099 87.3047 51.099 87.3047 51.0478V50.9761C87.0488 50.403 86.7724 49.84 86.4858 49.2873C86.3118 48.9495 86.1173 48.6219 85.9331 48.2637C85.8717 48.1613 85.8103 48.0692 85.7591 47.9669L85.1756 47.2606L84.9607 46.9433C84.8174 46.7181 84.6536 46.5032 84.5001 46.278L84.3056 46.0016C84.0907 45.6945 83.8552 45.3977 83.6198 45.1009C83.2206 44.5993 82.801 44.0773 82.3711 43.6474L82.2482 43.5143C81.9821 43.2278 81.7058 42.9616 81.4294 42.6853L80.979 42.2451C80.979 42.327 81.0711 42.4191 81.1121 42.5215C81.1121 42.4191 81.02 42.327 80.979 42.2451C77.9956 39.4404 74.407 37.3597 70.4908 36.1638C66.5745 34.9679 62.4357 34.689 58.3944 35.3486C54.3532 36.0083 50.5178 37.5887 47.1851 39.9678C43.8523 42.3468 41.1116 45.4607 39.1748 49.0684C37.238 52.6762 36.1572 56.6811 36.0159 60.7734C35.8746 64.8657 36.6766 68.9357 38.3599 72.6685C40.0432 76.4012 42.5627 79.6967 45.7234 82.2999C48.8841 84.9032 52.6013 86.7444 56.5874 87.6812C56.2599 85.7876 55.2875 81.3454 49.1563 74.7843L49.3611 74.9685C45.9719 71.5648 44.0096 66.9959 43.8747 62.1944C43.7212 56.2475 46.1778 49.5124 51.4491 46.237C57.1197 42.7262 65.861 42.5727 67.8774 50.2494C67.1405 49.8318 66.3478 49.5216 65.5232 49.3282C62.3917 48.6362 59.1153 49.1131 56.3111 50.6691C53.9684 52.0841 52.1393 54.2108 51.0909 56.7388C50.9453 57.0958 50.8222 57.4616 50.7224 57.834C50.4099 58.9519 50.2313 60.103 50.1901 61.263C50.0059 66.9847 54.1104 72.0719 59.4022 73.8631C61.4508 74.3376 63.5587 74.5032 65.6562 74.3544C68.1317 74.0253 70.5456 73.3356 72.8212 72.3073C72.8212 72.2356 72.8826 72.1947 73.0157 72.2254C75.2502 71.3045 77.3837 70.1554 79.3823 68.7964C81.3048 67.1769 82.9867 65.2916 84.3773 63.1975ZM62.4729 67.3839C61.4 67.2643 60.3829 66.8435 59.539 66.1703C58.695 65.497 58.0588 64.5988 57.7037 63.5793C57.3487 62.5598 57.2893 61.4606 57.5324 60.4088C57.7755 59.357 58.3113 58.3954 59.0777 57.6352C59.8442 56.8749 60.8101 56.347 61.8639 56.1124C62.9176 55.8778 64.0162 55.9462 65.0328 56.3095C66.0494 56.6728 66.9425 57.3163 67.6088 58.1657C68.2752 59.0151 68.6876 60.0356 68.7986 61.1095C68.8864 61.9595 68.7827 62.8184 68.4951 63.6231C68.2075 64.4278 67.7433 65.1579 67.1366 65.7597C66.5298 66.3615 65.796 66.8198 64.989 67.1009C64.182 67.3819 63.3222 67.4786 62.4729 67.3839ZM75.4108 63.7707C75.4108 58.7757 76.2809 53.0745 73.4763 47.8747C72.7495 46.5236 71.5213 44.4356 70.1497 43.6372C71.324 44.1667 72.4448 44.8077 73.4968 45.5512C78.5225 49.3077 81.3782 54.4256 81.3782 60.567C81.3782 65.4801 78.7272 66.4013 77.8776 66.4013C76.6391 66.4115 75.4108 66.0738 75.4108 63.7707Z" fill="#1F80C3"/>
<path d="M72.9848 72.2663C75.2193 71.3454 77.3528 70.1963 79.3514 68.8374C81.2878 67.2075 82.9802 65.3082 84.3771 63.1975C86.1945 60.7275 87.6299 57.9982 88.6352 55.1011C88.6352 55.0192 88.6352 54.9476 88.584 54.8657C88.5328 54.7838 88.584 54.8657 88.584 54.8043C88.4202 54.1799 88.2257 53.5555 88.0108 52.9414C88.0063 52.9212 88.0063 52.9002 88.0108 52.88C87.7992 52.2727 87.5638 51.679 87.3045 51.099C87.3045 51.099 87.3045 51.099 87.3045 51.0478V50.9761C87.0486 50.4029 86.7723 49.84 86.4857 49.2873C86.3117 48.9495 86.1172 48.6219 85.9329 48.2637C85.8715 48.1613 85.8101 48.0692 85.7589 47.9669L85.1755 47.2606L84.9605 46.9433C84.8172 46.7181 84.6535 46.5032 84.4999 46.278L84.3055 46.0016C84.0905 45.6945 83.8551 45.3977 83.6197 45.1009C83.2205 44.5993 82.8008 44.0773 82.3709 43.6474L82.2481 43.5143C81.982 43.2277 81.7056 42.9616 81.4292 42.6853L80.9789 42.2451C81.3098 42.9453 81.5936 43.6668 81.8284 44.4048C81.8509 44.4849 81.8783 44.5635 81.9103 44.6403C82.3318 45.6703 82.674 46.7311 82.9339 47.8133C83.4118 49.9832 83.6079 52.2056 83.5173 54.4256C83.1898 61.6622 81.8182 67.0871 75.5949 69.7791C71.081 71.7238 61.265 70.7105 56.4849 66.9642C54.4378 65.3777 51.2545 61.4575 50.6915 57.8238C50.3791 58.9417 50.2004 60.0927 50.1593 61.2527C49.975 66.9745 54.0795 72.0616 59.3714 73.8528C61.4199 74.3274 63.5279 74.493 65.6254 74.3442C68.1008 74.015 70.5147 73.3254 72.7903 72.297C72.7974 72.2646 72.8155 72.2357 72.8415 72.2151" fill="#F4AE1C"/>
<path d="M55.6349 79.0935C54.4671 78.6393 53.349 78.0665 52.2981 77.3841C51.2371 76.6796 50.2495 75.8704 49.3502 74.9685L49.1455 74.7842C55.2869 81.3453 56.2491 85.7876 56.5766 87.6812L57.3238 87.8449L56.7711 79.5131C56.3924 79.3903 56.0136 79.247 55.6349 79.0935Z" fill="#F4AE1C"/>
<path d="M50.6299 57.3842C50.6506 57.322 50.6506 57.3324 50.6299 57.3842V57.3842Z" fill="#F4AE1C"/>
<path d="M89.27 59.7071L89.1369 59.8709C88.9424 60.1166 88.707 60.3929 88.4307 60.7102L88.2874 60.874L88.2055 60.9661L88.0622 61.1299L87.9598 61.2425L87.8165 61.396L87.6937 61.5393C87.6485 61.5896 87.6007 61.6375 87.5504 61.6826C87.5504 61.7338 87.4583 61.7952 87.4071 61.8362L87.274 61.9897C87.2143 62.0426 87.1595 62.1009 87.1103 62.1637C87.0607 62.2064 87.0161 62.2544 86.9772 62.307C86.9055 62.3684 86.8441 62.4401 86.7725 62.5117L86.6701 62.6243L86.3426 62.9621C86.23 63.0644 86.1276 63.177 86.015 63.2896L85.9024 63.392C85.8282 63.4781 85.746 63.5569 85.6568 63.6274L85.534 63.7605L85.2985 63.9856L85.1757 64.1494L84.9301 64.3746L84.7868 64.5077C84.7098 64.588 84.6278 64.6632 84.5411 64.7329C84.4984 64.7824 84.4504 64.827 84.3978 64.8659L84.1419 65.1116L83.9986 65.2344L83.7018 65.5005L83.5994 65.5926L82.7499 66.3194L82.627 66.4217L82.32 66.6674L82.1562 66.8005L81.8798 67.0256L81.7058 67.1587L81.4397 67.3737C81.3707 67.4156 81.3057 67.4635 81.2452 67.517L80.9791 67.7114L80.7948 67.8547L80.5082 68.0594L80.3342 68.1925L80.0169 68.4075L79.8634 68.5098L79.4028 68.8374C77.4042 70.1963 75.2707 71.3454 73.0362 72.2663L72.8417 72.3482C70.5661 73.3765 68.1522 74.0662 65.6768 74.3953C63.5608 74.5393 61.4351 74.3633 59.3716 73.8733C59.0013 73.7818 58.6386 73.662 58.2866 73.5151C63.4045 75.9204 70.1293 74.7126 74.2952 72.8907L74.6637 72.7269C78.2462 71.2223 82.4018 69.2775 87.0284 69.2365C88.6291 67.052 89.4866 64.4114 89.4747 61.7031C89.4747 60.9866 89.4747 60.2701 89.3826 59.5638L89.27 59.7071Z" fill="#8FC641"/>
<path d="M87.5189 61.7032C87.5189 61.7544 87.4268 61.8158 87.3756 61.8567C87.3244 61.8977 87.4677 61.7544 87.5189 61.7032Z" fill="#EEE6D8"/>
<path d="M86.9458 62.3275C86.8741 62.3889 86.8127 62.4606 86.7411 62.5322C86.6694 62.6039 86.8741 62.3889 86.9458 62.3275Z" fill="#EEE6D8"/>
<path d="M86.3012 62.9927C86.1886 63.095 86.0862 63.2076 85.9736 63.3202C86.0862 63.2076 86.1988 63.095 86.3012 62.9927Z" fill="#EEE6D8"/>
<path d="M88.8191 55.8278L88.6042 54.9475C87.1405 59.8197 83.5682 64.8249 79.3921 68.8373L81.081 67.2303L79.3818 68.8373L80.7944 67.8137L81.7053 67.1177C82.5037 66.5036 83.2714 65.8485 84.0186 65.1729C84.4383 64.7942 84.8681 64.4053 85.2776 64.0061C85.687 63.6069 85.9941 63.31 86.3011 62.9825C86.8948 62.3888 87.4578 61.7645 88.0207 61.1503C88.5113 60.647 88.9662 60.11 89.3821 59.5433C89.284 58.2929 89.0959 57.0511 88.8191 55.8278Z" fill="#EEE6D8"/>
<path d="M66.0142 88.2033L66.7307 88.1009C66.1473 86.6167 63.9262 81.0588 63.66 80.373C61.5904 80.5106 59.5126 80.289 57.5186 79.7179C57.3651 79.7179 57.6005 79.7179 57.5186 79.7179C63.1892 81.9493 65.308 86.934 66.0142 88.2033Z" fill="#F4AE1C"/>
<path d="M66.0244 42.3783L65.2158 45.8789C65.3799 46.0142 65.537 46.1577 65.6867 46.3088L69.5455 43.494C68.4185 42.9882 67.237 42.6139 66.0244 42.3783Z" fill="#F4AE1C"/>
</svg>
