<svg width="237" height="122" viewBox="0 0 237 122" fill="none" xmlns="http://www.w3.org/2000/svg">
<rect width="236.138" height="121.847" rx="5" fill="white"/>
<path d="M27.7542 40.349C27.7542 40.8151 27.6622 41.2506 27.4781 41.6554C27.3064 42.0602 27.0671 42.416 26.7604 42.7227C26.4537 43.0171 26.0917 43.2563 25.6746 43.4403C25.2697 43.6121 24.8342 43.6979 24.3679 43.6979C23.9017 43.6979 23.46 43.6121 23.0428 43.4403C22.6379 43.2563 22.2821 43.0171 21.9754 42.7227C21.681 42.416 21.4417 42.0602 21.2577 41.6554C21.0859 41.2506 21 40.8151 21 40.349C21 39.8951 21.0859 39.4657 21.2577 39.0609C21.4417 38.6438 21.681 38.2881 21.9754 37.9937C22.2821 37.687 22.6379 37.4478 23.0428 37.276C23.46 37.092 23.9017 37 24.3679 37C24.8342 37 25.2697 37.092 25.6746 37.276C26.0917 37.4478 26.4537 37.687 26.7604 37.9937C27.0671 38.2881 27.3064 38.6438 27.4781 39.0609C27.6622 39.4657 27.7542 39.8951 27.7542 40.349ZM26.8892 65.4109H21.8282V45.7036H26.8892V65.4109Z" fill="#031862"/>
<path d="M35.7596 65.4109H30.7354V45.7035H31.95L33.6063 47.6172C34.4161 46.8812 35.3302 46.3169 36.3485 45.9244C37.3791 45.5195 38.4527 45.3171 39.5692 45.3171C40.7715 45.3171 41.9064 45.5502 42.9739 46.0164C44.0413 46.4702 44.9737 47.102 45.7712 47.9117C46.5687 48.709 47.1945 49.6474 47.6484 50.727C48.1146 51.7942 48.3478 52.9351 48.3478 54.1496V65.4109H43.3235V54.1496C43.3235 53.6343 43.2254 53.1498 43.029 52.6959C42.8327 52.2297 42.5628 51.8249 42.2193 51.4814C41.8757 51.1379 41.477 50.868 41.023 50.6718C40.5691 50.4755 40.0845 50.3774 39.5692 50.3774C39.0416 50.3774 38.5447 50.4755 38.0785 50.6718C37.6122 50.868 37.2074 51.1379 36.8638 51.4814C36.5203 51.8249 36.2503 52.2297 36.0541 52.6959C35.8577 53.1498 35.7596 53.6343 35.7596 54.1496V65.4109Z" fill="#031862"/>
<path d="M70.9845 65.4111H69.77L67.8191 62.7062C67.3408 63.1355 66.8319 63.5403 66.2918 63.9206C65.7641 64.2886 65.2062 64.6137 64.6172 64.8959C64.0282 65.1658 63.4209 65.3804 62.7953 65.5399C62.1816 65.6994 61.556 65.7791 60.9181 65.7791C59.5316 65.7791 58.2246 65.5215 56.9977 65.0062C55.7833 64.4788 54.7159 63.755 53.7956 62.835C52.8877 61.9027 52.17 60.8048 51.6424 59.5412C51.1148 58.2654 50.8511 56.8792 50.8511 55.3826C50.8511 53.8983 51.1148 52.5182 51.6424 51.2424C52.17 49.9666 52.8877 48.8626 53.7956 47.9303C54.7159 46.9979 55.7833 46.2681 56.9977 45.7406C58.2246 45.2131 59.5316 44.9493 60.9181 44.9493C61.3594 44.9493 61.8135 44.9861 62.2799 45.0597C62.7583 45.1333 63.2183 45.256 63.6601 45.4277C64.1142 45.5872 64.5371 45.8019 64.93 46.0718C65.3223 46.3416 65.6539 46.6729 65.9237 47.0654V37.865H70.9845V65.4111ZM65.9237 55.3826C65.9237 54.6956 65.7888 54.0332 65.519 53.3953C65.261 52.7452 64.9053 52.1747 64.4516 51.6841C63.9975 51.1811 63.4639 50.7824 62.8502 50.488C62.2493 50.1813 61.605 50.0279 60.9181 50.0279C60.2308 50.0279 59.5805 50.1506 58.9673 50.396C58.3659 50.6413 57.8382 50.9971 57.3846 51.4632C56.9429 51.9171 56.593 52.4753 56.3354 53.1377C56.0777 53.8001 55.9489 54.5484 55.9489 55.3826C55.9489 56.1064 56.0777 56.7934 56.3354 57.4435C56.593 58.0937 56.9429 58.6641 57.3846 59.1548C57.8382 59.6455 58.3659 60.0319 58.9673 60.314C59.5805 60.5962 60.2308 60.7373 60.9181 60.7373C61.605 60.7373 62.2493 60.5901 62.8502 60.2957C63.4639 59.989 63.9975 59.5903 64.4516 59.0996C64.9053 58.5966 65.261 58.0262 65.519 57.3883C65.7888 56.7381 65.9237 56.0696 65.9237 55.3826Z" fill="#031862"/>
<path d="M80.7567 40.349C80.7567 40.8151 80.6648 41.2506 80.481 41.6554C80.309 42.0602 80.0699 42.416 79.763 42.7227C79.4561 43.0171 79.0944 43.2563 78.6774 43.4403C78.2722 43.6121 77.8369 43.6979 77.3704 43.6979C76.9045 43.6979 76.4627 43.6121 76.0457 43.4403C75.6405 43.2563 75.2847 43.0171 74.9783 42.7227C74.6838 42.416 74.4442 42.0602 74.2604 41.6554C74.0884 41.2506 74.0029 40.8151 74.0029 40.349C74.0029 39.8951 74.0884 39.4657 74.2604 39.0609C74.4442 38.6438 74.6838 38.2881 74.9783 37.9937C75.2847 37.687 75.6405 37.4478 76.0457 37.276C76.4627 37.092 76.9045 37 77.3704 37C77.8369 37 78.2722 37.092 78.6774 37.276C79.0944 37.4478 79.4561 37.687 79.763 37.9937C80.0699 38.2881 80.309 38.6438 80.481 39.0609C80.6648 39.4657 80.7567 39.8951 80.7567 40.349ZM79.892 65.4109H74.8311V45.7036H79.892V65.4109Z" fill="#031862"/>
<path d="M102.823 65.411H101.609L99.6579 62.7061C99.1791 63.1354 98.6701 63.5402 98.13 63.9205C97.6028 64.2885 97.0444 64.6136 96.4554 64.8958C95.8664 65.1656 95.2591 65.3803 94.6336 65.5398C94.0198 65.6993 93.3943 65.779 92.7564 65.779C91.3698 65.779 90.0634 65.5459 88.8364 65.0798C87.6219 64.6136 86.5545 63.9389 85.634 63.0557C84.7263 62.1601 84.0083 61.0684 83.4811 59.7803C82.9533 58.4923 82.6895 57.0263 82.6895 55.3825C82.6895 53.8491 82.9533 52.4445 83.4811 51.1687C84.0083 49.8806 84.7263 48.7766 85.634 47.8565C86.5545 46.9365 87.6219 46.225 88.8364 45.722C90.0634 45.2068 91.3698 44.9492 92.7564 44.9492C93.3943 44.9492 94.0263 45.029 94.6518 45.1884C95.2779 45.3479 95.8852 45.5687 96.4737 45.8509C97.0627 46.133 97.6211 46.4642 98.1488 46.8445C98.6884 47.2248 99.1914 47.6358 99.6579 48.0774L101.609 45.7405H102.823V65.411ZM97.7624 55.3825C97.7624 54.6955 97.627 54.0331 97.3572 53.3952C97.0998 52.7451 96.744 52.1746 96.2899 51.684C95.8358 51.181 95.3021 50.7823 94.6889 50.4879C94.0875 50.1812 93.4432 50.0278 92.7564 50.0278C92.0695 50.0278 91.4192 50.1444 90.8055 50.3775C90.2042 50.6106 89.6769 50.954 89.2228 51.4079C88.7811 51.8618 88.4312 52.4261 88.1738 53.1008C87.9164 53.7633 87.7874 54.5238 87.7874 55.3825C87.7874 56.2412 87.9164 57.0079 88.1738 57.6826C88.4312 58.345 88.7811 58.9032 89.2228 59.3571C89.6769 59.811 90.2042 60.1545 90.8055 60.3876C91.4192 60.6206 92.0695 60.7372 92.7564 60.7372C93.4432 60.7372 94.0875 60.59 94.6889 60.2956C95.3021 59.9888 95.8358 59.5902 96.2899 59.0995C96.744 58.5965 97.0998 58.0261 97.3572 57.3882C97.627 56.738 97.7624 56.0695 97.7624 55.3825Z" fill="#031862"/>
<path d="M112.853 63.5341C112.853 63.9758 112.773 64.3928 112.614 64.7854C112.454 65.1657 112.233 65.4969 111.951 65.7791C111.669 66.0612 111.338 66.282 110.957 66.4415C110.577 66.6133 110.166 66.6991 109.724 66.6991C109.295 66.6991 108.884 66.6133 108.491 66.4415C108.111 66.282 107.774 66.0612 107.479 65.7791C107.197 65.4969 106.97 65.1657 106.798 64.7854C106.639 64.3928 106.559 63.9758 106.559 63.5341C106.559 63.1048 106.639 62.7 106.798 62.3197C106.97 61.9394 107.197 61.6082 107.479 61.3261C107.774 61.0439 108.111 60.8231 108.491 60.6636C108.884 60.4919 109.295 60.406 109.724 60.406C110.166 60.406 110.577 60.4919 110.957 60.6636C111.338 60.8231 111.669 61.0439 111.951 61.3261C112.233 61.6082 112.454 61.9394 112.614 62.3197C112.773 62.7 112.853 63.1048 112.853 63.5341Z" fill="#031862"/>
<path d="M130.631 55.3825C130.631 54.6955 130.496 54.0331 130.226 53.3952C129.968 52.7451 129.613 52.1746 129.159 51.684C128.704 51.181 128.171 50.7823 127.558 50.4879C126.956 50.1812 126.312 50.0278 125.625 50.0278C124.938 50.0278 124.288 50.1444 123.674 50.3775C123.073 50.6106 122.546 50.954 122.091 51.4079C121.65 51.8618 121.3 52.4261 121.042 53.1008C120.785 53.7633 120.656 54.5238 120.656 55.3825C120.656 56.2044 120.785 56.9466 121.042 57.609C121.3 58.2592 121.65 58.8173 122.091 59.2835C122.546 59.7496 123.073 60.1115 123.674 60.3691C124.288 60.6145 124.938 60.7372 125.625 60.7372C126.312 60.7372 126.956 60.59 127.558 60.2956C128.171 59.9888 128.704 59.5902 129.159 59.0995C129.613 58.5965 129.968 58.0261 130.226 57.3882C130.496 56.738 130.631 56.0695 130.631 55.3825ZM135.692 62.9268C135.692 64.3131 135.428 65.6134 134.901 66.8278C134.373 68.0423 133.649 69.1034 132.729 70.0112C131.821 70.919 130.754 71.6366 129.527 72.1641C128.312 72.6916 127.012 72.9554 125.625 72.9554L123.104 72.9185V67.8951L125.588 67.9319C126.374 67.9319 127.042 67.8276 127.594 67.6191C128.147 67.4228 128.613 67.1468 128.993 66.791C129.373 66.4476 129.674 66.0489 129.895 65.595C130.128 65.1411 130.312 64.6627 130.447 64.1597C130.251 64.4787 129.968 64.7424 129.6 64.9509C129.232 65.1472 128.821 65.3067 128.367 65.4294C127.926 65.5643 127.459 65.6563 126.969 65.7054C126.49 65.7544 126.042 65.779 125.625 65.779C124.238 65.779 122.932 65.5398 121.705 65.0614C120.491 64.583 119.423 63.9021 118.503 63.0188C117.595 62.1233 116.877 61.0316 116.35 59.7435C115.822 58.4555 115.558 57.0018 115.558 55.3825C115.558 53.8982 115.822 52.5181 116.35 51.2423C116.877 49.9665 117.595 48.8625 118.503 47.9302C119.423 46.9978 120.491 46.268 121.705 45.7405C122.932 45.213 124.238 44.9492 125.625 44.9492C126.263 44.9492 126.895 45.029 127.52 45.1884C128.147 45.3479 128.754 45.5687 129.343 45.8509C129.931 46.133 130.49 46.4642 131.017 46.8445C131.557 47.2248 132.06 47.6358 132.527 48.0774L134.477 45.7405H135.692V62.9268Z" fill="#031862"/>
<path d="M158.587 55.3825C158.587 56.8546 158.323 58.2285 157.795 59.5043C157.268 60.7678 156.55 61.8657 155.642 62.7981C154.734 63.7181 153.667 64.448 152.44 64.9878C151.225 65.5152 149.918 65.779 148.52 65.779C147.133 65.779 145.827 65.5152 144.6 64.9878C143.385 64.448 142.318 63.7181 141.398 62.7981C140.49 61.8657 139.772 60.7678 139.244 59.5043C138.717 58.2285 138.453 56.8546 138.453 55.3825C138.453 53.8859 138.717 52.4997 139.244 51.2239C139.772 49.9481 140.49 48.8502 141.398 47.9302C142.318 46.9978 143.385 46.268 144.6 45.7405C145.827 45.213 147.133 44.9492 148.52 44.9492C149.918 44.9492 151.225 45.2007 152.44 45.7037C153.667 46.1943 154.734 46.8997 155.642 47.8198C156.55 48.7275 157.268 49.8254 157.795 51.1135C158.323 52.3893 158.587 53.8123 158.587 55.3825ZM153.526 55.3825C153.526 54.5729 153.391 53.843 153.121 53.1928C152.863 52.5304 152.507 51.9661 152.054 51.4999C151.599 51.0215 151.066 50.6596 150.452 50.4143C149.851 50.1567 149.207 50.0278 148.52 50.0278C147.833 50.0278 147.182 50.1567 146.569 50.4143C145.968 50.6596 145.44 51.0215 144.986 51.4999C144.545 51.9661 144.195 52.5304 143.937 53.1928C143.68 53.843 143.551 54.5729 143.551 55.3825C143.551 56.1431 143.68 56.8485 143.937 57.4986C144.195 58.1488 144.545 58.7131 144.986 59.1915C145.44 59.6699 145.968 60.0502 146.569 60.3324C147.182 60.6022 147.833 60.7372 148.52 60.7372C149.207 60.7372 149.851 60.6083 150.452 60.3507C151.066 60.0931 151.599 59.7313 152.054 59.2651C152.507 58.7989 152.863 58.2346 153.121 57.5722C153.391 56.9098 153.526 56.1799 153.526 55.3825Z" fill="#031862"/>
<path d="M166.371 65.4109L158.862 45.7036H164.586L168.893 57.9954L173.181 45.7036H178.922L171.414 65.4109H166.371Z" fill="#031862"/>
<path d="M185.548 63.5341C185.548 63.9758 185.468 64.3928 185.308 64.7854C185.149 65.1657 184.928 65.4969 184.646 65.7791C184.364 66.0612 184.033 66.282 183.652 66.4415C183.272 66.6133 182.861 66.6991 182.419 66.6991C181.989 66.6991 181.579 66.6133 181.186 66.4415C180.805 66.282 180.468 66.0612 180.174 65.7791C179.892 65.4969 179.665 65.1657 179.493 64.7854C179.333 64.3928 179.253 63.9758 179.253 63.5341C179.253 63.1048 179.333 62.7 179.493 62.3197C179.665 61.9394 179.892 61.6082 180.174 61.3261C180.468 61.0439 180.805 60.8231 181.186 60.6636C181.579 60.4919 181.989 60.406 182.419 60.406C182.861 60.406 183.272 60.4919 183.652 60.6636C184.033 60.8231 184.364 61.0439 184.646 61.3261C184.928 61.6082 185.149 61.9394 185.308 62.3197C185.468 62.7 185.548 63.1048 185.548 63.5341Z" fill="#031862"/>
<path d="M195.228 40.349C195.228 40.8151 195.136 41.2506 194.952 41.6554C194.781 42.0602 194.541 42.416 194.235 42.7227C193.928 43.0171 193.566 43.2563 193.149 43.4403C192.744 43.6121 192.308 43.6979 191.842 43.6979C191.376 43.6979 190.934 43.6121 190.517 43.4403C190.112 43.2563 189.756 43.0171 189.45 42.7227C189.155 42.416 188.916 42.0602 188.732 41.6554C188.56 41.2506 188.474 40.8151 188.474 40.349C188.474 39.8951 188.56 39.4657 188.732 39.0609C188.916 38.6438 189.155 38.2881 189.45 37.9937C189.756 37.687 190.112 37.4478 190.517 37.276C190.934 37.092 191.376 37 191.842 37C192.308 37 192.744 37.092 193.149 37.276C193.566 37.4478 193.928 37.687 194.235 37.9937C194.541 38.2881 194.781 38.6438 194.952 39.0609C195.136 39.4657 195.228 39.8951 195.228 40.349ZM194.363 65.4109H189.302V45.7036H194.363V65.4109Z" fill="#031862"/>
<path d="M203.234 65.4109H198.21V45.7035H199.425L201.081 47.6172C201.891 46.8812 202.804 46.3169 203.823 45.9244C204.854 45.5195 205.927 45.3171 207.044 45.3171C208.246 45.3171 209.381 45.5502 210.448 46.0164C211.516 46.4702 212.448 47.102 213.246 47.9117C214.043 48.709 214.669 49.6474 215.123 50.727C215.589 51.7942 215.822 52.9351 215.822 54.1496V65.4109H210.798V54.1496C210.798 53.6343 210.7 53.1498 210.503 52.6959C210.307 52.2297 210.037 51.8249 209.694 51.4814C209.35 51.1379 208.951 50.868 208.497 50.6718C208.044 50.4755 207.559 50.3774 207.044 50.3774C206.516 50.3774 206.019 50.4755 205.553 50.6718C205.087 50.868 204.682 51.1379 204.338 51.4814C203.995 51.8249 203.725 52.2297 203.528 52.6959C203.332 53.1498 203.234 53.6343 203.234 54.1496V65.4109Z" fill="#031862"/>
<path d="M138.581 68.4663L216 68.4664V72.795H138.581V68.4663Z" fill="#008D39"/>
<path d="M21.9512 68.4663L115.669 68.4664V72.795H21.9512V68.4663Z" fill="#FF9200"/>
<path d="M56.8771 76.9966H58.2651V85.2718H57.3357L52.5862 79.4919V85.2718H51.1982V76.9966H52.1277L56.8771 82.7765V76.9966Z" fill="#031862"/>
<path d="M66.1195 84.1772L66.3236 85.119L66.2727 85.2085C66.0943 85.3355 65.827 85.4249 65.5083 85.4249C64.9356 85.4249 64.5151 85.119 64.3496 84.5972C63.8021 85.119 63.0129 85.4249 62.1724 85.4249C60.861 85.4249 59.6509 84.699 59.6509 83.3239C59.6509 81.9109 60.9243 81.2615 62.4906 81.2615C63.1785 81.2615 63.7131 81.3889 64.1717 81.5543V81.1979C64.1717 80.2812 63.344 79.8356 62.4654 79.8356C61.7396 79.8356 61.1792 80.1412 60.7335 80.574H60.6317L59.9311 79.912V79.8102C60.6189 79.1481 61.4974 78.7534 62.5924 78.7534C63.9676 78.7534 65.534 79.3646 65.534 81.1979V83.6549C65.534 83.9989 65.5977 84.2153 65.827 84.2153C65.9159 84.2153 65.9797 84.1772 66.0306 84.1387L66.1195 84.1772ZM64.1717 82.9676V82.4965C63.8406 82.3692 63.2931 82.2036 62.669 82.2036C61.663 82.2036 61.0389 82.6365 61.0389 83.3239C61.0389 84.0497 61.7267 84.406 62.4526 84.406C63.3312 84.406 64.1717 83.8585 64.1717 82.9676Z" fill="#031862"/>
<path d="M70.7218 84.1009L71.1289 84.9794L71.0909 85.0812C70.747 85.3229 70.3269 85.4251 69.9064 85.4251C68.684 85.4251 67.7545 84.5846 67.7545 83.1462V79.9886H66.6724V78.9064H67.7545V77.0349L69.0407 76.844L69.1425 76.9076V78.9064H71.078V79.9886H69.1425V83.0439C69.1425 83.7955 69.4864 84.2284 70.0977 84.2284C70.3013 84.2284 70.4539 84.1646 70.6323 84.05L70.7218 84.1009Z" fill="#031862"/>
<path d="M72.9215 78.1805C73.4561 78.1805 73.889 77.7477 73.889 77.2129C73.889 76.691 73.4561 76.2581 72.9215 76.2581C72.3992 76.2581 71.9663 76.691 71.9663 77.2129C71.9663 77.7477 72.3992 78.1805 72.9215 78.1805ZM72.2336 85.2717V78.9062H73.6216V85.2717H72.2336Z" fill="#031862"/>
<path d="M78.4228 78.7534C80.4473 78.7534 81.899 80.1921 81.899 82.0891C81.899 83.9989 80.4473 85.4249 78.4228 85.4249C76.3979 85.4249 74.9595 83.986 74.9595 82.0891C74.9595 80.1921 76.3979 78.7534 78.4228 78.7534ZM78.4228 84.2153C79.6325 84.2153 80.473 83.3115 80.473 82.0891C80.473 80.8669 79.6325 79.9629 78.4228 79.9629C77.2256 79.9629 76.3727 80.8669 76.3727 82.0891C76.3727 83.3115 77.2256 84.2153 78.4228 84.2153Z" fill="#031862"/>
<path d="M86.6897 78.7534C88.3065 78.7534 89.3382 79.8484 89.3382 81.4398V85.2717H87.9502V81.5543C87.9502 80.5868 87.377 79.9502 86.4219 79.9502C85.4672 79.9502 84.8174 80.5868 84.8174 81.5543V85.2717H83.4171V80.5231C83.4171 80.1794 83.3662 79.9629 83.124 79.9629C83.0351 79.9629 82.9714 80.0011 82.9205 80.0393L82.831 80.0011L82.6274 79.059L82.6783 78.9699C82.8567 78.8426 83.1369 78.7534 83.468 78.7534C84.0535 78.7534 84.4483 79.0462 84.6138 79.5555C85.1104 79.059 85.8363 78.7534 86.6897 78.7534Z" fill="#031862"/>
<path d="M96.9828 84.1772L97.1864 85.119L97.1355 85.2085C96.9571 85.3355 96.6898 85.4249 96.3716 85.4249C95.7984 85.4249 95.3784 85.119 95.2128 84.5972C94.6653 85.119 93.8757 85.4249 93.0352 85.4249C91.7238 85.4249 90.5142 84.699 90.5142 83.3239C90.5142 81.9109 91.7875 81.2615 93.3539 81.2615C94.0413 81.2615 94.5759 81.3889 95.0345 81.5543V81.1979C95.0345 80.2812 94.2068 79.8356 93.3282 79.8356C92.6024 79.8356 92.042 80.1412 91.5963 80.574H91.4945L90.7943 79.912V79.8102C91.4817 79.1481 92.3607 78.7534 93.4557 78.7534C94.8309 78.7534 96.3968 79.3646 96.3968 81.1979V83.6549C96.3968 83.9989 96.4605 84.2153 96.6898 84.2153C96.7792 84.2153 96.8425 84.1772 96.8934 84.1387L96.9828 84.1772ZM95.0345 82.9676V82.4965C94.7034 82.3692 94.1559 82.2036 93.5318 82.2036C92.5263 82.2036 91.9022 82.6365 91.9022 83.3239C91.9022 84.0497 92.5895 84.406 93.3154 84.406C94.1939 84.406 95.0345 83.8585 95.0345 82.9676Z" fill="#031862"/>
<path d="M98.2842 76.7798L99.5704 76.5889L99.6722 76.6526V83.6547C99.6722 83.9986 99.7231 84.2151 99.9524 84.2151C100.054 84.2151 100.118 84.177 100.169 84.1385L100.258 84.177L100.462 85.1188L100.411 85.2083C100.233 85.3353 99.9524 85.4247 99.6085 85.4247C98.7299 85.4247 98.2842 84.8387 98.2842 83.9606V76.7798Z" fill="#031862"/>
<path d="M108.09 76.9966C110.077 76.9966 111.134 77.9896 111.134 79.5938C111.134 81.2107 110.09 82.191 108.09 82.191H106.232V85.2718H104.818V76.9966H108.09ZM108.231 81.0579C109.135 81.0579 109.695 80.4595 109.695 79.632C109.695 78.7917 109.135 78.1934 108.231 78.1934H106.232V81.0579H108.231Z" fill="#031862"/>
<path d="M115.206 78.7534C117.23 78.7534 118.682 80.1921 118.682 82.0891C118.682 83.9989 117.23 85.4249 115.206 85.4249C113.181 85.4249 111.742 83.986 111.742 82.0891C111.742 80.1921 113.181 78.7534 115.206 78.7534ZM115.206 84.2153C116.415 84.2153 117.256 83.3115 117.256 82.0891C117.256 80.8669 116.415 79.9629 115.206 79.9629C114.009 79.9629 113.155 80.8669 113.155 82.0891C113.155 83.3115 114.009 84.2153 115.206 84.2153Z" fill="#031862"/>
<path d="M124.109 78.9699L124.16 79.0717L123.803 80.0902L123.714 80.1284C123.472 79.9884 123.243 79.9502 122.963 79.9502C122.148 79.9502 121.588 80.5868 121.588 81.6307V85.2717H120.2V80.5231C120.2 80.1794 120.149 79.9629 119.907 79.9629C119.818 79.9629 119.754 80.0011 119.703 80.0393L119.614 80.0011L119.41 79.059L119.461 78.9699C119.639 78.8426 119.894 78.7534 120.251 78.7534C120.798 78.7534 121.206 79.0463 121.359 79.5682C121.779 79.059 122.377 78.7534 123.103 78.7534C123.472 78.7534 123.803 78.8298 124.109 78.9699Z" fill="#031862"/>
<path d="M128.407 84.1009L128.814 84.9794L128.776 85.0812C128.433 85.3229 128.012 85.4251 127.592 85.4251C126.37 85.4251 125.441 84.5846 125.441 83.1462V79.9886H124.358V78.9064H125.441V77.0349L126.726 76.844L126.828 76.9076V78.9064H128.764V79.9886H126.828V83.0439C126.828 83.7955 127.172 84.2284 127.783 84.2284C127.987 84.2284 128.14 84.1646 128.318 84.05L128.407 84.1009Z" fill="#031862"/>
<path d="M135.917 84.1772L136.12 85.119L136.07 85.2085C135.891 85.3355 135.624 85.4249 135.306 85.4249C134.732 85.4249 134.312 85.119 134.147 84.5972C133.599 85.119 132.81 85.4249 131.969 85.4249C130.658 85.4249 129.448 84.699 129.448 83.3239C129.448 81.9109 130.722 81.2615 132.288 81.2615C132.975 81.2615 133.51 81.3889 133.969 81.5543V81.1979C133.969 80.2812 133.141 79.8356 132.262 79.8356C131.536 79.8356 130.976 80.1412 130.53 80.574H130.429L129.728 79.912V79.8102C130.416 79.1481 131.294 78.7534 132.39 78.7534C133.765 78.7534 135.331 79.3646 135.331 81.1979V83.6549C135.331 83.9989 135.395 84.2153 135.624 84.2153C135.713 84.2153 135.777 84.1772 135.827 84.1387L135.917 84.1772ZM133.969 82.9676V82.4965C133.637 82.3692 133.09 82.2036 132.466 82.2036C131.46 82.2036 130.836 82.6365 130.836 83.3239C130.836 84.0497 131.524 84.406 132.249 84.406C133.128 84.406 133.969 83.8585 133.969 82.9676Z" fill="#031862"/>
<path d="M137.218 76.7798L138.504 76.5889L138.606 76.6526V83.6547C138.606 83.9986 138.657 84.2151 138.886 84.2151C138.988 84.2151 139.051 84.177 139.102 84.1385L139.191 84.177L139.395 85.1188L139.345 85.2083C139.166 85.3353 138.886 85.4247 138.542 85.4247C137.663 85.4247 137.218 84.8387 137.218 83.9606V76.7798Z" fill="#031862"/>
<path d="M146.604 78.7534C148.628 78.7534 150.08 80.1921 150.08 82.0891C150.08 83.9989 148.628 85.4249 146.604 85.4249C144.579 85.4249 143.14 83.986 143.14 82.0891C143.14 80.1921 144.579 78.7534 146.604 78.7534ZM146.604 84.2153C147.814 84.2153 148.654 83.3115 148.654 82.0891C148.654 80.8669 147.814 79.9629 146.604 79.9629C145.407 79.9629 144.554 80.8669 144.554 82.0891C144.554 83.3115 145.407 84.2153 146.604 84.2153Z" fill="#031862"/>
<path d="M154.298 77.5439C153.7 77.5439 153.178 77.9131 153.178 78.7916V78.9062H155.075V79.9884H153.178V85.2717H151.79V79.9884H150.708V78.9062H151.79V78.8043C151.79 77.1238 152.987 76.4236 154.171 76.4236C154.604 76.4236 155.088 76.5127 155.432 76.7164L155.483 76.8182L155.126 77.6967L155.037 77.7477C154.795 77.5949 154.54 77.5439 154.298 77.5439Z" fill="#031862"/>
<path d="M158.96 76.9966H160.373V85.2718H158.96V76.9966Z" fill="#031862"/>
<path d="M165.751 78.7534C167.368 78.7534 168.399 79.8484 168.399 81.4398V85.2717H167.011V81.5543C167.011 80.5868 166.439 79.9502 165.483 79.9502C164.528 79.9502 163.879 80.5868 163.879 81.5543V85.2717H162.478V80.5231C162.478 80.1794 162.427 79.9629 162.186 79.9629C162.096 79.9629 162.032 80.0011 161.981 80.0393L161.893 80.0011L161.689 79.059L161.74 78.9699C161.918 78.8426 162.198 78.7534 162.529 78.7534C163.115 78.7534 163.51 79.0462 163.675 79.5555C164.172 79.059 164.898 78.7534 165.751 78.7534Z" fill="#031862"/>
<path d="M176.885 84.177L177.088 85.1188L177.037 85.2083C176.86 85.3353 176.592 85.4247 176.273 85.4247C175.662 85.4247 175.242 85.0808 175.09 84.5076C174.542 85.0679 173.778 85.4247 172.835 85.4247C170.938 85.4247 169.627 83.9477 169.627 82.0889C169.627 80.2174 170.951 78.7532 172.823 78.7532C173.664 78.7532 174.377 79.0588 174.924 79.5298V76.7798L176.21 76.5889L176.299 76.6526V83.6547C176.299 83.9986 176.363 84.2151 176.592 84.2151C176.681 84.2151 176.745 84.177 176.796 84.1385L176.885 84.177ZM173.052 84.2151C174.147 84.2151 175.039 83.4763 175.039 82.0889C175.039 80.6884 174.134 79.9627 173.052 79.9627C171.817 79.9627 171.04 80.9176 171.04 82.0889C171.04 83.2599 171.817 84.2151 173.052 84.2151Z" fill="#031862"/>
<path d="M178.929 78.1805C179.464 78.1805 179.897 77.7477 179.897 77.2129C179.897 76.691 179.464 76.2581 178.929 76.2581C178.407 76.2581 177.974 76.691 177.974 77.2129C177.974 77.7477 178.407 78.1805 178.929 78.1805ZM178.241 85.2717V78.9062H179.629V85.2717H178.241Z" fill="#031862"/>
<path d="M187.385 84.1772L187.589 85.119L187.538 85.2085C187.36 85.3355 187.093 85.4249 186.774 85.4249C186.201 85.4249 185.781 85.119 185.615 84.5972C185.068 85.119 184.278 85.4249 183.438 85.4249C182.126 85.4249 180.917 84.699 180.917 83.3239C180.917 81.9109 182.19 81.2615 183.756 81.2615C184.444 81.2615 184.979 81.3889 185.437 81.5543V81.1979C185.437 80.2812 184.609 79.8356 183.731 79.8356C183.005 79.8356 182.445 80.1412 181.999 80.574H181.897L181.197 79.912V79.8102C181.884 79.1481 182.763 78.7534 183.858 78.7534C185.233 78.7534 186.8 79.3646 186.8 81.1979V83.6549C186.8 83.9989 186.863 84.2153 187.093 84.2153C187.182 84.2153 187.245 84.1772 187.296 84.1387L187.385 84.1772ZM185.437 82.9676V82.4965C185.106 82.3692 184.558 82.2036 183.935 82.2036C182.929 82.2036 182.305 82.6365 182.305 83.3239C182.305 84.0497 182.992 84.406 183.718 84.406C184.597 84.406 185.437 83.8585 185.437 82.9676Z" fill="#031862"/>
</svg>
